<mxfile host="65bd71144e">
    <diagram id="L9gtje5KincfeK3YsNyw" name="Page-1">
        <mxGraphModel dx="573" dy="379" grid="0" gridSize="10" guides="1" tooltips="1" connect="1" arrows="1" fold="1" page="1" pageScale="1" pageWidth="4681" pageHeight="3300" math="0" shadow="0">
            <root>
                <mxCell id="0"/>
                <mxCell id="1" parent="0"/>
                <mxCell id="316" value="" style="shape=image;verticalLabelPosition=bottom;labelBackgroundColor=default;verticalAlign=top;aspect=fixed;imageAspect=0;image=data:image/png,iVBORw0KGgoAAAANSUhEUgAABHYAAAHgCAIAAABPVH0uAAAgAElEQVR4Aeyd+1cTV/f/P//XrEWgmEUl+iDeKK1QBam3iqi0iqhokaaISkRAxAeNLFJp/AACmmK+kZtysQUkcsckXorUshD+ha+P+9P9nM5MhtwgF97zA5yZzJw553X22Wfvc5v/8eAAARAAARAAARAAARAAARAAARAIBYHl5eX/CUU8iAMEQAAEQAAEQAAEQAAEQAAEQMADFwtCAAIgAAIgAAIgAAIgAAIgAAIhIwAXK2QoEREIgAAIgAAIgAAIgAAIgAAIwMWCDIAACIAACIAACIAACIAACIBAyAjAxQoZSkQEAiAAAiAAAiAAAiAAAiAAAnCxIAMgAAIgAAIgAAIgAAIgAAIgEDICcLFChhIRgQAIgAAIgAAIgAAIgAAIgMD6crEePXrU3Nw8MDAwMTHhb9lPTExUV1eXlZV1dHTInnW5XA6Ho62trbOz0+VyyX4N4eng4GBbW9vDhw/Hx8eV0fb09Gj8qrzf2xW32z0+Pu50OsfGxlY1O5wAt9vd0tLS1tb2/Plzvuh7wOVyjY2N9fb2/vrrr1NTUys++PLlS7fbzbepcnN9OvgefwPMcHx8XHyXv/F4u59FrqenR7yHSLa0tHR0dMzMzIg/aYQnJibq6+vb2tocDocvAGVRjY6OtrW19fb2rlJmZa9bD6ezs7MOh8NsNnd2dq5lfl0u19DQ0IMHD3755ZcAlCQldWRkpK2t7dGjR7Ozs34l3l9BIn0oqwL8RpfL5XQ6e3t710aJ8XuDD5BGamtrGx0dDSC2mZkZh8MRWK5nZmY6Ojra2tpu3749PDwcwNtD9QipuKdPnwYQob+CNDo6WlFRUVZWZrFYlNxsNltZWdmlS5cGBgY0EkOlpiQ/PDx87969tra2/v5+jcfD+xMR8yZyHR0dZWVlJpPJL5GwWq1ln46+vj7t3I1/OsR7xsfHHzx4MDAw4G+bMjMz09/fLxaiy+X69ddftctOfLXH4/FXfmSPx8yptsGpkc2nT59ardYgTYJg9Jgsbf39/W1tbVartampSfaTxill32w219bWBmAXUczryMWanJzMy8uTPh21tbUaZFV/cjqdmZmZkiSZzWbZDQMDA9u2bZMkqaqqSvZTaE/NZrMkSSkpKdzwTExMsCNkNBplv/Lb+/r6SNmp/pVpwKmpqfz8fEmSMjMzP+aaIwk+MD4+/vDhwzbhIPNoaGjoyy+/lCTJYrEE8Jbx8fF9+/ZJkhQXF3f//n3tGEZGRnJyckwmE9cZJbfx8fFz584dP35czD43GKoMZc0PM8zPz+cXaSfMr185fqPRKD7IolheXu67a/f06dOUlBRJkhITE5U9CGL8quHm5maqVrt3717RKJyamnL6fwRs7qsmeHh42GQyycqxo6OD7QxBQv8bZK+VDA7Z4yuekoSwCfvfeIUQ0xscHNyxY4ckSaWlpapZWKWLY2NjOTk5JAl2u13jLUqGZrN5dnZ2ZmamoKBAkqQff/xxdHRUWdQaNpNfguTxeEgfyqoApXl4eHjXrl3e9KFGvvz9aWxs7NixYxk+HxUVFSu+gjSSJEk2m23Fm2U3PH78OCsrKy4uzmw2+64BOJKJiYnc3FzSpQGoAo4nyIDD4aDWdv/+/WNjY/7G5pcguVyuy5cve9N+Y2Nj+/fvlyQpJydHmZKZmRmz2Ux2G5UaKfzOzk6j0Ug9hpwYpeXg8XjsdrvPsvOfG48dO6ZMhr98lPfbbDbS4aoipzQ8lDEor/goxk6n8/jx4xkZGY8fP6ZI3G731atXKT1+mQQDAwMkvVlZWaS+xsbGzp8/HxcXl5ycbDabfex25CLzpUVTZjywK8FoEm3jRKNtktl+spQHVu5ut7u8vJyK78KFC6K7K4tf49R3PaZsjqurq2UGg8ViofTk5ubKftJIg91uT0xMlCRpx44dg4ODGndq/LSOXKz79+/HxcVJkrRp06aGhgbBsFEJ8kgRWZ+ZmZkfvRpS+jU1NeIIj6gO0tLS/Oos0SgY1Z9kEj89PX3ixAlJkk6fPj07O6t0FTgSVqAkZ7K/NpuNBoKcTufExASb7yF3sQim+Haj0cgAExMTz549q1QHMu9FWaPKysr27NlD0ebk5Chj4Cr38uVL1vs5OTlUbWTchoaGqE2VJOnixYusIPhBMf0cTklJcTgc5JoajUZmGFoXa3p6uri4OCMjY9euXXq9XpKk5ORkaqErKipcLldpaSklaceOHdxyy2xlZaNO1rwkSQkJCV9++SU/SIEDBw5o9L+63W5+qS9+Hckwc/MxoGpGs3j7G1DKIXWdaFcTrg6BZYF6RrinRjXj9fX15Pv99NNP1GuTlpZWWlpKIk0+jL+ZVb2fR0Fluq+1tfXo0aOUtpKSEtmvdEq1RsmQRL25uZnUrGoGJUnyViN8F6Tnz5+bTKanT59SQRiNxmfPnlVUVDQ0NHDdv3jxYkZGBqXh6NGjfD2EDAksF6her9+1a5es7vBpeno6YVlRkmdnZ0+fPk0pV7V3VQuUL9psNtIM27Zt6+3t5euyAE/KYDIUKC0tTUtLU3ITb7NarbLYQn7KnW6SJN2+fdsvX9F3QaJkt7e3EzGlxNpsttu3byuvc09rfX29JEmEmhqI/Pz8kZERMvTPnj07MzND6nHjxo2qI9Ksc7799lsRsizM5cJaKLTMORkkcv39/QcOHMjIyKAeAZnh4eOrucXUEGOXy8XelF6vt1gsbre7p6eHuvxUyfNF0WWdmpoymUwJCQn064kTJ6h71O12NzU1JScn0/X09HSr1ard6emv/PhIY8XbWJNwBrUDoiZh1NqPKH/lomEBUN6jeoXlUNlvbrVa09PT6amKigrVRoQuKod8mZKPeow72sREUtpoDIpe1NDQsGnTJjL+79y5Qxe5z1Q1EjFC1TAT4DSrBtaLi8V9UaqwlBd5pEjpYtHN4g1kDNH1goIC7QqsWgw+XiRNl5iYWFNTMzU1NTY2Rq6FyWTyeDxUzThhYpxcf0TLm1t9m83G1Vt0D3yUIfFF2mGlWWY0GlfUp7IcBWDgihmZmZmpqKggc2fHjh0DAwMit/7+ftIOcXFxly5dEju9KioqMjIySFmTOfXll1+STt+yZcuBAwe6u7tX28Viz00psUaj0ZutwGqUSoeFQRmJ6hUZf1FztbW13bt3j7oeEhISamtrlfqUeyvo7QEUnyRJYnOiLWO+/KqUw8BcLLE2sTGtDJDMEEbuqiS3dtu2bXq9nv3kuro6DdvCm3PiS5Zl92gIkqoMiBfJslEyzM/PHxgYyM7Opm4/JQe6UlxcPD097fF4Ahakzs7OjRs3Xr9+nWTJaDQ2NjbGxcVxP4uYWlk4hAwJKWvOo0ePDg0NOb0cjx49ojZ+RUkWi0ZWc2WFqHrKYzKSJGkMAXGyZXx8OV0xC6oJ8/ciFa5erzeZTCQw3mIIWJDcbve9e/e4r4r0+ZYtW1h0b968SY27Xq+nAP/a2Njo8XjGxsZyc3Pj4uIqKysvXLhAPQhmszkhIWHbtm1Pnz7lGRZZWVkDAwMsHTz3hLVxRLlYXLuprKksxIaAZhSL7aOydNju1xZjl8tVW1tLLXJOTs7AwMDx48d9kUMapx0eHi4vL2cnmZohWcIGBgZocJ6i1ev1P/zwQ3d3N/WfBiw/yiwHc4Wr5LZt2xobG5UtKV0xm80bN26UtYlknLDccmDLli2U5bi4uPT0dL7OAe5+ZTn0hbw4xYlFxccHxds0tLGPeoy9I+odplaV7L0VLQ26zeVyTU1NrXizmGwKi1alRrmvCxdLLC0lKdUrrE1IgMRRLFKy1LU/MzNDPY5ffvllTU1N3KcjsBkaGoVEXc6dnZ23bt3i1CYnJ9+8eTM1NVWSJNLOZGHIxoJosgfXH1HZcd1YYxfrq6++6u/vr6mpkSSpoKCAOvzYyuTKn5GRQRWGysLlctnt9ubmZqoMmzZtKikpkXX1eTvlUSyC7HK5GhoaUlJS2tvbZa4pqfvNmzc3NTWpdp1Ss0GqgXUiGZ1sG4luqoYS0ShxjZ8mJiacTufQ0BCNNpw/f9756ejs7CQj4OjRoy0tLffv3z906BD1sPK0UoqWhaGpqYme9fb3/PnzyqlW/iojrkr0dn5c26SQFWVoO85FyedSM5vNTIZGqhkLcWCVylkQa5PH4+F2jtstyrLow3PJ0ruam5vz8/PZZlXOvhM5hHAEhnMt+X+ILhYVLgHJy8v74YcfyL/q6upiemKALUtuGn1/PwsSma35+fnXr1+XJOnChQvnzp3btWvXxYsXaUJXc3NzW1tbY2Mj1Yjq6mq2VzT6Tblo/AqwEvAxI1zW3t7CRRMXFxfYVL3R0VE2KC9fvszj8OIb2dUX9W1GRgbbZOxLyG7gkQ0xtmDC3lJCPYDeksGOejCCxKBoGIpa8Ozs7JGREZfLNTw8XFpampCQoNfrm5ubz507J0nSnj17eMoQtcvl5eWXLl1qbW0lxyAnJ6e5ubmqqurSpUuDg4MdHR0010gmHqxMWOdo68M1HsViDSm6WJs2bbpz505FRcX+/fsTEhI4C8ppESQzPHak2hUlznh0u90Wi2X//v2Dg4NlZWXE6uLFi6ozjZ1/H1NTUwMDAzzoSk+pGhIZGRncoUy3SZJ0/vx5qhqsz/kn7QAromDEXvksa5IAXCxlbC6Xq7m5mTrsEhIS6uvrVe0ZfpDlUGzUiIwsv9SccemzqGhDU/1V2zri6ilJkjc9xtWf0kO5oPCKxZqZmdnR0ZGamnru3Lm6ujqaKqw6kUpshTkssyqZpCwQ+y4WbQBAnRyJiYmiWdnU1EQFz3aq8++DTQESINHFIgvD4/G43e6P69Gp96WmpmZ6eprcLb1eT7a7jHXAp9ToHjt2jEyKuLi4hISEXbt21dbWqgqueJFSq1p/uG6ssYulrAAJCQnV1dUPHjzweDxdXV319fVjn+bfU7KphlNbRcuoqBNlYGBAtrKLDSkxwKMoK1Y5kRuHVfVLGF0s7hrkFFKguro6IyNj06ZNH7WG0+nkEa3KysrR0VGWZ4/Hw8JQUFDA+kI1QE67jIC/GL09zvWI6gVblqy7A64vKz4oSj6/V3SxZGmTNSpMgLYVYWHjzlfRpu/p6ZG5WOQkk/KxWCxHjx4l/UNlpDoPtqysLIT+lcfj4VxTf4fz0/H8+XPRphkdHe3r6+MrrC0JDjGkwiUgO3bsoIEamWSKp2LhMkbxBo0wCxLN5NmxYweNG+Tm5qanp5eWllKE+fn5drtd1cViVbCihPh+AxtG/o5i8dxs5z8P7j3ZtGnTo0eP/vnj/50plxNwgRIlnq65ceNGDT+tvb29pKRkcnKS8jsyMkKDkLQMtbu7Ozs7u6WlxeVy0YDPR0M/5HM0GKDkzyEaZwELksfj6e3tPXToEK1Ioexv3brVZrNRU240Gh89etTY2Oh2u+nXo0eP8pYPzNxbws1mMy9Kkd3DFYG1cWS6WKdPn25tbT127Jgs/eI4BmdBeY/GFSZAsud2u2dmZm7fvk0G1ebNm2kHJtausgA7utTS5eTkkOhqvJF+Sv90bNq0qbu7m14djPz4rihWvNPfiqDRWcNr0mjy/61bt6anp4eGhmpra73tKMaFKPrD1OEiGwEjz5mLT9Rjo6OjtKxRkqRjx45pjOo7Px3Kdblcp3zXY1R8lB7KBYXpuoYWHRsb+9iZsmvXrn379lVUVFBvcnd399jYGCVP+69SCasWcYy7WKJ/JUlSWVmZ2KXHUuVNWEdHR2lYdtu2bWazmfpEeYlCXV0deW779+/v7+/v7OzkGeR6vb6lpUW720C1PFQvynptU1JS7J8OXgMjeT9kLpZoVZ89e5Y62MLoYiUkJMTFxRUUFOzZs+fLL78cHBy8cOECqz8qIKpstBA/Li7uwIEDpN9tNpvGrCpGwpaZv5qUYqDHecKx2FXJ3eQkEna7fbUnCno8HlrYyp2ae/bsIe+or69PI4OsEEUXixFpBxggCSe/pampic1Bsi95NhSNAmkPgsncGNatYlJVq0PwF9nFqq6ubm5upi7/AFysj5OFaJKkBkDjp0McDPTmJBNnxiuLU7QpgyegpP348ePdu3eLnYW9vb3btm07dOgQjfywthRdLGrAaESah5WkT+tdZYPM3377rWiWce+jJEkBCNKvv/56/fp1ahePHj1aWlpKGzDSTK2zZ8/K6NGpTJKDx+jxeAI2jPx9UMwRN1hDQ0MNDQ208RopH8ojTa/IyMhwOBzcDM1+OjjXNN9SkiRyqAYGBqhL5dChQwMDAw6Hg9q77Ozs/v5+nlx99epVsQ3l2AIOBMZBrA5cZQIQJG+VUaStGqYuD7PZXFZWVlJSQtNJJEkSF09+3J+Q9lw5dOjQ4OCg0+mkfopNmzbZ7XbC6G0ISDl4SFfEwZ+AmYsPKvkfP368trZWdfCN9kGh6fGsqFkzqILydpEf7+vrKy4uHh4eFkctvD3F17n5IBPf7XZT15XFYqHkVVVVOYWD2yaj0UhDlCzGwciPSDLIMBdEwKNYbrd7YGCgqKiI16Qxrvb2dmqOExISTp06NTAwwGqBku1vIXLxibnmRR+ff/55a2urgF8elDlXwegxKj7qK6T6RWmj66zzuckTVcfU1NSxY8doIIva6MbGRl+sStlETRGCLBzjLtbo6Cj3bZw4cYK762RSxS2WjI4vYqfX6ysqKpKTk7/88suhoSEePdi3b5/q1uqyV/hySnWvpKREFBqe5H3y5MmRkRGn00lVSOa1U6ejdkbW2MXiai9JUklJyaNHjyYnJ6nb9ciRIykpKQUFBTSXmpJNlUTcpoZste7ubpPJxBsDHDly5OLFi+RvnDhxgrRMQkICbx4om3Ld0tKiNMUKCgp++eUXscOMer7ZKBcTLwufPXt2tV0s3vKOHYPjx49Tah8+fFhVVSVLEp+KCpGFQRzRdaod2j6SzWaTqS2mRO2fbPSGRJ3bM24j6TpHJSbVl9oRwD2cTuYjW4slm54k67fjLATsYiUkJJBNxmuxtmzZQnJOkXOxtrW1VVdXa+wSEUD2aQSeP8wwMTHBK8VpJzqXyyXuv0qz72w2G41okUpRMszPzx8dHaU+CKWVUFJS4s3F8leQuN+UXDseA6R51KqjWNQbws1tYNBUn/I2z82bicw7CrJFJQqhj2FusHjrs/LyctHFIt+PR5yGhoaMRqNerxc3pKHZWXq9Pi4urq6ujh6XJWD//v1DQ0PUlxcXF7cao1iqVHn+ti/bKnJ99FeQxLfIMr7iKasvccRAkqS8vLxr166RB8UJY6uOruzatWt0dFR7VrDqtAK+6OMkJW9sxeu+y+HGjRvv3bvHG2sdO3ZMZl2wWFL87L6Kc8/4daTneeA0LS3N4XB8/MTCRzg0eEKra3bt2vX555/zOiLemam5uVnMhcvl6u/v/7i0m9p9Msb4BrfbbbVaqUxp4Tr/JPb1BCA/YjxBhpmM9iII7hkXaZMFdejQIRoDJE/YaDTyxjn19fVHjx4Vf83NzRVnTc/OzjoVBylYmUlJd4nzYijjfnnIXCPo2WD0GNcyKl9uZeg663w2MMRXu91uapiomzUlJQUult9iTD4PjZZwGawYIAWq3cO0ZcsWskh4imBNTY3L5aLZgwHsC+8tb/39/ampqTwThoSGJ3lfv36dHlS1aOkn7YzY7Xau3uI6opAbu0qzzGg0Uk2orq6mLfUTExM/7tOa+elobGwUu/9tNhvrCE7bwMAA79h+9OjRjo6Oy5cvU3EXFRXxpA6RrcvlstlstFRJKQkJCQknT56kXRb5KWXKlQ+ugYvF3pHy7axKuM0gRPQI4xJHscQhTW68xYD2RMHAGiRWiGyjEGTWgGJSmX9oA6qlKY5iKfGy4ma8SuNP1aRgM44L6GPTmJmZSbLNa7HMZjPdQHx4cLKsrIz2QBcbhlDRmJmZuXfv3tatWym/cXFxV65cYbuc16IwjY9NeGdnJ3V/KhlSChkCPyUGxMJlSfBXkJSvptIxmUziMEJJSQlNXCwoKKBwYmJiaWmpjxM8VoTM/R1ij4yPYZrNSx9aFGtcWVkZm1C8yFZ2Q1lZGS9NpCzTSKDMxRLT393dTSiUpmdra2tFRYXNZmtvb09MTCSfn4qMv1oxODiYnp5uNpu541+MfJXCLEiiga76roAFieumOF3WqXmI02WfP39Oi7VojdbBgwdFUc/OzuZlQiz2VF60c7SqGIsxaIQ5QlUgfl2kPgJ2XXbs2MFrqGiEs7e3l5YkiBpM7PThVkk0+pmtTE+ypUFZmJycpI48SZL0en1rayu7cJmZmaOjo/X19QkJCbQNhth4kVRMT0/X1tZmZ2fzdhekAbq7u/nzAyJGvV4vWygr0+fcDJE24zKi1krDxPKLuerNTEZMsEaYafNwNN+ck5NDw9eySjQ4OCgb46Lt2bz1E6lOFOTOI+4t8ng8YjlyMjQCsuYsGD3G1Z9fR6JF11loZSXLRUCT0Ug9pqSkKCcKevMzfWxHYnwUy+PxuFyuurq6pqYmH4f/qJyoRnF36ezsLOkRkgwaknY4HJWVldTqkMNz8OBBGgBtbGwM4e7tvb29mzZtMn862OV49uzZx9lZmzZt4q1gV6z/3G3GLTTLGVfvNXCxqIebOg/YxTKbzdSTkZub+xGdqos1NjZms9lI4jMzMwcHB8lGuXjxIi/v5mrGOzXznu9TU1O0allsQtgv2rhxo8lkysrK4hj0er3RaBSH1OnrComJiaSmGZrMW/B4POPj4+TCyVQJAw8soNrV5Px0DAwMtLa2koVHbIkzjYFs27atublZHBvkbK4YYCVFaWaN5q9lLHvcbDZzA6CdhhDaE5QGbjjFLIgulo+jWDabjeuU+OUA9l1pNpGsYpKLZTabExMTHzx4QNtdyFwsJZDQChLtocTOlSRJWVlZ4qQyls/h4eHz58/zzJO4uLhTp05NTU0RQ9lEwampKcqs0mblavux1sgkQSwFyiYXkKplw7+KlDIzM7mdFq/LwiGUJbYsZa/w5VQjGR0dHdyRdEHzqzI0y4VaBP5ihKy2EmqXy0Xr1iRJEvv+XC5XS0vL1q1byfScmZmpra2lsr5w4UJjY2N2dnZPTw91Gm7dupXWZbFsrGqAlcOqulgej2d2dpbm+yldWdUrvLaNHdfc3Nzh4WFKcG5u7vXr10WLn+bN9vb28kdWPu7Ows6qv466uNN0CPmzMNtstu7u7sbGRjI6yY6XWauUU9ZI/Cwb/ZQw1RLkRpOrAO9rT/OMmBLNA+rt7aWvL+Tk5IyOjvK7WCp43hCtOyotLeXlRjKF8NVXX6ku3wiyRQtVKXjzc9ilkQXYw6E1FKR2cnJyHj58yNKlWgSiSicFy4Xii+7ie7i4XS4Xb1JC0u5tEWl/f/9XX30l+ue0MJgW+4lfvvFdj1HxkTiReFCYhbapqamtrY0n/tCGNG1tbbScb3p6msZFSJH29vbK1mLRLkqyoTzlIJ43MYh9F4tyzq2ysnuYuqBkypTUKEue7dMhSRIpRxLcqqoq3m6hubm5srKypaWFZ22Fapagx+Oh78D8+uuvLDS0R9z09LTD4eA1haoTBWdnZ9lR5OnI5eXlTuEYHx8fHR2lVSVr4GKJFYBdrLq6Ok5/W1ubqotFDjPpTXEDEq7zqgGuq7TBLt+Tnp5OFgOVJt3mcrm6u7vFIXVuSIaHh2lUh7dCZvFgF4tnb/JbTpw4ob3jsLea6e36x7XXMlVLp9r7fYuDMNxKhX2iIDcAjEs1wI2xNyb+XmdtIBr3oovFBUoxUzo5GWKTzFGpppyERxQw6tzNzMw0Go2pqamdnZ35+fkFBQUfFyKTBHr7NLNs8rq/WZbdL37EIjk5ecWv14uzoQgOZZzSTEDEzCo/sEYdosww+M5j/rgwt/SUDN52gpvzpqYmCotrYGRAAjil77mTTuAVOMpFkrKWhU41JnrRnkYkTrt27VIdh6fU8vep9+3bNzw8rDGK5fF4eNYDfULX7XY7HA7umUpJSbl9+zZtUpqQkFBXV+d0Oo8cOSJJ0vfff3/37l3uoDx79iybsAFAU32EWyincPDghlJNyeqCWB9lfdVcPUloZTWREsOPqFZh5UVWDrTgzWQyjYyMnDx5Mjk5mXYDn56eHhgYuHLlSn19/datW2lK8EenZWhoiL4IUldXxxxYGytfpHpFrEEcSfABTga5LsxtDVwsatYtFsvIyEhPT4/SFG5oaNizZ4/ZbOZZ05IkVVdXk7fpcrnKy8uPHDlitVrH/P9KdfCKKHj4Gj2nzpWOsbGxly9flpaWnjp1ireh5yR52+TW4/EMDAyYTCYixpaMbOM31QEc1qskG1NTUz/++KMoqxs3bqTCUg7p8/J1Nqvo6x00iBqAHuPio3ohuli0SSCvsxJTSGGqyKQJqW89JSXlo/yvuL6axzmYs0Zg3blY3B6Lg87iRREWS57NZqOPDF65coVHwD82NtzwyMqPzXoxtuDD1JZw5KwWZW8XT8V1VuJ1MZyfn//777+vgYtFw3FUGSgv7GLl5OQkJiZ+/vnncXFxR48eTU9P58lUnN/nz5/Tp5bJYeCPQbNeoFaZbSya1MGPezye+/fvJyQk5ObmivMAe3p62traHj58KHrFNEsqMTHx/v37VHC3bt2iTfl5FjiLBw162O127oEjvCHfW5IVilh8FL558yZ9LJJ3Xha/FJGQkHD06FHSpyw2PNiiagXysIwIUEyA6J+QxuSGWcOgYXuosbFR/CY926Y8E/3ip6OsrEzDHg2sTnE6g9zuwmazcVTiRkz8/TTR62CMRqMxMTExOTl5z549IyMjPF2ebvDmdoptUmC5lj3V0tLy+eef5+bmelvXLpOxY8eOtbe3FxUVkRRRxr2NYsme5VPRQGRJCEyQaEiZur0sFgttTUT9o/X19bQJgWyiIBeBDEUwp1RerHN4Axij0UiTHZyKQ6MHVOyQJiIp8QQAACAASURBVGhs0CsTyROnS0pK2E/wlkdeXBcXF3f//n0+lSTpY49SZ2cn+YpcUmKgpqZmcHCQhuVVp1op0+bXFVak4ks1wrK6EKQgMTrl0KtTOLiDkkuEdk1wOp2tra1UiT5+RoWfGBsbm5ycfPr0Kc0pKCgosFqtcXFxPAmCELE2Fj1JVdOWWjexBvkFWftmToa2i2WxWPhDiCUlJTRnmJ8V+6+5+aBPs3ATw9N3VTPiTfupCgPHwCWoepvyYmjlRxusL78yQGVSV7zCEHhHLqVjo3pFXIjFFVBWgrRHkew7QFyCZDbb7XYSfr1e780eVuZCLIJg9BgbJMSBSFKYZEljdoPZbB4aGqKPBlEKd+3a9fFz7XCxfBFa+T1sCYneFEu2eFF8kiWvpaWFVkSI33E/f/48G7U0krBr1y6aIeCtnRMjDyBMbQlHzulXSjBf8cXFKikpWZtRLGWC2cWi8eXW1tb9+/dT4tnF2rFjx+DgoN1uF+c1iaNYrBdkPcpUZISLOkpHR0d50M/590FNV3p6+tOnT/++9n//h4aGRkdHadItfSde3FCL4uTeVmqcyGFra2uz2WxkjAZQ0BqPkAywhmIRpbfTg3SPUunQr8pSkDQPljcxcpphz20bpYdrmYaLxZ30YoLFbcQp2cPDw7m5ubW1tTznQYOJvz9xOsV8i6NYvn8Xi6OSZYf0O2GhMGOk0/T0dJoG9uzZs8uXL6elpdEN9KuYMApzifubWW/3u1yu8fFxTr/yjbIrsgQoH6Qb+FMWaWlp2pOlg7GMZSPStFssdVvm5+crt7GhvHAReGMSwHVv5cU7ScowaveA0jeUaX8RGvGQrZ4SU8jzoBobG7kmauSRP/JBczHu379P/c0zMzO0D74sqVu2bBG/TDg1NVVaWnrjxg3ZXmRikgILsxKTJcDbqUwUgxEkUfNw5w77A2KA18ixi6WsAmKCuSBoAvymTZtoaRaNIjIof7UxqUd+PFQBTgbpMc4amUZEOCUl5aeffuI88r4R/Cz/5EtAzIjT6ayuru7p6TGZTPwBK+q4lG13QYPh9PE93lyRhd+X98pmqbGNHnCLFnwRBAaQMssYucgCgOBvBaRXkGyMjo6S3Xvv3j1ShnFePnOckZFBX/eWFUGQeoyrP2ecmFBiMjMzf//9d6fwKVHuDpuammL/kGFyxz1Vcx78P3bsGHXBU2Fx7V6x9GN8FItnIHAXFI948A6q9BE6p+IQp89dvXqVOkQlScrOzqaNGVjVMuWP+7bTbbLd4fmGIAOs6WiioGwaN+3lJRul/VgBGAIty6G10U6nUxzw5Tq2qhMFlaqEXazExMSrV6/SJlc7duzQ6/XsYlGFkVUGceSNq5ZqgCoDZ1D1Hu2L7IGrTtLjlV2ycQzyupWLa0MiA8oE22w2/qQSdT6RxUB+Jitij8cjExvq4mpubj569KjyayQtLS0Wi0Uc32ONFsDgg8vloi94bty4kdcQEhBuJjMzM4eGhmhsh7aTCblJJ5Mlgim6WEq84kxLkQA3bGInNG/vSbYg6XpWynTa2NhI+ziz9qcbxKGPlpYWsnH1en19ff1qeJviWjIyKHk0QzbIKfswl7hkiHBRZsWlEUqMonEsYuTSpxuYqjdfnV0RSZKOHDmyZ88e+logbVJKmyWyfuOi0Rg+CrhWUmny/H6e5mQ0GisqKrZs2aLX63ft2kXagHRFampqf3+/8o29n3bJp93AmpubaShDkqTTp0/TKkrxEV7NT2LDAFnM+ObOzk6a2jcwMLBt27aEhITz589PTEzMzMx87Fnj20ZGRux2Oy13oRnv9D290tJSdpXdbvdqCOHMzExHR4esr131K3N0j9gBH7yJzOiU4qp6hdv9/v7+AwcOyLYE4G5WLmWe0UqxiZs6ilNpWEqdTmckj2KRhbNnz55nz56R8CibdVVusotik8QK2WQyiXWfFsnQxBMSQlFpsOhyCYpx0oxrscqzDSBqoeDlh5MRfGBsbOzs2bP8XVBRPFjqvL2Fuck4ezsVIahWwLa2tkuXLiUkJGzdulX5jbKPE4J6eno8Hs/09HRRUdGvv/7K07uUKojTrCyC4PUYiwTnNDMzc3h4mEwI3tmbhUTMOM3dJd9PkqR9+/bRRgC0wzDNBOZoMzIyent74WJxaf4n4K/YMU3ys3n6HF3n9UJ0ajabJycnL1y44HA4PB4Pbz9K6zL/kY4QnZAweZNgmSUne+fMzAxZ26z6Wdw/LgsRwyyLosKSxRbYKe2iRuaIbLuLuro6arxdLhcNqclcLNoS9Pr167R+4Ny5cx/tBhrSZbdZY6IgZ1AsYh/D7GIpK/OKMcgGNwLjJj5FaeC1Hzxqb7PZNJLHRel2u6uqqq5fvz48PPzrr7+SVd3X13f37l1aZC9+26CjoyMnJ0c2HMFvCcDF4rVqNDIp5ksmdVyb9Hq9xWIJrZdFWpImufHMriBdLFVJIG0uq5h0qrw/JSWFFuaSHVlRUUEbD3z++ec1NTVtbW2rtNJdLAVuJqlPV/aTeEoMaW4VWYT5+flNTU3c4yBuGcL7lYnNW8CCRJ8fTExMpDkeRqOxpaWlqqqKer7Onj1Lu+Bw1WBfkXe+ETMSZJhKk+sjz3elnXLS09P5G4ks0ufPn1c6Kvwrd/HyVxbj4uLE75VRgnmvhby8vMnJSa4+ytbBaDTGxcXl5OTYbLaHDx+OfVqvQgvJxFEaDnvzsfmGkE/cVS0CriYrqtCABYney+i0Jwo6/z54y02Px8NGGAs2+8mlpaVUyuLnRviTj5xl9k/EHjqZ2yb656zJOYaQBDgZ7e3t/f39drudJn3JRrE6Px3Pnz/v7e1lDvwsN8SEiud3iN4jd3yIGaFVGHFxcTabjd2tj5/E8Hg8DoeDRv/279/vdDrFsuaMcwmKcdKXBsTqwDYAFxbFIMbJUdE9bEB66+vhNIQkwGMmpaWlskmYql+mpk9m06tlSfWWHlkG6TZVq6Czs5MWWSUnJ7e3t3OETqezvLx8z549Q0NDdJG1GdVZ2cRC1hvi5G0ugiD1mMfjoUEwGpvi72INDg7SFhr8ItWMT01N3bt3b3h4mHalPnHixMdMkVVJ28uRUbRr1y6qDsnJyeS5iXLFZFQDMT6KxWKnNGhWvCIbJ8nNzaWvQfOHturq6uhT1nq9/tatW4WFhTQJhJx7VdxBXiRd4K10Sb69/cqiTDvGih/NNBqNvJtNRUUFy6KosIJMOT1Ok8RoBwjKC49iKYtD5mKR68UFev36ddaYvk8UJNXPf7u7u2l/m82bN2/cuJGMGx5b4Nt4d87IGcXiXnNeP+rjKBZ3qdIWC4SdVqZxi1hdXU0tqN1up4mvbC4E2efHTQgLIcuVUurIWKHF96zE+f5gAtSiU03h95rNZtXxPe5cZw9HbJJZIImk7C/pd1nFpFPRoqKe75SUFG8z3CjakNdHVYaUvBVdLIJASaKwXq8nn5Cm5mdkZDx+/Njj8fCeYGlpaTT8Tu8VMXIp+GLZUPHxl47JCuS9Hz5utOVtMr033ajKwceLjEtW9PSFU9poS6/X19XVff/995Ikbdu2TYRAbxkcHOSdJ8RNYnmwTvlNKvryxMmTJ2/evCnOdpPlUVwdKtpJbBbLku3LaUTJYZAaSUSn3KOFfBvZ3wMHDvAgJBcQfeqD9mCkqS4jIyNUuJOTk7yEmBYaiKKl6uuqroEhU3WV/FtRHsSvA8lcLBJd2spSr9fTNx44C7KdirlqiE7yxMQE9YBwRnhqQ3p6+tDQEKekurqadC9td0EDKdQzS9td8GAmaw+WTF7TyIMYosHDZjcVRMCKSCzH4MPsrickJPCulUxDtWKKYLkl0h7vYlYiBG9WAe2YL0kSzTohq4C+7iBJkrLfh0tcNbXiRX57kHqM+wQpQsKVmZnZ1dVFE625f1w141RqvOu9yWRiqzIzM5OMH9LY3HUizp32pdBj3MXSXgLIE+fED32yReVwOHichLYDIqCjo6M02clsNrP1QNKzSvOauCBJF8gaUf6V5Fv1V5fLxQY0T6HmOslSSFGxLLLC4lcEE5idnaUOAFFra7tYtKJdTAYtJ6DuLq4MYtVVhlWB0DYytBsslRptTKyxe7W3vLNaEfWdt5uDv87tgSyn4tvpHuJGn0Tjaev379+nTTvu37/PUdGzIyMjOTk5tbW14+PjJ06c2Lp1671790jUaY07bXzE85eampp4CIj6kHg6Lq1lIpGjwaKxsbHZ2VneOZqFkIGoSl3HpyO0Q1i87IQ+AMrv1W6ZOJ0yk45n4TrVDtr6TFYx6VQsL0pDSkqK0Whke456skWzjwtRTEzIwz7KM3USk6tMgnT8+PHS0tL9+/cPDg7SrwkJCYcOHSK/KycnhzbJpW2yeTYUzVv2S5A+auaUlJT29nZ6L+kT0hUbN25saWkhF0vsOyfJVFUFQQIkXGwxsDhRqkTzmr78I/o5tJdac3MzLxOXtSCy3ZC9bawv+gmyKbhsa8ryrm26yXSL7FRUyEHS03jcFzkMUiNRxw0XmSyb3k5Fki6X68GDB+we0yOff/75w4cPSWs5nU72r+jXtLS07u5uyjj7G2JPf1lZmYaLVVZWJpuyq8HQl5+ePn2ak5PD3wmgbmL+ACuJMU1B50Fg3hqRxV71Rb6UIE1c3717N02InZ2dpQ4Ub/DF6/z26enp4uLijIwM0pCyPe6Sk5PPnTvX2to6NDRE3h0DDIn8qOY9gIvcoUlLMWliJNfTVR3F8mYV0MLaxMREs9k8NTVFVsEvv/xCwwliZxDll0rcr1EsGSiujD7qMf5wBQkqu1hNTU3U08fNOsfMYkOv5kFmmVVZWlpK31tjjd3d3X3p0iVaWikqAVkWZKcx7mLJcis7ZfGl4pH9KnZ7iPYQ+81UeLQun2o+zTRQxhOqK2RSUOkqvyZMU3Rkaw2PHTv24sUL9h9SUlKuXbtWVlZ28eJF7ustLS31eDy8COTp06c0VyS0TSnr5draWnZTvZEno4FqLCeDzQXay5hdLJ6fQDY9L2dU7ijo8XjGxsYaGxvF71/RwjmXy1VZWUktTVxcXG5ubmtr6+TkJJWdhq+usWaA3HUe/QiJGJAMqI5icfx0D3Pj66xlaMk13SZJ0u3bt8kgmJ2d9Xg8XV1dZPPl5eV1dHTQ5Pv8/PzW1laxhfMrnJmZabPZKCpS2d62ihGdCvY3iouLQ7X3PUtRbm7u77//zlNiLl68aDKZZLaO7JR6XplbQUGB7AbVU6pNrJRJqlVHscTxDW+FyKUZTICWkTBeMcAz/cQUijcUFxePjo7SJL38/Pzh4WH6ckh+fv7Y2NjU1NTsp68I0vgwCYler79z587o6Khs9otfIkQ3Z2ZmDgwMVFVVzczMECIahCczl7+qJxuFo+4kLoJg0PGz4m431DdRVlZmNBrZX8rPz7fb7TR4RYmPi4ujejQ5Oel2u8Wt8GkJlnJ/F5mTRqqpo6ND1u/AVZsWDTY0NLS1tVmtVv7Autidz1lQDfhoGas+6+/FIOWwra0tABFiQfrYgojeqVJhyrJDZEQpmpqa6u3traqq4kLn9Bw5cqS5uZl68eiTTfyxLL1eT99x5skjYv3iLWFlTTnfE0JlqFxMkZycXFZW9vG7RrTXfF5enmxax8jIyJUrV6ihVPaUicR8FCQeQ7h+/Tp9XUBVi9JF0flkT4m6KsbGxux2+6VLl6iV4YIQA1999ZXJZOLNzdkCFO/xMbyitIgoVgwr9++hcdFLly5RemQ7MDn/PnixGfeYqzpjjJRnMrOnwapDZhXU1NTQ2suhoSG32y1aBdyUy5aJKiuILOMfPzLE5gRPNBXv4cT4qMd48kJNTc3U1BSNmuzatYt68xMTE7lN54zzpG5qzZ8+fbpt2zZya+mLWDxRcHR0tKurS9S0bre7oaFBe8siMTsejwcu1n8E2Juhz0Y8WRu81w0Jvegf85cBaGd9sVRkxIM5JZOCVLyP2iEzM7O9vZ1mwUmSdPXqVZ7rTLmgPXw9Hg8tlKKL9PfYsWOq1SCwLLS2tsZ92rLWZDJRB4MkSeTdcYTt7e1iAih89uxZMv3r6+tJs9NMZS4dLj6q4UeOHKmrq7NYLGReEK7p6ekLFy6w+UgxJycnU1NHCXC5XA0NDdwQ0j1btmypra3t7e1VNqLKpKpeCa0uJhmgWazt7e0Wi4USRp+MvHTp0sWLF2mIXGlUdXV1bd68mT8/ypulqiY7Li6usbGRPlpaUFAwMDDgo8ipxpaZmfnbb7+RO/pxzcz/+3//zy+e3B6wqAQc4Bb9woUL4oat58+fXzFJVJRUBKrZ1LjIlhlbHrKb6YahoaGLFy8ajUbaP1M5ozLgjIsPcnssS4Mvp/n5+R0dHVRNzp49y7olPT29pKRk9+7dYo8413SKWa/XFxQUUEegL+9S3pOZmUlb+PBwotFo5A3czWYzqwXls1wEIoqAw9y6K1+kvJKQkCBiOX369O+//y6Ofuj1+oaGBtUJsZOTk8XFxfy4t09BXLt2TflevkKbCfmSWZZPWceiL8/6e0+Qchhkp89HURFdLNXOHXZs+EsMLEW8uxVBjouLKywsPH36NA3bitYCrcf7OM+KlhVRr9bz5895yowsQNPhZDtXifeEsNuO6oterz99+rTdbicJFPf0ZxGSBZTrymSl76MgkTqNi4vj2XFiPGLnJk3Up+0EaUh8dHQ0Ly+PgMuSl5aWZrfbh4eHr1+/Lnb30G2ySYmyZ305DWGzLg5Wnzhxgr4G7ksaaEN82gvH36rETarMKlC1wcTEWCwWmhVF81zEnXioxLmCUDny6gAxEn67WNYU9kuPsVV5/fp1bok2btxIJtDu3bvLy8vF94ph2ljr1KlTdJG+yc7NB5v3bBvr9Xr23nlHA2X6ZVfgYv0HL9voMjqMWywYDotl4HK56urqqKqv0naCbFKQBPto75JFQqNY9M1cHk2iftMLFy6QH0UfreLc0Z4qMiDBnJIe2bdvX09PD1UAvV4va8X7+/up84yTkZWVxWs6BwcHPy6yZM3OpcPFRzU8Pz9f3FuWvxRss9nYfdLr9fT9ZWWOBgYGCgoK2KChx/3VX5x+cSc65bsCuMIuVm9vL+8iQExkNh/tCS57xdTUVENDA20GJesgF9MsSdKpU6doEO/ly5fUZcBz7rlLzPcA9Rj19vamp6fTimrZKJZoyijDIey4pckPGzdudDgcvF1sWlpaU1OTvy6Wt3EeWfrJseeGh6RUnMZG0+ToBt5hiYrDd8tYVtDapxqjB7LEK0+Li4snJyfLysq2bdtmt9t5d4Ty8nLuc6VOwYcPH7pcLofDkZubyxWqtrY2eEGi3FFdMBqNJMnZ2dnPnz9ntSCTZ7+6HrXp0a/i3i0ZGRlnz54tKyurr68nx+n8+fPUJZSQkFBaWvr8+fPh4eHz588nJCQkJiaSNdn79xaCWVlZH7/HovFSl8t179695ORk2UxC8RHlnDQiEBcXV1RU9BGLeLNG2EfLWCMG338KRq/m5+d3dXX5roJkd/JaILHjXCkzyitckXkHqYSEhFOnTvX09JCepO8ODw0N0RTBlJQU2m/N4/H09fVlZGTQum4fW3BlAkLbprhcrv7+furEFAuur69PnOshS0ZCQkJ9fb12V7IvgsRrBcnnERNAYa5lYgJ48MTtdl+9elX8SZKk9PR0mtjGsbndbvK1yPCgvl2XyxUqRcQvCizgdDqLiori4uJ4qd7U1BRpElabsjzyKW0KIo5GivsMKbU373gpOjkBWAVOp1PZ/04lzhWEaIyOjtJEUE5zXFxcfX29N1Z+6TGyKnNycvr7+7klunz58tDQ0P79+8vLyzX6Q8lJpirJe3px8yGa90rbmCXQWy74+rp2sXiu3ccV0kxEDExMTNy/f597j2hPW6fTefny5YyMDBZueoS+m3T27FmeXSZGFZIw9eKIy219jJY2P6UdYHiDTpvNxlN3aAbdsWPH2FZoaWlR7VL18Y2qt42NjbW0tMzOzra3tz948GB4eFimozltxPzp06eyNIyMjPDegzzLgouPvknlcDhaWloyMjL27Nnz008/8d6ybre7pqbmp59+4r461UTSxefPn1+/fn3//v20t7j2khun5sFD+Rqv8/0nmhZvNpvHx8dLS0svXrxYVlb24MEDt9s9NjZ28uTJnJwco9HY0NCg1IDKt7hcrqdPn7KEc2BwcFBGXvlsAFfcbndvb+9qxOxXYlwuV3Nzs8vl6ujo+Pnnn/39ghlvjs/Ov/bb6QvLvJKhoqIiIyND3M2f1hJQvXa73Y2NjWVlZSaTyRdB1X716v06OTlJKsLhcLS1tXV2drpcrqGhoZMnT5rNZtolXHz72NiY1Wo9d+4cr8gSfw0sTPqQqv/IyAj5LawWRMLkUgagOTUSprqDOS8LoX2DWlpaZL7N5OSkWAW6u7stFovYE6zxxqmpqfb2du3qw/O9WSf5ogfEl5J8ykRUvCHGwlxkeXl5H/v4mJsyQO2+KEV9fX12u13pnxCikZGRa9euyerC+Pg4VQFaCKR8iy9XQtumeCtQt9tN3z9QJslblsWofBQk8vHu3r2rWgvcbnddXR27xyaTyWaziXcODg4ePHjwxIkTVVVVHR0d4vdFxMRQmN5FW8Mrfw3jFZfL1djYKOtx9ng8GkVAhcIFwb1mMrtUlimWdo1ey4CtAllLx8wvXbqUkZGRl5dXVlZ25cqVX3/9VVuJietWWPa86bGRkZGmpibqy2tra2PTxel08pYzMgiy076+vqamJrJFeXmkOKZKlhVnobm5WZRAWWyy03XtYslY4BQEQAAEQAAEQAAEQAAEQAAEgiQAFytIgHgcBEAABEAABEAABEAABEAABP5LAC7Wf1kgBAIgAAIgAAIgAAIgAAIgAAJBEoCLFSRAPA4CIAACIAACIAACIAACIAAC/yUAF+u/LBACARAAARAAARAAARAAARAAgSAJwMUKEiAeBwEQAAEQAAEQAAEQAAEQAIH/EoCL9V8WCIEACIAACIAACIAACIAACIBAkATgYgUJEI+DAAiAAAiAAAiAAAiAAAiAwH8J/MfFWsYBAiAAAiAAAiAAAiAAAiAAAiAQIgJwsUIEEtGAAAiAAAiAAAiAAAiAAAiAAEaxIAMgAAIgAAIgAAIgAAIgAAIgEEICGMUKIUxEBQIgAAIgAAIgAAIgAAIgsN4JwMVa7xKA/IMACIAACIAACIAACIAACISQAFysEMJEVCAAAiAAAiAAAiAAAiAAAuudAFys9S4ByD8IgAAIgAAIgAAIgAAIgEAICcDFCiFMRAUCIAACIAACIAACIAACILDeCcDFWu8SgPyDAAiAAAiAAAiAAAiAAAiEkABcrBDCRFQgAAIgAAIgAAIgAAIgAALrnQBcrPUuAcg/CIAACIAACIAACIAACIBACAnAxQohTEQFAiAAAiAAAiAAAiAAAiCw3gnAxVrvEoD8gwAIgAAIgAAIgAAIgAAIhJAAXKwQwkRUIAACIAACIAACIAACIAAC651A2FyspaWl7u7uAwcO6HS6pKSkixcvejyeSCuN8vJy6Z9HVlbWmzdvKJ1LS0tDQ0MnT55MSkqSJGnnzp23b99+//59pOXC9/R4PJ4zZ85YrVbfH8GdRCAq5HkNCmthYcFisZw5c0ZWET58+PD48ePDhw/Hx8dLkvT111+3trYuLCyISbJardI/j9TU1BcvXoj3RHLY4/Fcu3Zt69atkiQlJSUVFxdPTU15S/DExMTBgwefPHki3hB7KkXM3ZqFURkJtbfKSL9SlaQmmKrk6Ogol9HCwkJra+vXX38tSZLBYLh27VoENtCc2tgLQBWEvUz/+OOPGzdufP3117pPR3Z2tsPh+PDhQ9gThgSsGYHgm5LwuFhLS0tWq/Wzzz4rLCy02Ww3btwwGAz79u2LKCW+sLBw5syZ9PR0k8lU+fdhNpvn5+epgPv7++Pj4w8fPmy1Wu12+/nz5+Pj48+cOfPnn3+umQSE6kVzc3O3bt0yGAySJMHF8pdqVMizv5ny9/7FxUWHw5GVlSVJ0qlTp2Qu1v379z/77LOCgoLW1labzXb8+HGdTldZWbm4uMgvqqio2Lx58+XLl/+ubZW1tbVut5tviOTA27dv9+3bt2PHjtraWofDcfPmzZSUlJ07dzqdTlmy3W63yWQiV1PmYsWSSpHles1OURmXl5e1K+Py8vKff/5ZWlqq0+moCbbZbEajcWBggIppcXGxsrJSp9MVFRXZ7fbIbKDXTKLC8iKogrBgF186Pj5+9uzZhoaGrq6u1tbWw4cP63Q6q9W6tLQk3oZwrBIISVMSHhdrcnJy586dooHV3d2dlJRUU1MTOeL7/v37U6dOFRcXy/raWZ5+++23J0+ecIKXlpZ++eUXnU73+PFjvicqArW1tfHx8QaDobCwEC5WAEUWFfIcQL58f2RwcNBgMOh0uhMnTqSmpipdLLvdLjobi4uLJpNp8+bNz58/57eUl5d/++23c3NzfCWKAm/fvm1ubhZ1xejoaGpq6qVLl9iNXFhY+PHHH3U63Y4dO77//ntJkmQuVsyolDAWHCrjipVxaWmpvr4+KSnJ4XBw+yUW2eDg4IYNG27evMm/OhyODRs23LlzR7wN4dUjAFWwemwDi/nPP/8sKCjYvXt3tPT6BZZNPMUEQtKUhMfFslgsO3funJyc5MwsLCycO3cuOzv79evXfDG8gffv3xcUFJSXl/uejPHx8e3bt9+4ccP3RyLhzurq6pqamjdv3jx58gQuVgAlEhXyHEC+fH+kr6+voKBgdHT09evXWVlZShdLGVVfX59Op2tvb6eflpaWLl++7MuDyqgi8woNg4tO4/v373/66aeff/75/fv3NCtS5mIpMxKlKkWZkTW7gsq4YmWcnJxMT08XPShZ6TQ3N8v8/zdv3mRlZfnVGsrixGmQBKAK3PVQpwAAIABJREFUggQY/ONWqzW65q4Hn+X1HENImpIwuFhkeRQUFMimEt29ezclJUXs6g5v6QbQqLhcroyMjIqKivCmPOC3w8UKAF20yHMAWQvgEao1vnhKQ0NDBoOhubmZ3kKDxr48GECqwvLI4uLiTz/9tHfv3rdv3yoT4KOLFe0qRZnxVb2Cyiji9VYZrVarrItTfGp5eZlGsX799Ve+Th26Udd7yOmPgQBUQdgLES5W2ItgzRIQqqYkDC6WN9eF7PsVu3XXDDGl06+FSf39/Rs2bOCO+TVLaqheBBcrAJLRIs8BZC2AR7xZdcqoWltbN2zYMDg4SD+RixVL3eRv3749ePCgt5nGPrpY0a5SlOW+qldQGUW8qpVxYWGhuLhY2cUpPkhrsdLT0/v7+z98+OB2uwsKCiJtsbSY4PUQhioIbykvLi6WlpZ+99130bjYPrzoovHtoWpKwuBiTU9Pf/HFF8qhHrLvI8c/oXRKnw7a1uLRo0fiWguZ3Pz5559nzpyJ6qm6cLFkZerLabTIsy95Cf4eVatOGa3H49m3b5/YXM3NzX377bfSp0On02VnZ1utVtlAtzKeiL3CK2W9rcz0xcWKAZWyxgWEyigCV62MVNEuX748OTlZUFAQHx+v0+kOHz787NkzXnm1vLz8119//fTTT9Lfx9dffy1O7BffgvAaEIAqWAPI3l6xtLTkdrsrKyu3bt3KW8J4uxnXY4NAqJqSMLhYL168SE1NVY4ORZp973a7b9++bf90VFVVffXVV5IklZaWqpp9CwsLFRUVSUlJ3d3d0SthkVYEUUEyWuR5bWCqWnWyV7979+706dOy3fbm5+fr6+ttNhttx/fNN99IkpSfn8/fSJBFEsmnS0tLDocjKSlJ3NFHluAVXazYUCmyXK/2KSqjSFi1MtLF7Ozs9PT00tJSu93+888/79ixQ2y8/vrrrytXrhgMhhs3bnR1ddENhw8fjqgtf8WcxnYYqiBc5UsWkfTpyM/Pn52dDVdK8N41JhCqpiRsLpZybyKSZrvdvsYofXwdqTnVDQPpc1IGg6Gzs1PsCPQx5si5DS5WAGVBVTHq5DmAnPryiKpVJz5I34NKT08X9xIUb6Dwhw8faH9Oi8Wi/DWSr9DHiDZs2FBVVaUx6K3tYsWMSlnjkkJlFIGrVka6KDpUy8vLNKp88OBBWjdotVpVbygqKlLtYRRfinBoCUAVhJanX7G9fv2669Nx586db775Jj4+/ueff+YdYv2KCjdHF4FQNSVhcLFIxSsXXZB9HzlrsZQCQUt+ZVMcnz17lp6enpeXNzMzo3wkuq7AxQqgvKJXngPI7IqPqFp19NTS0tKjR48MBsOFCxd8GZuitUxnzpzRcFRWTM8a3/DmzZszZ86kpqZ62w6b06PhYsWSSuH8rk0AlVHkrFoZ6aJyLdadO3dou6n5+fnjx48r1xC2trYaDIahoSHxFQivKgGoglXF61fkPPc7chaz+JV+3OwXgVA1JWFwsUiDKy2nu3fvbt++fXx83C8Qa3mzEnp3d7fBYLh582YUWYEaxOBiacDx9lP0yrO3HAVzneqIcmNAap8MBkNLS8uHDx98eUXU7TFIQwHHjx/35cMp3lysGFMpvhR0CO9BZRRhqlZG+hiJsoZarVadTtfX16ds5ijOyO8DFfMeA2GogkgrxFevXu3evVs5PBBp6UR6gicQqqYkDC7W0tKSyWTKyMhwuVwMgr6LJS5/558iJyDbuHZsbCwtLe2XX37x0WSMnIx4SwlcLG9kNK5HrzxrZCrgn1StuuXl5SdPnvgytiO+V3tHPvHOSAi/f/++qKjo9OnT79698yU9qi5W7KkUX1CE8B5URhGmt8p448YNnhPI99+5c4e6ON++fbt3795z587J+g1bW1vJB+NHEFg9AlAFq8c24JjhYgWMLuoeDFVTEgYXiz67kZSUdOPGDXZOqMMmkkdgFxYWysvLN2/ezGtIVBuqqJMkMcFwsUQavocHBwejTp59z51fd6padbRPtNJo04j5w4cPP//8s+rSR42nwvjT4OCgwWDo7+/3MQ2qLlbsqRQfaYTwNlRGhqlaGZeXl58/f56SkmK1WnnlsNvt3rt374ULFxYWFpaWlmpqamRrsV6+fLlv3z6lY8bvQiC0BKAKQsvT39jev3/f1NQk9pfxREFvm8T6+wrcH+EEQtKUhMfFos9u6HS6oqIiu91+48YNg8Fw5syZiPrgQHNz8+nTpz9On+jq6rpz505WVpZOp+NmiWYxpaenm0ymyn8etbW1vswUikDxgosVWKFEhTwHljV/n1K16uji3r17/1lR/nNmNpvn5+eXl5f7+vqOHz/e0NDQ1dVltVoPHz4sSZLGjnz+Jmy177darRs2bCgpKVHmsa+vT/l2pYsVkypFmfHVvoLKyIRVK+Py8vLi4mJNTc1nn31WWFhos9lu3769Y8eO9PT0Fy9e0LM05TU+Pr64uLi5ubm8vDwlJUXmdPFbEAg5AaiCkCP1N0IqgpSUlKqqKofDYbVa8/LydDpdFDVJ/mYZ98sIhKQpCY+LRVq+qalp586dkiTt3LnTbDb/9ddfshyG97Snp4f2kJEkKSkp6eTJk0NDQ9ztRzVQUjtSU1O5rQpvFvx9O1wsf4nx/YuLixEuz5zUVQ2oWnV0UVI7srKyaOuLFy9e5ObmJiUlSZJEn6F7/Pgxj3KvappDEjm5TGpZlJQfqFheXvbmYqnGEL0qJSRs/Y0ElZGIqVZG+unDhw8Oh+Prr7+WJMlgMFy7dk22Ifv79+9v375NDXRSUlJxcfHU1JS/BYH7AyMQk9ZFYCjC+NTU1FRxcbHBYGAL8OnTp1HUJIURXcy8OvimJGwuVsyUATICAiAAAiAAAiAAAiAAAiAAAkwALhajQAAEQAAEQAAEQAAEQAAEQAAEgiUAFytYgngeBEAABEAABEAABEAABEAABJgAXCxGgQAIgAAIgAAIgAAIgAAIgAAIBEsALlawBPE8CIAACIAACIAACIAACIAACDABuFiMAgEQAAEQAAEQAAEQAAEQAAEQCJYAXKxgCeJ5EAABEAABEAABEAABEAABEGACcLEYBQIgAAIgAAIgAAIgAAIgAAIgECwBuFjBEsTzIAACIAACIAACIAACIAACIMAE4GIxCgRAAARAAARAAARAAARAAARAIFgCcLGCJYjnQQAEQAAEQAAEQAAEQAAEQIAJ/M88DhAAARAAARAAARAAARAAARAAgVAQWF5ehosVCpCIAwRAAARAAARAAARAAARAAATm5+FiQQpAAARAAARAAARAAARAAARAIGQE4GKFDCUiAgEQAAEQAAEQAAEQAAEQAAG4WJABEAABEAABEAABEAABEAABEAgZAbhYIUOJiEAABEAABEAABEAABEAABEAALhZkAARAAARAAARAAARAAARAAARCRgAuVshQIiIQAAEQAAEQAAEQAAEQAAEQgIsFGQABEAABEAABEAABEAABEACBkBGAixUylIgIBEAABEAABEAABEAABEAABOBiQQZAAARAAARAAARAAARAAARAIGQE4GKFDCUiAgEQAAEQAAEQAAEQAAEQAAG4WJABEAABEAABEAABEAABEAABEAgZAbhYIUOJiEAABEAABEAABEAABEAABEAgIlysqampwsJCi8USgeVRVlYm/fPYvXv3zMwMJXV2draysjIjI0P36cjKynr48OHc3FwEZsTHJEVyWfiYhXDd9u7du0ePHu3bt0+n0yUlJf34449TU1PhSkwY3/vHH3/cvn27sLDw9evXGsm4d++eJEmyWh/tDKempsrLy7ds2SJJUlJSUlFR0ejoqAzC3NzcvXv3MjIyJEkyGAxVVVUiqNhTKbLsr/HpOldoGpVRu2mbn5+3WCz/bPqkLVu2/Pbbb2tcguv5ddGuD6O97KCNo70Eg09/kHUwzC7Wy5cvb9y4YTAYlMZW8GiCj+Ht27eFhYVffPHF5cuXTX8f//73v91uN0U+PDxcWFh469atjo6O//3f/z106JBOp7NYLO/evQv+7WscQ4SXxRrT8Pd17969s1gsCQkJBQUF9+/fr6ysNBgMe/funZyc9Deq6L1/bm7OZrPt3r1bkqSTJ0+KnoMsU1NTU3v37pXV+mhnODMzs3fv3m3btlVWVtpstqqqqn/961/bt29/9uwZZ39ubs5kMsXHx5eUlLS1tZWVlcXHxxcWFr569YruiSWVwrkOS2CdKzTtyrhi0zY/P3/lypVNmzaVlpb+3fSZKisrJyYmwlKa6/Cl0a4PY6DIoI1joBCDyULwdTCcLlZlZWV8fLzBYCgoKJAZW8FACeGzr1+/PnnyZFFR0du3b32J9tWrV99//31mZmbUtUORXxa+8A/jPc+fP9++fbvJZOIxzEePHiUlJV27di0a/e0ASPb09BgMBp1Od/z48S1btmi4WO/evbt161ZCQgL1R/C7op3hzMxMY2PjH3/8wTkaHBzcsmWL0Whkqeju7k5KSuJeGNLgOp3u3r17/JQYiF6VIuZi7cPrXKGtWBl9adrKysoOHjz48uXLtS8+vHF+fj7a9WHsFSK0ceyVqXaOgq+D4XSxKioqrl27NjMz8/jx44h1sb777ruysjLtYhB/tVgs0TibIvLLQoQcgeHbt29v3779+fPnnLY//vjj9OnTWVlZ09PTfDGGA11dXd9///3g4OD09PTu3bs1XKzff/89LS3t2rVrW7ZsEScKxh5DGitgO3Vubs5oNO7fv59nGs/Pz8/MzOzfv18DV5SqlPCK+jpXaCtWxtevX2s3be/evSstLdUQy/CW73p4e+zpwxgoNWjjGChE37MQfB0Mp4vF+YxYF2tmZmb37t3rwcWK/LLgFEZggCzp7777TjY1rr6+/l//+pc4TywCEx/yJFGt8WacvX79urCw8Ny5c319faKLFZMM5+bmLly4kJWVRT7VzMxMVlZWaWmpOLBJtmxmZqY3VxyNejAiGrGNSzCZ8v1Zb5VxxaaNhrm81WLfE4A7AyMQk/owMBQR9RS0cUQVx6omJiR1EC6WVhlROyR2tGvdPT8/NzdXUlJy7NgxXlmhfX8E/rrOLZLASsSbvUIwHz9+HFi0UfqUN6tufn6e5sWlpaX9/vvvv/32m+hixSRDGqHimcayLHP5ajTbMaBSOJthCaxzheatMtJ1jaaNXCy/uhfDUr6x+tKY1IfRXljQxtFegn6lPyR1EC6WFnOn0/nFF1/Qrkrx8fGHDh1qb28X11rww+/evZuYmDCZTFu2bOnu7ubrURdY5xZJYOVFcnLlyhXZ4wSzublZdj22T71ZdfPz88+ePUtLS6OVSDJ/I/YY8kpZm81GJd7T07Nhw4bGxkaZAFgslg0bNvT09IjXY0aliJla+/A6V2jeKuOKTdvLly8PHjxIbZ9Op8vKyrJYLLJR+rUvzfXzxtjTh1FddtDGUV18gSU+JHUQLpYW/ImJiZs3bz74dFy9ejU9PV2SpJKSErGloSacmqKjR4++ePFCK8aI/22dWySBlY/MW+BI1idMb1bd9PT0/v37eTN3GTTZabQzfPfunc1mS0pKEndAIXlQjmrS7th8PcZUChdlWALrsw4yam+VccWmze1237p16/79+zabrbq6Ojs7W5Kko0ePissI+S0IhJxAjOnDkPNZswihjdcMdaS9KCR1EC6WH8X6xx9/XLlyRafTcbf0/Pz89PR0x6ejrq4uOzs7Pj7+zp07vIGYH7FHxq3r3CIJrBCoKtbV1ckeJ5gPHjyQXY/tU1WrjjYrF3exl+mvWGJIHyPasGHD1atXxUFvb/JgsViSk5P7+vpIMGJMpYRX2te5QlOtjMoSUW3axNvm5uYaGhp0Ot3t27fF6wivEoFY0oerhGhtooU2XhvOEfiWkNRBuFj+lSzt4aicEkax8NSg6J0bts4tEv+k4e+7yY5RrlsgmDw68fftMf5fadVRvUhOThbnwslcrJhhOD09XVhYuGXLFpvNJm5rMT8/L8syy4HGWqwYUCmczbAE1rlCU1ZGb6Wg3bTx1peFhYU+fsLE24tw3RcCMaMPfclstNwDbRwtJRWSdIakDsLF8q8svEHnWKanpzMzM5XWNt8Q4YF1bpEEVjputzsvL09pfNTX12/dunV4eDiwaKP0KaVVR1doMq3qX4vFEhsMJycn9+7dm5eXp/plvPHx8a+++krWQUM7CvKug8pCj3aVoszRWl5Z5wpNWRm9wV+xacMeg97Qrcb12NCHq0EmvHFCG4eX/1q+PSR1EC6Wf0VGXX2VlZXeHov2GrjOLRJvxap9/d27d5cvX/7qq6/Gx8f5TvouVlRvL8l58SugtOrcbve///1v0z+PH374YcOGDUeOHDGZTF1dXTHAkPajP3XqlMvlUiVGRmpeXp7b7eYbaNdB8fPE/BMFol2lyLKzxqfrXKEpK6M3/is2bbLtMb3Fg+shIRAD+jAkHCItEmjjSCuR1UtPSOogXCw/CuiPP/64dOnSpk2bBgcH5+fnX79+fffuXdGc4nFkcbGWHy+IgFvXuUUScAn09PQkJSVVVlbyMrxHjx4lJydH75TRgFH4aNUpZ81FO8Oenh6DwaC9oWhzc3NCQsK9e/doDqFsCmVMqpSABSkkD65zheZjZZQ1bUryc3Nzd+7cka1DVt6GKyEkEO36MIQowhIVtHFYsEfUS4Ovg3CxtAq0sbHx1KlTFoulo6Ojrq5u9+7dOp2OtpwmF+vkyZP/+te/rl69arPZLBZLbm6uTqcT9xDTij0if1vnFknAZULbOeh0usLCwgcPHlRWVhoMhsLCwuj9QlrAKHy06pQuVrQzpL3Xf/jhh38O1/3nrKuri3i+evWqsLAwPj6+rKzswYMHZWVl8fHxrDFomCvGVErAghSSB9e5QvNWGbWbtvn5+a6urry8vFu3bnV0dFgslkOHDkmSxIIakqJBJNoEol0faucu8n+FNo78MlrtFAZfB+FiaZWR3W6nTQIlSUpKSsrPz+/r6xOXsI+OjhYVFRkMBr6hs7OTxzG0oo7U39a5RRJMsczNzd29e3f79u2SJG3fvv3f//73mzdvgokwSp/1ZtXJsqN0seY/fbw7ehnS3uveFptx9t+8eVNdXU1KIyMj4969e6LGiD2VwhkPS2CdKzRvlXHFpu233347dOhQUlKSJEn0TUibzSYKalhKc729FG1KeEsc2ji8/CPh7UHWwYhwsSKBI9IAAiAAAiAAAiAAAiAAAiAAAsETgIsVPEPEAAIgAAIgAAIgAAIgAAIgAAL/RwAuFkQBBEAABEAABEAABEAABEAABEJGAC5WyFAiIhAAARAAARAAARAAARAAARCAiwUZAAEQAAEQAAEQAAEQAAEQAIGQEYCLFTKUiAgEQAAEQAAEQAAEQAAEQAAE4GJBBkAABEAABEAABEAABEAABEAgZATgYoUMJSICARAAARAAARAAARAAARAAAbhYkAEQAAEQAAEQAAEQAAEQAAEQCBkBuFghQ4mIQAAEQAAEQAAEQAAEQAAEQAAuFmQABEAABEAABEAABEAABEAABEJG4D8u1jIOEAABEAABEAABEAABEAABEACBEBGAixUikIgGBEAABEAABEAABEAABEAABDCKBRkAARAAARAAARAAARAAARAAgRASwChWCGEiKhAAARAAARAAARAAARAAgfVOAC7WepcA5B8EQAAEQAAEQAAEQAAEQCCEBOBihRAmogIBEAABEAABEAABEAABEFjvBOBirXcJQP5BAARAAARAAARAAARAAARCSAAuVghhIioQAAEQAAEQAAEQAAEQAIH1TgAu1nqXAOQfBEAABEAABEAABEAABEAghATgYoUQJqICARAAARAAARAAARAAARBY7wTgYq13CUD+QQAEQAAEQAAEQAAEQAAEQkgALlYIYSIqEAABEAABEAABEAABEACB9U4ALtZ6lwDkHwRAAARAAARAAARAAARAIIQE4GKFECaiAgEQAAEQAAEQAAEQAAEQWO8EwuNiLS0tDQ0NnTx5MikpSZKknTt33r59+/3795FTGi9evEhNTZXUjtTU1BcvXlBSl5aWuru7Dxw4oNPpkpKSLl686PF4IicX/qbE4/GcOXPGarX6+yDujzFJCLhAFxYWLBbLmTNntKtza2urJEkySbNardI/D7GuBZyktX9QFYKPKkVMbX9//4YNG8rLy8WLCK9IAJWREKnK4fLy8ocPHx4/fnz48OH4+HhJkr7++uvW1taFhQURbMxURjFT0RWGGIe3vP74448bN258/fXXuk9Hdna2w+H48OFDeFOFt68lgeDrYHhcrP7+/vj4+MOHD1utVrvdfv78+fj4+DNnzvz5559riU/jXW63u7a2tvKfR3l5+c6dO48fPz43N7e8vLy0tGS1Wj/77LPCwkKbzXbjxg2DwbBv375o9LLm5uZu3bplMBiUhq8GJfxEBGJJEgIu08XFRYfDkZWVJUnSqVOnNFysV69e7du3TylpFRUVmzdvvnz5Mle72tpat9sdcJLW/kENCL6oFDHB79+/P3XqlCRJcLFELCuGURmXl5c15HB5efn+/fufffZZQUFBa2urzWY7fvy4TqerrKxcXFxkvDFQGTkv0RiAGIe91MbHx8+ePdvQ0NDV1dXa2nr48GGdTme1WpeWlsKeNiRgDQiEpA6Gx8X67bffnjx5wpK6tLT0yy+/6HS6x48frwG4gF/R3d1tMBi6u7sphsnJyZ07d4otU3d3d1JSUk1NDWct4Het5YO1tbXx8fEGg6GwsFBp+K5lSqL0XTEjCQHzHxwcNBgMOp3uxIkTqampGi7W0tJSfX39Z599Rs2V+Mby8vJvv/2W+i/E69ES9h0C50imUvj68vKy3W7fsGGDTqeDiyViWTGMyriiHNrtdqfTySQXFxdNJtPmzZufP3/OF6O9MnJGojQAMY60gvvzzz8LCgp2794dXb1+kYYxitITkjoYHhdLSXl8fHz79u03btxQ/hQhV6hTWbQdLRbLzp07JycnOYULCwvnzp3Lzs5+/fo1X4z8QHV1dU1NzZs3b548eQIXK4DyihlJCCDv9EhfX19BQcHo6Ojr16+zsrLEaiKLc2xsLC0traamJjU1VZwouLS0dPnyZY0HZfFE4KnvECjxSpXCmXr16tXBgwfLy8t3794NF4ux+BJAZfRXDpeXl/v6+nQ6XXt7OxGOgcroi6hE8j0Q4wgsHavVGqVz1yMQZuQnKSR1MFJcLJfLlZGRUVFREbHcZf3NCwsLZ86cKSgokE2Iunv3bkpKithHGLE5UiYMLpaSyYpXYlISVsy1txvevHmj4WK9f/++qKjowoULQ0NDMhdLw9/w9q6Iva4NgZMtUyl8fXFxsbq6+vDhw+Pj41lZWXCxmMyKAVRGEZGPcri8vDw0NGQwGJqbm+nxWKqMIpBoCUOMI7Ok4GJFZrmsRqpCVQcjxcWihd3ci7YayIKJk4anvvvuO14tRq2X0vohL+XJkyfBvC5cz8LFCoB8TEpCABzoEQ2rjmY2p6WljY2N0d4P4igWWXXKChVwSsL4oAYETpVSpfBP3d3dqampT5488SZafCcCMgLeiEW1Wpbl0fdTX+SQYmttbd2wYcPg4CCdxlJl9B1X5NwJMY6csuCULC4ulpaWikYg/4RA7BEIVR2MCBfrzz//PHPmTCRPcu3v709KShKXik1PT3/xxRfKYTdqyyPWV9SuCXCxtPmo/hqTkqCaU18ualh1TqczLS2NlgsrXay5ublvv/1W+nTodLrs7Gyr1SobIvYlAZFwjwYETp5SpdBPHo9n3759tMLTm5bnSBCQEUBlFIH4IofLy8skcqLtGEuVUQQSLWGIcUSV1NLSktvtrqys3Lp168DAQESlDYlZJQKhqoPhd7EWFhYqKiqSkpJ4G4lVQhZwtIuLi5cuXTp48ODbt285EqWNSD9FtZcS1YnnolnjQExKQsAMvVl1tLioqKiIvCYltPn5+fr6epvN5nA4bt68+c0330iSlJ+f/+bNm4ATE64HvUHg9KiqlOXlZZpIefDgwVevXi0vL8PFYmI+BpRyRQ+uT822ohwuLy+/e/fu9OnTO3fuFCe3x1Jl9FFyIuo2iHGEFAfpDenTkZ+fPzs7GyEJQzJWm0Co6mCYXSz6EJPBYOjs7IzYXfhoXxGLxSIWKhXAnTt3xIvLy8tUJ+12u+x6VJyuT0MkyKKJSUkImImqVbe4uFhZWSl+z8Cb/uL3fvjwgXYZldU7viGSA6oQxASrqhSeSMnGLlwsEZovYVRGkdKKcjgxMXHw4MH09HRxL0ExBgpHdWVUZifyr0CMI6SMXr9+3fXpuHPnzjfffBMfH//zzz+L3zaIkHQiGSEnEKo6GE4X69mzZ+np6Xl5eTMzMyEHFMIIW1tbldvIeLN+yEvBWqwQ8o/wqGJSEgJmrrTqyHMwGAy80mN5eXlFF2t5efnt27cHDx48c+aM7KOoAadtzR5UQpC9WlWl0O4X4hxjb6Iliw2nTMAbsahWy5w7fwMacri0tPTo0SODwXDhwgVfBoqjtzL6Cy0S7ocYR0IpyNLAX0kSVbTsHpzGDIFQ1cGwuVhkT9y8eTPC7SdveyvNz88fP35caf/dvXt3+/bt4+Pj0ShqGMUKoNRiUhIC4ECPKK06uiJ5P8RNL8T3eqt64j2RGVZCENOpmi+6KHk/YmMjEJHDaoRRGUWq3uSQez1aWlo+fPggPuItrCq03m7G9SAJQIyDBLhKj7969Qpf0VgltpEWbajqYHhcLPo2zi+//OKjfg8jfVr0prQCl5aWTCZTRkaGy+Xi5GnsEsb3RHIALlYApROTkhAAB3pEadXNz8+bzebKfx4lJSUbNmw4evRoZWVlX1+f6uuo47y4uDjCe2GUiVdCEO9RVSkLCwv37t37J6TKy5cvb968ee/evZWVlTabTYwEYVWWO7ReAAAgAElEQVQCqIwiFm9y+OTJk9TUVIfD4fvk/OitjCKQaAlDjCOzpOBiRWa5rEaqQlUHw+Ni3bhxQ7Z7xGowCkmcdrvdYDAMDQ0pYxscHExKSrpx4wY7isqpPsqnIvkKXKzASif2JCEwDrxDw4pfEF5xouCHDx9+/vlnnU4nbuMZcKrW+EFvpi0lQ0OlyNJJ8WD8SoZF+xSVkfmoyuHCwkJxcfG5c+d877mI6srINKIrADEOb3m9f/++qanp3bt3nAyeKBiNTRLnAgHfCYSkDobBxaIpB+np6SaTSdZrW1tb63a7fUewBndWVFTs3r2bNviSvY4W8et0uqKiIrvdfuPGDYPBcObMGf52luz+yD+FixVYGcWeJATGIRgXq6+v7/jx4w0NDV1dXVar9fDhw5Ik0d7lAScmXA+qmracGA2VwvdQAC6WDIgvp6iMTElVDukiDY3K2l+z2Tw/P7+8vBxLlZFpRFcAYhze8iIzNSUlpaqqyuFwWK3WvLw8nU4XpU1SeGFG6dtDUgfD5mJJaodyV4nwls2KE9AXFxebmpp27twpSdLOnTvNZvNff/0V3jQH83a4WAHTizFJCJiDqlWnjE05ivXixYvc3NykpCRJkuLj4w8fPvz48WMeH1bGEMlXNCCsqFLEfFE8GMUSmfgSRmUkSqpySBcltSMrK4u2voilyuiLwETmPRDj8JbL1NRUcXGxwWCQJCkpKenkyZNPnz6N0iYpvCSj9+3B18EwuFjRixspBwEQAAEQAAEQAAEQAAEQAAFtAnCxtPngVxAAARAAARAAARAAARAAARDwgwBcLD9g4VYQAAEQAAEQAAEQAAEQAAEQ0CYAF0ubD34FARAAARAAARAAARAAARAAAT8IwMXyAxZuBQEQAAEQAAEQAAEQAAEQAAFtAnCxtPngVxAAARAAARAAARAAARAAARDwgwBcLD9g4VYQAAEQAAEQAAEQAAEQAAEQ0CYAF0ubD34FARAAARAAARAAARAAARAAAT8IwMXyAxZuBQEQAAEQAAEQAAEQAAEQAAFtAnCxtPngVxAAARAAARAAARAAARAAARDwgwBcLD9g4VYQAAEQAAEQAAEQAAEQAAEQ0CbwP/M4QAAEQAAEQAAEQAAEQAAEQAAEQkFgeXkZLlYoQCIOEAABEAABEAABEAABEAABEJifh4sFKQABEAABEAABEAABEAABEACBkBGAixUylIgIBEAABEAABEAABEAABEAABOBiQQZAAARAAARAAARAAARAAARAIGQE4GKFDCUiAgEQAAEQAAEQAAEQAAEQAAG4WJABEAABEAABEAABEAABEAABEAgZAbhYIUOJiEAABEAABEAABEAABEAABEAALhZkAARAAARAAARAAARAAARAAARCRgAuVshQIiIQAAEQAAEQAAEQAAEQAAEQgIsFGQABEAABEPj/7N3/UxPX/j/w9/+1P2x0MrMzrvJFkS/jIJnIXCxILy3VK8Q0tkCVKiZK9C0iIt5GMLRc8pamkoECpVjwywWUr1W+JyvNhORf+NzrmZ7PdjdZkrBJdpNnftBlc/bsOY9z9uy+9lsgAAEIQAACEICAagIIsVSjREYQgAAEIAABCEAAAhCAAAQQYqEPQAACEIAABCAAAQhAAAIQUE0AIZZqlMgIAhCAAAQgAAEIQAACEIBAxkKs33//3el0lpeXsx8/ZrP5xx9/9Pv9GmwSv9/v9XqrqqpYlmUYpry8fHp6Wl7O5eVli8XicrnkX+loTnbUIiPggUBgeHiY9BOO47755pvl5eWMlCSzK93Z2enu7rZYLJubmwol6e/vZxhGsr3s7Oz09/eXl5czDMPzvN1u15fh8vKy3W4vKChgGIbjOJvNNjc3J0Hw+/3iOt6+fVsMpaOBUVIvTf2JjZE0h/LGmFO7Nk31z0QLg/1yomKqpMdorAqjrjM54K4kYyHW69evLRbLgwcPnj179v3339fU1LAs63K5AoGAptpjY2OjpaWFZdmGhobBj5/m5ubx8XFxId+9e9fR0cHzvPyQUZxM49PZUYtMIQcCAZfLdejQIdJPnE4nz/OVlZVLS0uZKlL610uO2EwmE8MwFy9eFEcOksIsLy9XVlZKthe/3+9wOFiWtVgsQ0NDujNcXV2trKw8ceKE0+n0er23b9/Oy8srKiqamZmh1Sd1NBgMLS0t//d//3ft2jWDwWCxWDY2NkgavQyMtEYanMDGKAjCvhtj7uzaNNhF4y8S9svxW6meEqOx6qT6yvDgu5KMhVgS6I2NjQsXLpw+fXpxcVHyVQb/DAQCDx484DjO6/XGiv2cTqfBYOB5vqGhQXLImMGSJ7rq7KhForVWMf3s7GxRUZHD4aBXYoeHhzmOa29vj9VzVFy7FrKamJjgeZ5l2fr6+oKCAoUQi2xWhw4dImdVaOEnJiaMRuPt27epmNfrNRqNXV1dNI2WJ1ZXV/v6+nZ2dmghp6enCwoKrly5QnvF+Pg4x3H0XBIZwVmW7e/vp0uJJ7Q5MIpLqMFpbIz7boy5s2vTYP+Mv0jYL8dvlYaUGI3TgKypVRx8V6KVEEsQBJfLVVBQ8OLFC+0Qz87OlpaWio/55GW7detWe3v76urq6OiofkOs7KiFvHXSNqe7u7uoqGh2dpaucWdn59KlS2azeWVlhc7M4omxsbELFy5MT0+vrKyYTCaFEOvly5clJSXt7e0FBQXiGwX7+voYhhkdHaVKq6urJpPp2rVrdI6+Jra3ty0WS3V19bt378iFhStXrpw9e3Z1dZVWZHV19ezZswpcGhwYaeG1OYGNcd+NMXd2bdrsonGWCvvlOKHSlgyjcdqotbCig+9KEGIptaPL5ZIcNyuk1nWIReuVHbWg1UnPBDmSPn/+vOTWuEePHuXl5YnvE0tPeTK7FhIXxYoZNjc3LRbL5cuXp6amJCEWuYrl8Xho+ck5JKfTSefoa8Lv9zc3N5vNZhJTra6ums3m1tZWeplOEIRAINDa2nr69OlYoTh26gk1OjZGMVesjTEHd21iFt1NY7+skSbDaKyRhkhDMVTZlWglxPL7/S0tLZ9//jl9JiENgsqr2N7ettls8uPmWEtlxyCYHbWI1UYpmh/rYgvBFF+WSVEBNJVtrKM6Ek64XK6SkpKXL1++ePFCEmKR55RKS0vHx8f9fv/i4uKFCxd0/TwbuUJls9m2t7cFQZBXmTScwm5bgwOjpjqbvDDYGMUmUTfG3Ny1iVl0N439shaaDKOxFlohbWVQZVeS+RArEAgsLi46HI6CggLJayTSRhl1Re/evauurm5tbZ2dnb1w4YLBYGBZtqam5pdffhGfhKbLZscgmB21oI2Snon5+fnS0tIbN25IVkcwBwYGJPOz+8+oR3WkyjMzMyUlJeRJpKjxxtbWVnNzM/Pnp7y8XHzvpb7c6JOyXq+XlJxcpuvr65NUxOVyGY3GiYkJ8XzNDoziQmpwGhujuFGiboy5uWsTs+huGvvlzDYZRuPM+mdk7arsSjIZYpFRgxxNffbZZ2/evMmIY6yVkp3Tf56lKS0tbWlpGRoa6unpOXHiBMdxw8PD8qWyYxDMjlrIWyelc6JGC4Ig5CZm1KM6QRBWVlbOnj1LX+YuR9va2vr22295nnc6nc+ePSObW01NjR7fyhgIBLxeL8dx4jegkP4gv6rpcrnED6GRZJodGFO6KR08c3m/InliY6S2ublro9XX40Ru9l4ttBRGYy20QkbKoMquJJMh1srKyrOPn66urjNnzhgMhp6eHvrqrYyYildK9kOSgGppaamyslLywDpZKjsGweyohbgd0zBNNkX5i+8I5tDQUBrKoJ1VRA2xyE2A4rv+5OOXy+WKurnRqEw7dVQuCfkxIqPRePPmTfELBmP1B5fLdeTIkampKZKtxgdG5bpn/FtsjOImiLox5uauTcyiu2nslzPVZBiNMyWf8fWqsivJZIglFqQ31WjnriqyH5I/i9XV1RX1HQbZMQhmRy3EXSsN06SryF98RzDlVy3SUKQMrkJ+VEe27iNHjojvhZOEWGtra3V1dfSxJVr+/v5+cfhB52t2YmVlxWKxFBQUyH/pQVJlWgWFZ7E0ODDSYmtzAhujuF3kG6MgCGRmru3axCy6m8Z+WQtNhtFYC62QtjKosivRSohF7iM6ffq0/Dg1baCSFW1ubp4/f17+YjSXy8Wy7NjYmCR9dgyC2VELSdOk+k8SHlgsFvJWA7q6R48eHT9+/PXr13ROLkzIj+rInD8fsIryv8vlUmU4yzgvucpdV1cX9ff9FhYWTp06JXlmj7xRkL51UF6FlZUVTQ2M8hJqag42RnFzyDdGQRByc9cmZtHdNPbLGmkyjMYaaYg0FEOVXQlCLKWWcjqd8nsCu7q6oh43Z8cgmB21UGrUFHwXCATa2tpOnTq1sLBAsye/i6Wpl2TSsqV0Qn5Ut7a2dv/+fcdfP19//bXRaPz73//ucDjGxsbIC80vXbokvrNOEIT+/v6oZzRSWoXkMifvo29sbHz//n3UHDY3Ny9evFhXV7e2tkYTkLcOin+emH5FJrBTl4Ao/4mNUewj3xjJtzm4axOz6G4a+2WNNBlGY400RBqKocquJDMh1ubmZm9vr/hAhF6BpW/fSoPgvquYnp7Oy8sjL0AjiRcXF81m8+XLlyUHglnzbgMM5fv2iqgJJiYmOI5zOp30YcLh4eEjR45o58bXqMVOxcxYR3WSdUnumgsEAu3t7ZJnsd6+fRvr0UdJblr4c2Jigud55deiDgwMHDp0qL+/n7yVVHILpV4GRi1oK5QBGyPFibUx5uCujZrocQL75fS3Gkbj9JtrbY0H35VkLMS6ePFiXl7ezZs3vV6vy+X69NNPWZYVv31LC9Z+v7+9vf3QoUMNDQ2Dg4OdnZ0nTpwoLS198eKFvHjZMQhmRy3krZPqOeR1DizLWiyWoaEhp9PJ87zFYtHO77ylWoDmH+uojiYgE5IQSxAEcpedwWCw2Wx9fX3Xr1/Py8uTBF2STDT1J3n3+tdff/3Xy3X//YveV7yxsWGxWAwGw7Vr14aGhq5du2YwGOi4Ry5zaX9g1BS7vDDYGKlJrI0xB3dt1ESPE9gvp7/VMBqn31xrazz4riQzIZYgCHNzczabjed5hmE4jvviiy9+/vlnegVAO9B+v//HH38sLy9nGIbnebvdvry8HLV42TEIZkctojZQqmf6/f7e3t6ioiKGYYqKiu7fv7+1tZXqlWow/1hHdZKiykMs8pRIZ2cnMeQ4zmazzc3NSRbU7J/k3etRHjVjGJfLRYu9tbV1584dMvSVl5f39/eLxz29DIy0OtqcwMZI2kVhY8y1XZs2O2qcpcJ+OU4odZNhNFbXU4+5HXBXkrEQS4/WKDMEIAABCEAAAhCAAAQgAAFlAYRYyj74FgIQgAAEIAABCEAAAhCAQAICCLESwEJSCEAAAhCAAAQgAAEIQAACygIIsZR98C0EIAABCEAAAhCAAAQgAIEEBBBiJYCFpBCAAAQgAAEIQAACEIAABJQFEGIp++BbCEAAAhCAAAQgAAEIQAACCQggxEoAC0khAAEIQAACEIAABCAAAQgoCyDEUvbBtxCAAAQgAAEIQAACEIAABBIQQIiVABaSQgACEIAABCAAAQhAAAIQUBZAiKXsg28hAAEIQAACEIAABCAAAQgkIIAQKwEsJIUABCAAAQhAAAIQgAAEIKAs8N8QK4IPBCAAAQhAAAIQgAAEIAABCKgkgBBLJUhkAwEIQAACEIAABCAAAQhAAFex0AcgAAEIQAACEIAABCAAAQioKICrWCpiIisIQAACEIAABCAAAQhAINcFEGLleg9A/SEAAQhAAAIQgAAEIAABFQUQYqmIiawgAAEIQAACEIAABCAAgVwXQIiV6z0A9YcABCAAAQhAAAIQgAAEVBRAiKUiJrKCAAQgAAEIQAACEIAABHJdACFWrvcA1B8CEIAABCAAAQhAAAIQUFEAIZaKmMgKAhCAAAQgAAEIQAACEMh1AYRYud4DUH8IQAACEIAABCAAAQhAQEUBhFgqYiIrCEAAAhCAAAQgAAEIQCDXBRBi5XoPQP0hAAEIQAACEIAABCAAARUFEGKpiImsIAABCEAAAhCAAAQgAIFcF9BEiPX8+XOj0Wi32zXYGnt7e6Ojo5988gnLsgzDVFRUzM3NkXKGw+FXr15dvHiR4ziGYYqLi7u7u3d3dzVYC+UihcPh8fFxUkeO47799tv19XXlRfCtRACGBCQYDLpcLqvVKtkQ3r9/f+3atZKSEoZhDAZDXV3dzMxMOBwWMwaDQY/HU1FRwTAMz/Pt7e366ofr6+vt7e3Hjx9nGIbjuKampuXlZXEFI5HI7u5ud3d3cXExGTH6+/uDwaAkDf1TywMjLaSWJ9bX161Wq9vt1nIhU1e2WBtjJBIJhULiba2zs1OywUYiEbKDu3DhgsFgIN11ZGQkdaVFzmKBnZ2djo6OiooK9uPnzJkzIyMje3t74jSYTqlA1hzgpVQpuzM/+HFd5kOs3d3dxsZGhmE0GGJ9+PChtbWVZVmLxeL9+Lly5cpvv/1GetXz588NBkNtba3b7fb5fF999ZXBYLBarR8+fNBRtwuHw263+/Dhw6SOHR0dPM9XVVXp6+g2s+AwJAdtIyMjZrOZYZjGxkbJEdtvv/126dIlt9s9NjbW19dnNps5jhsfH6cNFwqFnE4ny7I2m83n8+muH25vb1dVVZ08efLevXsjIyOdnZ35+fnFxcXz8/O0juvr61VVVTzPd3R0+Hy+1tZWg8HgdDpDoRBNQye0PDDSQmp2wu/3P3jwgOd5hmFyMMQKhUIKGyPZ1gwGQ2tr67Nnz+x2u3zPFQqFurq6WJatra31eDw+n89ut//f//2fZls8ywq2sLDw5Zdffvfdd2NjYx6Pp7a2lmVZt9stOS2VZbXWVHWy4wBPU6T6Kowqx3WZD7F8Pp/RaGRZVmshVjgcfvToEcdxIyMjUce1Fy9eTE5O0q/C4fCTJ09Ylh0dHdVRT1paWiouLhYf542Pj3Mcd/fuXVo1HVUnI0WF4fT0NM/zLMv+4x//KCwslIdYknZZW1urrKw8f/48PR8xPT1tNBo7OztprxsZGTEajT09PZJltfnn9vb2wMCA+JLU3NxcYWHh9evXSQQVCoWuX78uDrrC4fBPP/0kCTVp7TQ7MNISanbi3r17BoOB53mLxZKDIda+G+Pz5885jqPH6+RIgmVZj8dD29Tn8x0+fPjJkye4ckJNMjjx4cOHhoYGk8m0traWwWLk1Kqz4wAvp5pM3cqqclyX4RBrY2OjurrabrebTCathVhLS0tlZWXiY759229hYaGoqKijo2PflNpJ4HK5iouLl5aWaJGCweDly5fPnDmzublJZ2JCQQCGU1NTDQ0Nc3Nzm5ubZrN53xArEonY7Xaz2by1tUVgBwYGGIaZnJykzltbW2azWWvDAi3evhPBYNBqtZ47d87v90cikffv35eXlzscDhpDRiIRQRDq6+tpGEbz1PLASAup2Yk7d+7cvXt3a2trcnIyB0Ms5Y2RhPrV1dXb29u0Bbe3t6urq+lmu729XVtb29zcLD5lQBNjIiMCbre7sLDwzZs3GVk7VhqJRPR4gIeGS1pAleO6TIZYoVDozp07tbW1CwsLGjyWcrvdkthj36YiR1G3bt3aN6VGEpCjwIaGBsltXb29vfn5+eJ7nDRSYA0WA4biRiFxET1WE38lmZaEWOQq1k8//USTkXNI+jphQQtP7py8evVqZWUlOZZ98+ZNYWGh/KY1u91OwzCyuMYHRnEdNT6dmyEWbZSoG+P29nZlZWVbW5s41A+Hw21tbSaTaWNjIxKJTE5Ochz3/PlzmhUmMi6AECvjTaC7A7yMi+m3AGod12UyxBofHy8sLJycnNTg6epgMNjU1CSPPZR7DHk8/enTp8rJtPNtLHlyaCK+pKCdMmutJDAUt0jUozpxAjLt9/slV2/I8yFlZWXPnz/f29tbW1traGjQ9TOB5MpAU1MTuRSwsrJSWloquYoVCoWuXr0qvpoXiUS0PDDKm1LLcxBiyS8pxwr1xUfwHR0dNNzScvvmTtlCoVBra6v4zurcqbt2aqq7Azzt0OmuJGod12UsxCJPfpNHgGJVJoOt4vf7z50719bWtrS01NDQYDAYyIO/8teg0UJ++PDBarXq625pctgnv+xGDk10FCvSVkj/BAzF5vuGWHt7e4uLi01NTWazeXFxUbzsH3/8cfXqVebPT0VFhfj+VXFK7U/TJ2Xpk5nk/lvxs1iRSOTXX389duyYOMTS+MCofXlxCRFiyUMscrl4YGBADBWJRNxut9FonJ6epqcXl5aWvv32W/K+3IqKCrzRTiKWnj/D4fDa2prT6Tx+/Dh91VZ6Vo21iAX0eIAnLj+mExJQ67guMyHW7u6uzWarrq4mtyVoMMQiRTpz5kxZWVlra6vP53v8+PHJkydjPZseDAZv3boV69uEmjadiWOd0czxQ5OEmgCGYi6FEMvtdjN/fq5cuSJ+FCQSifzxxx83btwgb9sbGxsjm1ttba0e32wZDodHRkY4jhO/RSYSiczPzxcXF3Mc19zc7HQ6m5qaCgsLrVYrDbG0PzCK21r70zk+jkXdGImJ/A4FsnlOTk6SV1mePn26vLycvGZ2cHDQbDbjjXZp7vCkpciQ+cUXX/z+++9pLgBWRwV0eoBHy4+JRAXUOq7LQIhFzu+WlJTQR300G2JJQiZyglnyoHAkEiG/vsLz/M8//yy+wT3RRk1/etKN5C9tI4O7z+dLf5F0t0YYipss6lEdSbCysjI2NjYyMnLv3r1Tp07xPD88PEy3F7fbHXVzs9lskgcFxavT4DT5MSKj0Xj79m352wKWl5ebmpo4jiNXxV++fHnr1i0SYuliYNQguEKREGLJr2LFGtvdbjfP869evSIhliSgIqfwE304WaFp8NW+Apubm2MfPz09PX/7298MBsPjx4+j/sDDvlkhwUEE9HuAd5Ba5/iyah3XZSDEGh8f53lefBOaZkMs+bNYPT09kvdAzMzMlJWV1dXVra6u6q5TxpInu2H5mU7dVTANBYahGJlo7Pu6C/LkFcdx09PT9MV69LElmqHH4+E/HvbRORqf2NraslqthYWFsX7pQVJ+clMW4dLFwCgpv8b/RIglD7FinZ2lz2KREEv+LJbP5/vP74aLf8tO462fTcWjNx6LD5yyqYKarYuuD/A0q6r9gql1XJfuEIv+niYT46ORdzTv7u42NDTIjxT/89upLMtOTU2RLkKOijo7O+Wnq7Xfh+ihrdVqlZS/t7e3qKhoYWFBF7XIbCHJe7dhSFohzhCL3DWXn59P3rCn1nCW2Z5ArnLX19fH/9s1m5ubZ86c6ejo0MvAmFnhRNeOEEseYkV9Kxp5oyB5+yWZpjevUnOCKX+IiybAREoFNjY2NPjbNimtcsYz1/sBXsYB9VsAtY7r0h1iBYPB/v5+518/bW1tx44dq6ysdDqdXq9XI63S0dEhvyewp6eHxh5v374tKSnR9Y8zhsNhh8NRXl7+/v17yk6ey8fLiyiI8gQMxT7JhVjkRdKXL1+WhPoej0d8RkO8Iq1Nk8eoLl26FAgE4i/b06dP8/PzZ2dndTQwxl+7jKdEiCUPsUgwX19fLwgCbSDy9kv6+2xPnz6V3xPo8/n0sjHSemXTBEKsNLdmFhzgpVksm1an1nFdukOsqG0Q6xx21MRpmzk7O0vOstPHRdbW1iorK+kPMkaNwdJWPLVWND09zXFcR0fH3t4eyVN+w5Ja68rWfGBIWzZqiLW9vT0wMCAOn8iNgseOHZudnY1EIuFw+O7du5Jnsd69e1dVVSU/zUHXpamJ6elpnucT+imh2dnZ4uLi1tbWWM9XaHNg1BS7cmEQYslDrEgk8vTp08OHD3s8HrJrIzeh8TxP7tqNRCJra2smk0n8spYPHz40NDTU1tZK3lKj7I9vkxPY3d394YcfxCdr6I2C9A2lyeWMpeIXyI4DvPjri5QSAVWO6xBiSVT//5+hUOju3buHDx8mb1Xq7u4+efJkWVkZ+Xl1ci6wrKzM4XD89Zqc8969e/HfKfT/15ehKXKwy7KszWbz+XwdHR08z1ut1g8fPmSoRPpbLQxpm0UNscjMU6dOdXd3j42Nkae3Jc/Tk7vsDAZDU1PTwMCA3W7Pz8+XBF10LRqcIO+8bmlpkYwGTqeT3lf822+/Xbp0yePx+Hy+1tZWg8FQX19P3qoatUYIsaKyxD8TIVbUEIu8u8JgMNjtdp/PZ7fbDQaDOKCKRCIDAwMGg6G2ttbj8fT19ZnNZp7n8SBW/H3vICnJ0UV+fv7t27dHRkbcbnddXR3LspI2OsgqsKyyQNYc4ClXE98qCKhyXIcQS0E4sre3NzIyUlFRwTAMz/Pt7e30FdJkC2SifQoLC0kYppS1lr4LhUI//PBDcXExwzDFxcUPHz78448/tFRAHZQFhqSRooZY4XD41atXFy9eJL+xw/N8U1PT3NwcvT5Mlt3d3e3u7ib9kOO4pqam5eVlHbT9xyKKX0nP/PVDnjeLRCJv3rypra01GAwMw1RUVPT39ytvaAixDtj6CLGihljkNxI6Ozt5nidd0ePxSC6lhsPhmZmZ2tpalmV1tzEesNtoYXHy6lHSQBzHXbx48ddff6V3mmihhNldhmw6wMvulkpp7Q5+XKeJECulRsgcAhCAAAQgAAEIQAACEIBA2gQQYqWNGiuCAAQgAAEIQAACEIAABLJfACFW9rcxaggBCEAAAhCAAAQgAAEIpE0AIVbaqLEiCEAAAhCAAAQgAAEIQCD7BRBiZX8bo4YQgAAEIAABCEAAAhCAQNoEEGKljRorggAEIAABCEAAAhCAAASyXwAhVva3MWoIAQhAAAIQgAAEIAABCKRNACFW2qixIghAAAIQgAAEIAABCEAg+5fUzJAAACAASURBVAUQYmV/G6OGEIAABCAAAQhAAAIQgEDaBBBipY0aK4IABCAAAQhAAAIQgAAEsl8AIVb2tzFqCAEIQAACEIAABCAAAQikTeB/BHwgAAEIQAACEIAABCAAAQhAQA2BSCSCEEsNSOQBAQhAAAIQgAAEIAABCEBAEBBioRdAAAIQgAAEIAABCEAAAhBQTQAhlmqUyAgCEIAABCAAAQhAAAIQgABCLPQBCEAAAhCAAAQgAAEIQAACqgkgxFKNEhlBAAIQgAAEIAABCEAAAhBAiIU+AAEIQAACEIAABCAAAQhAQDUBhFiqUSIjCEAAAhCAAAQgAAEIQAACCLHQByAAAQhAAAIQgAAEIAABCKgmgBBLNUpkBAEIQAACEIAABCAAAQhAACEW+gAEIAABCEAAAhCAAAQgAAHVBBBiqUaJjCAAAQhAAAIQgAAEIAABCCDEQh+AAAQgAAEIQAACEIAABCCgmgBCLNUokREEIAABCEAAAhCAAAQgAAGEWOgDEIAABCAAAQhAAAIQgAAEVBNAiKUaJTKCAAQgAAEIQAACEIAABCCAEAt9AAIQgAAEIAABCEAAAhCAgGoCCLFUo0RGEIAABCAAAQhAAAIQgAAEEGKhD0AAAhCAAAQgAAEIQAACEFBNACGWapTICAIQgAAEIAABCEAAAhCAAEIs9AEIQAACEIAABCAAAQhAAAKqCSDEUo0SGUEAAhCAAAQgAAEIQAACEECIhT4AAQhAAAIQgAAEIAABCEBANQGEWKpRIiMIQAACEIAABCAAAQhAAAIIsdAHIAABCEAAAhCAAAQgAAEIqCaAEEs1SmQEAQhAAAIQgAAEIAABCEAAIRb6AAQgAAEIQAACEIAABCAAAdUE0h1ivX79urS09Msvv9zc3BQEYXR09NixY+3t7X6/f3Nz88svvywtLX39+rVq9UtNRqhFalz1l2t29ITMusNQEAQgHLwTwhCGBxfIeA7oxmiCjAvkeAFU3AYRYiXTl1RsgGRWr9Iy2VELlTCSzAaGScKJFoMhQixRd0h+Eh0pebs/l4ThnxIZ+x9NkDH6P1eMJvhTIkf/V7EDpDvEytEWQ7UhAAEIQAACEIAABCAAgdwQQIiVG+2MWkIAAhCAAAQgAAEIQAACaRFAiJUWZqwEAhCAAAQgAAEIQAACEMgNAYRYudHOqCUEIAABCEAAAhCAAAQgkBYBhFhpYcZKIAABCEAAAhCAAAQgAIHcEECIlRvtjFpCAAIQgAAEIAABCEAAAmkRQIiVFmasBAIQgAAEIAABCEAAAhDIDQGEWLnRzqglBCAAAQhAAAIQgAAEIJAWAYRYaWHGSiAAAQhAAAIQgAAEIACB3BBAiJUb7YxaQgACEIAABCAAAQhAAAJpEUCIlRZmrAQCEIAABCAAAQhAAAIQyA2B/4ZYEXwgAAEIQAACEIAABCAAAQhAQCUBhFgqQSIbCEAAAhCAAAQgAAEIQAACuIqFPgABCEAAAhCAAAQgAAEIQEBFAVzFUhETWUEAAhCAAAQgAAEIQAACuS6AECvXewDqDwEIQAACEIAABCAAAQioKIAQS0VMZAUBCEAAAhCAAAQgAAEI5LoAQqxc7wGoPwQgAAEIQAACEIAABCCgogBCLBUxkRUEIAABCEAAAhCAAAQgkOsCCLFyvQeg/hCAAAQgAAEIQAACEICAigIIsVTERFYQgAAEIAABCEAAAhCAQK4LIMTK9R6A+kMAAhCAAAQgAAEIQAACKgogxFIRE1lBAAIQgAAEIAABCEAAArkugBAr13sA6g8BCEAAAhCAAAQgAAEIqCiAEEtFTGQFAQhAAAIQgAAEIAABCOS6gFKItb6+brVa3W63HGl1dbWpqYnjOJZla2trZ2ZmwuEwTba3tzc6OlpbW2swGBiGqaio8Hg8wWCQJohEIuFweHx8/JNPPmFZluO4b7/9dn19XZxAC9N2u53568dsNm9tbdGyBYNBj8dTUVHBMAzP852dnbu7u/Rb3U0otLju6pKpAue4YTAYdLlcVqtVeUPweDwMw0jGFl2MCQr9an19vb29/fjx4wzDcBzX1NS0vLwsTh/PwEjT53hHog5JTOi9IyVR5aiLKG+MpDeSXTDZTc/NzUXN5/nz50aj0W63R/0WM1MkgG6cItg4sw2Hw69evbp48SLHcQzDFBcXd3d3K+/X4swZyXQnkPTuOHqI5ff7Hzx4wPO8/DAoEonMz88XFxebzea+vr7BwUGz2cxx3Pj4OFUbHBw8fPhwQ0ODx+Pxer319fUsyzqdzlAoRNKEw2G323348GGLxeL1ejs6Onier6qq0lSUFQwGrVZrWVmZw+Fw/vl5+PChIAikFh8+fLBarQaDwW63+3w+p9PJ87zVav3w4QOl0MuEcovrpRaZLWeOG4ZCoZGREbPZzDBMY2Ojwq5oY2OjqqpKMrboYkxQ6GDb29tVVVUnT568d+/eyMhIZ2dnfn5+cXHx/Pw8XWrfgZGkzPGORLmSm9B7R0qu1pKl9t0YP3z40NrayrIs2QV7vd4rV6789ttvknwikcju7m5jYyPDMAix5Dipm4NunDrbOHN+/vy5wWCora11u90+n++rr74yGAw6PcCLs8pIJhc44O44Soh17949g8HA87zFYpEcBkUikWAwePnyZXE4tL6+XlVVVV1dvb29Tcrn8/nEBxahUMjhcBw7dmx2dpYkWFpaKi4uFgdd4+PjHMfdvXtXfDVMXtt0ziG7lqamJsn1N1oGl8sliS1nZmaOHTsmOTdP02t2QrnFNVtsTRUsxw2np6d5nmdZ9h//+EdhYaFCiBUOhx89enT48GGWZcVbii7GBIUut729PTAwIB4r5ubmCgsLr1+/Tk8t7TswRiKRHO9ICsJxfqX3jhRnNRWS7bsxkm2Q47iRkZF9d7g+n89oNLIsixBLwVz1r9CNVSdNNMMXL15MTk7SDSQcDj958oRl2dHR0USzQnqdChx8dxwlxLpz587du3e3trYmJyflIdbs7OyxY8c8Ho+YzOPxsCw7OTkpnimenpqaYln26dOnZKbL5SouLl5aWqJpSOR25syZzc1NOjOzE7u7uw0NDbH2K4Ig1NfXSw4lQ6HQ1atXz58/r68LWcotntlW0Mvac9xwamqqoaFhbm5uc3PTbDZLtgtxI759+7akpOTu3buFhYXiEEsXY4K4IvtOk8vg586d8/v9sRJLBsZIJJLjHSkWVPzzs68jxV93knLfjXFpaamsrKyzs5MePsZaxcbGRnV1td1uN5lMsXaFsZbF/IMIoBsfRC9Fyy4sLBQVFXV0dKQof2SrNYGD746jhFi0klFDrIGBgfz8fPFFKnLrYH5+fm9vL11WMvHq1Sue5wcGBsh1MKvV2tDQILmVqLe3V56zJJ90/rm1tWU2m2PtV2J963a7S0tLV1ZW0llUtdYVtcXVyjxH8slxQ7JdxAqxdnd3bTZbc3Pzq1evxCEWiUa0PyYk1IfJCZfKykp6eV++uHhglHyb4x1JohHnn1nZkeKsuzxZrI3R7XZLTnHKl41EIqFQ6M6dO7W1tQsLCwq7wqjLYuZBBNCND6KXumXfv39fXl5+69at1K0COWtTIOndccIhlt1ul7zyIRKJxIo3KJbH4zEajdPT0wqJSR0ULoXR3NIzQSolPtEuXq/f7z937pz8ULKnp6ewsPDNmzfixHqZTrob6aWCaShnjhvGOqojb7hxu90lJSVv37598+aNOMSKNYBobUxIqP9sb29XV1cr3GkciUTEA6Mk8xzvSBKNOP/Myo4UZ93lyaJujMFgsKmpSX46Q774+Ph4YWHh5ORkLFX5IpijikAscF2Ph6rIZDYT8t4XejdWZguDtadTIOndcWIhFhmd5edlyYgQ62CCPKxFb59bWVkpLS2VnwkgddBO9yXlZD5+yFOPw8PD9FmLcDh89+5dybNYCwsLp06dQoiVzq6vtXUlvSlqrSLJlSfqUR3Jan5+vqSkxO12h8NhSYillzEhfhP6tLrCjfuSgVGSeY53JIlGnH9mX0eKs+JRk0XdGMnJwba2tqWlpYaGBoPBEPW1wKRzkuelYx3xR10pZh5cAN344Iaq50Beb2YymdbW1lTPHBlqXCDp3XFiIRZ5A4T80k3UoZyQBQKBS5cuid+sJTm6orJJ14HmoO7E2tpad3e37+Pn9u3bp06dYhimtbWV3t9IdkIGg6GxsdHpdLa2tubl5TU3NyPEUrch9JWb1rpxmvViDQXkoQ6bzUY2H8kgIPmTllmnmOFweGRkhOM48Rt9aKXIhHxglCTQad0ltUjzn1nWkQ6oF3VjJDPPnDlTVlbW2trq8/keP3588uRJ8elCckNvdXX1xsaGwo0nByweFo8lgG4cSyZT84PB4K1bt8TbSKZKgvVmRCDp3XEyIVZ9fT19cTmpLRm1r169St+dReYvLi5WV1eXlZXRdwlGIhEyfPT09EikSB18Pp9kvkb+JNuY5H0y5JdwyNvtKyoqRkZGfvjhB4RYGmmyjBQj6U0xI6VVfaVRj+pCoZDT6RS/hlRyDKHTMSGqHvkxIqPRePv2bXrRW5Iy6sAoSZPjHUmiEeef2dSR4qyyQrKoGyOZKTlYJKcLyWuByQXYkpIS+sQ1WSTWY8kKBcBXyQmgGyfnlqKlyG8i8Tz/888/7/uGmBSVAdlmViDp3XFiIVYkEonzWaxwODw8PMzzfHNzs/i3ehVOiZE6aOdZLHmLkveoym9xFKfs6OiQP6smTqDl6aS7kZYrleay5bih/KiOHLHxPE8exSTNIQmxYh3DaX9MkPSura0tq9VaWFgY63XYCgOjJKsc70gSjTj/zJqOFGd9lZPJN0a6/5U/i9XT00NeNzU+Ps7zvPiO/ViqymvHt0kLxALX3XiYtIB2FpyZmSkrK6urq1tdXdVOqVCSNAskvTtOOMTq6ekpKipaWFgQ13B+fj4/P5+8MJA+187z/L/+9a+9vT1xykgkQl53brVaJad4e3t75TlLls3sn7EGPlqqfX9Ki6bU5kTS3Uib1clIqXLcUH5UR+YwsT9ut1u/Y4K4j5FLAfX19bFu1qfRZtSBUZxVJBLJ8Y4k0Yjzz+zoSHFWdt9k8o2R/JRwQ0OD/G5/t9vNsuzPP/9MfmiYifHBtax92Q+eAN344Iaq5EBON3R2dkoOVlXJHJnoSCDp3XHCIdbk5CTLspLb+Twej/iXhScnJ5XP4zocjvLy8vfv31Ni8rtY9JUYdL6mJshVLIVfRSC/+ajwgLumqiMvTNLdSJ5Vzs7JcUP5UZ0gCA8fPnT+9dPS0mI0Gj/77DOn0zk1NRUOh3U6JtB+Th5fuXTpUiAQoDMlE8oDozyx/GcJJWnwp0QgCzqSpEYH+VO+MZLcOjo6yD2B4szJydP5+fn+/v6/bqzOtra2Y8eOVVZWOp1Or9crXgrTqRBAN06FaqJ5kp9wfPLkifw6QaJZIb3eBZI+rks4xNre3q6trT137hy9/Y+cu21ubiaBPnnr4OXLlxXi/unpaY7jOjo6aN+V35ygtSYJBoN2u10cSUpK+O7du6qqqvr6eoVfGpUsorU/k+5GWqtIBsuT44axjuokLSK5UTASiehxTBBXipxeef78uXimeDqegVGcPsc7kpgioWm9d6SEKqucONbGODs7m5+fT97tSXJYW1urrKykO3FJtiQfXL+SsKT0T3TjlPLGk3nUMxHxLIg02SeQ9O444RArEomMj49zHGc2mwc/fsxms/iFgWQ4Jme8JCfDHj58SN6TQR5/Z1nWZrP5fL6Ojg6e561W64cPH7TTNgMDA5cuXfrP7RNjY2M9PT1ms5llWfFuaWFh4csvv3S73SMjI06nk+d5s9n89u1b7VQh0ZIk3Y0SXVEWp89xw1hHdZIWl4dYuhgTJLUQ/+l2u41GY0tLi2TQI5fp6DMwygOjOMMc70hiioSm9d6REqqscuJYG2MoFLp79+7hw4ctFovX6+3u7j558mRZWVmsn3NEiKXsnIpv0Y1ToRp/nuShj7KyMofDIRnS7927F+tW8PjzR0p9CSS9O04mxIpEIi9fvqytrWVZluO4pqYm8YOAZDhmon3E74EIhUI//PBDcXExwzDFxcUPHz78448/NIU+MTHxt7/9zWAwMAzDcdzFixdfvXolfp/M2tqaxWLhOI5U4f79+/q9fkXkk+5Gmmq4zBYmxw1jHdVJGkUeYkUiEe2PCZJaiP90u91MjA/5+fI4B0aaZ453JOqQxISuO1IS9Y21iMLGuLe3NzIyUlFRwTAMz/Pt7e3r6+vK+eAqViyfFM1HN04RbDzZkhCLifbR7yuj46k40kQVSHp3rBRiRV0TZkIAAhCAAAQgAAEIQAACEIBALAGEWLFkMB8CEIAABCAAAQhAAAIQgEDCAgixEibDAhCAAAQgAAEIQAACEIAABGIJIMSKJYP5EIAABCAAAQhAAAIQgAAEEhZAiJUwGRaAAAQgAAEIQAACEIAABCAQSwAhViwZzIcABCAAAQhAAAIQgAAEIJCwAEKshMmwAAQgAAEIQAACEIAABCAAgVgCCLFiyWA+BCAAAQhAAAIQgAAEIACBhAUQYiVMhgUgAAEIQAACEIAABCAAAQjEEkCIFUsG8yEAAQhAAAIQgAAEIAABCCQsgBArYTIsAAEIQAACEIAABCAAAQhAIJbA/wj4QAACEIAABCAAAQhAAAIQgIAaApFIBCGWGpDIAwIQgAAEIAABCEAAAhCAgCAgxEIvgAAEIAABCEAAAhCAAAQgoJoAQizVKJERBCAAAQhAAAIQgAAEIAABhFjoAxCAAAQgAAEIQAACEIAABFQTQIilGiUyggAEIAABCEAAAhCAAAQggBALfQACEIAABCAAAQhAAAIQgIBqAgixVKNERhCAAAQgAAEIQAACEIAABBBioQ9AAAIQgAAEIAABCEAAAhBQTQAhlmqUyAgCEIAABCAAAQhAAAIQgABCLPQBCEAAAhCAAAQgAAEIQAACqgkgxFKNEhlBAAIQgAAEIAABCEAAAhBAiIU+AAEIQAACEIAABCAAAQhAQDUBhFiqUSIjCEAAAhCAAAQgAAEIQAAC+4RYy8vLFovF5XLJpebn5202G8dxLMvW1NT88ssvgUCAJvP7/V6vt6amxmAwMAxTXl7e39+/s7NDE4gnFNYiTpapaVKXqqoqlmVJXaanp2lhAoHA8PAw+ZbjuG+++WZ5eZl+q7sJjbeFlj2zrCckTb2zs9Pd3W2xWDY3N8WZxDMmuFwu5q+fgoKCFy9eiPPR8vTy8rLdbi8oKGAYhuM4m802NzcnKfC1a9f+WkXGZDKtrq7SZDs7O/39/eXl5QzD8Dxvt9t1PaTQeqVzAhsj0Y61MUraor+/n2GYqDt6QRCwU5Bwpf9PNEH6zQVB+P33351OZ3l5OfvxYzabf/zxR7/fn5HCYKUZETjgriRmiPXu3buOjg6e56OOvDMzM0VFRSaT6Z///OeTJ09MJhPHccPDw5TgyZMnhw4dOn/+/Pfffz84OFhXV8eyrMPhkPRO5bXQ3DI4sbGx0dLSwrJsQ0PD4MdPc3Pz+Pg4KVIgEHC5XIcOHSLfOp1OnucrKyuXlpYyWObkVq39tkiuXulZKpt6QtJiJIgymUwMw1y8eFESYsUzJty4cePo0aOtra2OPz9Op3NxcTHpIqVzwdXV1crKyhMnTjidTq/Xe/v27by8vKKiopmZGVqM7e1ti8VSWlra1tb2ZxUd9+/fX1tbI2n8fr/D4WBZ1mKxDA0N6XpIobVO8wQ2RkEQlDdGcYssLy9XVlZG3dFjpyCGysg0miAj7GSlr1+/tlgsDx48ePbs2ffff19TU8OyrMvlEl9OyGDxsOpUCxx8VxI9xHI6nQaDgef5hoYG+ci7s7Nz6dIlcSCxtLRUWVl59uxZei52aGhIfGDh9/vb2tqOHj0qvv6jvJZU28WTfyAQePDgAcdxXq836kY1OztbVFQkDh2Hh4c5jmtvb4+aPp6VZiSN9tsiIyzxrzRrekL8VZaknJiY4HmeZdn6+vqCggJ5iBXPmHDt2rXq6up3795JMtfFn6urq319feJr9dPT0wUFBVeuXKGnljY3Ny9evGiz2ba3t6NWamJiwmg03r59mw4gXq/XaDR2dXVFTY+ZcgFsjPtujBSN7OMOHTpEjh3pfEEQsFMQa2RkGk2QEfZYK93Y2Lhw4cLp06f1ctYvVkUwP06Bg+9KoodYt27dam9vX11dHR0dlYdY09PTR48e7e/vF5eyv7+fZdnR0VHxTPH02NgYy7IDAwN0pvJaaLIMTszOzpaWlooPdySF6e7uLioqmp2dpfNJ/Gk2m1dWVuhM7U9ovy00bpg1PSFp57GxsQsXLkxPT6+srJhMJnmIJc9ZMiYEAoHW1tZ4FpRnpc055JqVOGjc3Nw8f/78tWvXYhW4r6+PYRjxQLq6umoymRQWiZVVzs7Hxhj/xvjy5cuSkpL29vaCggLJjYLYKWR8C0ITZLwJJAVwuVz6unddUn78mZDAwXcl0UMsWoioIVZfX19eXp74IpUgCDMzM3l5eY8ePaLLSiampqaOHDnS19cnmS8IQtS1yJOlf47L5ZJEUOIykOOn8+fPS26IevTokdxHvKCWpzXbFlpGy8qekDQ4CQniiZQkYwK5whPPgkmXLc0L+v3+5uZms9lML+/vGy+Rq1gej4cWlZxIczqddA4mFASwMYpxlDfGzc1Ni8Vy+fLlqakpeYhF88FOgVJkagJNkCl5yXoRYklAsvhPVXYlyYRY165dkzyfLQjCvocO/f39RqNxYmJC3iTaHD62t7dtNps8gqLlj1VlUh3xeWi6iPYntNkWGnfLyp6QtLnyUZ04W8mYQEKsbLpcs7q6evbsWfFtgQRHcrlAbEKexSotLR0fH/f7/YuLixcuXBDflS1OjGm5ADZGsYnCxkgeMygpKXn58uWLFy8QYondtDaN/bIWWsTv97e0tHz++ecbGxtaKA/KkFIBVXYlCYdYJPAQn5cllSSlER9MiCtPHtaK1TW1OXy8e/euurq6tbV1dnb2woULBoNB8u7E+fn50tLSGzduiGtKL8qJb4mUJNDyn9psCy2LCYKQlT0haXOFozpxnvIxgWxx5G17LMuazWaXyyW5RCzOQePT9ElZr9dLi0q6CqmjwWCoqal5+vSp+PEtQRC2traam5vpWwfLy8vFtyLTrDARVQAbo5hFYWOcmZkpKSkhz+4jxBKjaXAa++XMNkogEFhcXHQ4HAUFBfRtZ5ktEtaeagFVdiUJh1ixbuZRGMrfv3/f2NgoebOWWEebwwep0X+eqiotLW1paRkaGurp6Tlx4gR9d2Ks3ZI2qyMGV5jWdeEV6pXSr7KyJyQtpjAU0Dyjjglra2sPHjwYHBz0er137tw5c+YMwzCfffYZvcuOLq79iUAg4PV6OY4TvwtHEITFxcXOzs6hj5+bN2+WlZUxDNPS0kIjya2trW+//ZbneafT+ezZMzLm1NTU6PElpRlpJmyMYvZYG+PKysrZs2fpLyvEQiNZYacgJs3INJogI+z0jDk54fXZZ5+9efMmUyXBetMsEGtUTGhjTDLEqquro28ZJtUmQ3lzczN9dxaZ/+9///vs2bOlpaXidwlKpBIqsWTZ1P1JakQDKrIi8bsTSQPI3/RFqjM0NJS6sqUuZ222Rerqq0rOWdkTkpaJdVRHM4xnTCBvnf7uu+9Ylu3u7qbL6mKC/BiR0Wi8efOm5AqVpPw7Ozs3btxgWZZe6XK5XFHHHHo0LMkBf0oEsDGKQaJujORmVPHdp7EOJkhW2CmISTMyjSbICLsgCCsrK88+frq6us6cOWMwGHp6eiRHuZkqG9abUgFVdiUJh1iCIMT5LFYgEHj69CnP81999ZXy6/W0OXyQnZP8Wayuri7yNguSQP7oCKkOnsVKae/XVOZZ2ROSFo56VEdyi39MIOnJs0wWiyXWK86TLmTqFlxZWbFYLAUFBbF+6UGyavI2C3K/8draWl1dnfx26/7+/iNHjkxNTUmWxZ9yAWyMYhP5xkjuXz1y5Ij4uWiEWGI0DU5r8xhJg1ApLRK991unj4GkFCf7MldlV5JMiNXV1XX8+PHXr1+LTckbBekLA+k4/uTJk30jfm0OH+T1yvL3m7lcrv/80vfY2Bg5HpIf/z169EjuI7bS8rQ220LLYoIgZGVPSNpcflRHskpoTCCLxLotOemypXpBcpW7rq4u/h9OEY/j4mlxUXV91kZckTRMY2MUI8s3RjKHPuknn5C/iwU7BTFpRqbRBBlhl690ZWXl9OnT8hPr8pSYo3cBVXYlyYRYo6OjLMtKboTr7+8X/7Lw6Oho/OdxNTt8OJ1O8e8pkx5DI8xAINDW1nbq1KmFhQXamcjvYsV6sQdNptkJzbaFZsUEQcjKnpA0uPyojmSV0JhAFpG/kS/pUqVhQfIK7MbGxvfv38e/OvE72VdXV81m86VLlyS3F5JfHRwbG4s/25xNiY1R3PTyjXFtbe3+/fuOv36+/vpro9H497//3eFwyLsZdgpi0oxMowkywi5fKUIsuUm2zlFlV5JMiLW6ulpTU1NdXU1v/yPnbi9fvkyODMhbB+UHCrFaQrPDx/T0dF5eHnnnEin84uKi2WymNZ2YmOA4zul00it1w8PDR44c0e91ZM22RazOo5H52dcTkoaVH9UJgpDomECexerp6RE/p5R0kdKz4MTEBM/zCb1vamdn5/r16/TkVCAQaG9vlzyL9fbt28rKSvm5nvRUSo9rwcZIWy3qxki/pRO4UZBSaHMC++X0t8vm5mZvb6/4fBm9UZA+Opv+UmGN6RQ4+K4kmRBLEITh4WGO40wm05OPH5PJJH5hIBnWzWbzX8+U/fev+/fvS96TQd/ZIr8/IZ2UUdfl9/vb29sPHTrU0NAwODjY2dl54sSJ0tLSFy9ekPTkuWGWZS0Wy9DQkNPpIjwPNQAAIABJREFU5HneYrHo92cTMJRH7Qn7zsy+nrBvlWMliHpUF8+YMDY2VldX9+DBg2fPnrlcrpqaGoZhJG/ki7VSLcx3uVxGo/Hrr7+Wj3v0ykBfX19jY6PL5Xr27FlXV5fJZGJZVnwSh5yuMhgMNputr6/v+vXreXl5kqBLC5XVchmwMdLWibox0m/pBEIsSqHNCeyX098u5Db1vLy8mzdver1el8v16aefsiyro11S+tGybI0H35UkGWIJgvDrr7/W1NSwLMtxnM1mm5+fp7hkWJff5M0wjPw3i7UcYpFT6T/++GN5eTnDMDzP2+325eVlWlOSoLe3t6ioiGGYoqKi+/fvb21tiRPoaxpDedLt5ff7s6knJO0Q9agunjHhxYsXNTU1HMcxDEN+M8rr9dLrw0mXJ20LulyuqIMewzD0/JHP5yOvpWIYhuO4L774YmpqKhAIiAu5ubnZ2dlJhhQyus7NzYkTYHpfAWyMhCjqxijXQ4glN9HUHOyXM9Icc3NzNpuN53k6XP/888862iVlBC3LVnrAXck+IVaWYaE6EIAABCAAAQhAAAIQgAAEUiqAECulvMgcAhCAAAQgAAEIQAACEMgtAYRYudXeqC0EIAABCEAAAhCAAAQgkFIBhFgp5UXmEIAABCAAAQhAAAIQgEBuCSDEyq32Rm0hAAEIQAACEIAABCAAgZQKIMRKKS8yhwAEIAABCEAAAhCAAARySwAhVm61N2oLAQhAAAIQgAAEIAABCKRUACFWSnmROQQgAAEIQAACEIAABCCQWwIIsXKrvVFbCEAAAhCAAAQgAAEIQCClAgixUsqLzCEAAQhAAAIQgAAEIACB3BJAiJVb7Y3aQgACEIAABCAAAQhAAAIpFfhviBXBBwIQgAAEIAABCEAAAhCAAARUEkCIpRIksoEABCAAAQhAAAIQgAAEIICrWOgDEIAABCAAAQhAAAIQgAAEVBTAVSwVMZEVBCAAAQhAAAIQgAAEIJDrAgixcr0HoP4QgAAEIAABCEAAAhCAgIoCCLFUxERWEIAABCAAAQhAAAIQgECuCyDEyvUegPpDAAIQgAAEIAABCEAAAioKIMRSERNZQQACEIAABCAAAQhAAAK5LoAQK9d7AOoPAQhAAAIQgAAEIAABCKgogBBLRUxkBQEIQAACEIAABCAAAQjkugBCrFzvAag/BCAAAQhAAAIQgAAEIKCiAEIsFTGRFQQgAAEIQAACEIAABCCQ6wIIsXK9B6D+EIAABCAAAQhAAAIQgICKAgixVMREVhCAAAQgAAEIQAACEIBArgsohVjr6+tWq9XtdsuRVldXm5qaOI5jWba2tnZmZiYcDtNke3t7o6OjtbW1BoOBYZiKigqPxxMMBmmCcDj86tWrixcvchzHMExxcXF3d/fu7i5NoMEJj8fDMAzV2NraMpvNTIzP5OSkBquwb5EUWnzfZXM8QTgcHh8f/+STT1iW5Tju22+/XV9fz0GTYDDocrmsVqvC5ry4uFhdXS3fRvRuuL6+3t7efvz4cYZhOI5rampaXl6mfeDNmzeFhYVMtE9hYeGbN29ISrfbLUki/pakwb/KAnrvSMq1i//bg2yMwWDQ4/FUVFQwDMPzfHt7e24OaPFrpy4l9sups1XIWY+HqQrVwVdJCBx8VxI9xPL7/Q8ePOB5XhxU0PLNz88XFxebzea+vr7BwUGz2cxx3Pj4OE0wODh4+PDhhoYGj8fj9Xrr6+tZlnU6naFQiKR5/vy5wWCora11u90+n++rr74yGAxWq/XDhw80E01NbGxsVFVViTUEQXj48KHzr5/29naz2Xz69Ol3795pqvz7Fka5xfddPMcThMNht9t9+PBhi8Xi9Xo7Ojp4nq+qqsqpg5JQKDQyMkLOOzQ2NkYNsdbW1hwOBznzIgmx9G64vb1dVVV18uTJe/fujYyMdHZ25ufnFxcXz8/Pk61jbW3t3r17fx0wnHa7vbi4uL6+3u/3k2S3bt06duxYW1sbTXnv3r21tbUc38Tir77eO1L8NVVIecCNMRQKOZ1OlmVtNpvP58vNAU2BN21fYb+cNmr5inR3mCqvAuYcRECVXUmUEOvevXsGg4HneYvFIg4qSFmDweDly5fFh4/r6+tVVVXV1dXb29skjc/nowcWkUgkFAo5HI5jx47Nzs6SBC9evJicnKQXvsLh8JMnT1iWHR0dPYhIipYNh8OPHj06fPgwy7L0KlbUdZET1cppoi6Y2ZnKLZ7Zsuli7UtLS8XFxeKTCOPj4xzH3b17l3ZyXVQk6UJOT0/zPM+y7D/+8Y/CwkJ5iBUMBr/55huWZU+ePHnhwgWGYSQhlt4Nt7e3BwYGxNfq5+bmCgsLr1+/Tk8tyXnHx8d5nhefn7Lb7efOnaMRl3wRzFEW0HtHUq5dPN8efGOcnp42Go2dnZ10+BoZGTEajT09PfEUAGlUEcB+WRXGpDPR12Fq0tXEgrEEVNmVRAmx7ty5c/fu3a2trcnJSXmINTs7e+zYMY/HIy6Wx+NhWVZyzCROMDU1xbLs06dPxTPF0wsLC0VFRR0dHeKZGpl++/ZtSUnJ3bt3CwsLFcKnUCh069atqqqqjY0NjZQ8zmIot3icmeRyMpfLVVxcvLS0RBHImYgzZ85sbm7SmVk8MTU11dDQMDc3t7m5aTab5SHW7u7u1atXHz9+vLu7S+6FkwwX2WcYDAatVqtCvLS7u9v48UOv+IXD4ba2NrleFvcc1auWfR0pUaKDb4wDAwOSkyDkxni73Z5oYZA+aQHsl5OmS9GCWj5MTVGVczlbVXYlUUIsaho1xBoYGMjPzxdfpIpEIvPz8/n5+b29vXRZycSrV694nh8YGJDMp3++f/++vLz81q1bdI5GJnZ3d202W3Nz86tXr5RDLJ1ewhI7R21xcQJMywXIkXRDQwM9UCZpent75VuKfPEsm0MOxZSDBHmIlZWGoVDo6tWrlZWV9PK+pK3ll7DkQZdkEfypLJCVHUm5ygrfJrcxRiIRchXrp59+opmTE7raPAdKC5mtE9gva6RlNXuYqhGfbCqGWruShEMsu91uNpu3trbEmvue4vJ4PEajcXp6WryUePr58+dGo1HhMpc4cdqmyb2YJSUlb9++VY6gwuHw3bt3TSaTrp+awFCeRNeK1fkJpuRaTRL562uR5I7qstJwe3u7urq6qalJfPcgbU1ynfP8+fPiB1BJiIVrBVQp0Yms7EiJItD0yW2M5N5+p9NZVlb2/Pnzvb29tbW1hoYG8dMBdBWYSIMA9stpQI5nFdo8TI2n5EiTqIBau5LEQqxgMNjU1CQ/L0tKE+tggjysJTmYEFf4w4cPVqtVg/HJ/Px8SUmJ2+0Oh8PKIRY5yedyucT10t00hvIkmmxlZaW0tFR+AZZgau2sQRIVTGiR5I7qss+QPikb6/nS58+fcxwn+dbv9587d475+GFZ9syZM263W3J1NKHmyLXE2deRDtKCyW2MZI1//PHH1atXmT8/FRUV4huhD1IqLJuoAPbLiYqlIr1mD1NTUVnkqdauJLEQK9Z9LApDeSAQuHTpkvjNWpLGCwaDt27dkryTUJImI39ubGxUV1fbbDZyiKMcYsnv2sxImQ+4UgzlSQDG6hi5iakwFFBb+Y2CWWYYDodHRkY4jhO/AYVWn1wluH79uvgVQeRbQRAePXrk9XrJOwn/9re/MQzzxRdfSO4aEGeFabFAlnUkcdWSmE5uY4xEIn/88ceNGzd4nu/o6BgbG3v8+PHJkydra2tz6hWpSYCnaJHc3JWkCDO5bDV7mJpcdbDUvgJq7UqSCbHq6+sFQRAXkQzlV69elbw7i/wATllZGX2XoHipSCRCfvCB5/mff/6ZvrxIkiYjf5K31opvjYglHolEyB1Byq8Oy0gtEl0phvJExSKRCOkY8ndtEUyfz5dEnvpdJLmjumwyJD9GZDQab9++HfUWwUgkEudF7729PfKqVb1fHk9bf86mjnRwtOQ2xkgk4na7JSc9ya0o9ITjwcuGHOIXwH45fqtUpNTsYWoqKos8iYBau5LEQqxIJBLns1jhcHh4eJjn+ebm5linYGdmZsrKyurq6lZXVzXVruQmH57nxQ+PEfGobxQk9/xkwVM3GMqT6IfkOEb+/AzBzIJekZBJckd1WWO4tbVltVoLCwtHRkYUzhl5PJ44f1CYnL6xWq2xorWEWifrE2dNR1KlpZLbGAVBqK+vl9/27/F4eJ5/9eqVKmVDJvELYL8cv5XqKTV7mKp6TZGhWECtXUnCIVZPT09RUdHCwoK4NOSNgvSFgTRE+de//rW3tydOSafJ27Q6Ozs1eOhAcJnYH3GgFQ6HHQ5HdryeG0M57Z/xT5AjEvlBcG9vr3xLiT9bnaY8yFGd3g3Jmf76+nrld97Eut06aosnlDhqDjk1ExujuLmT2xjVOrYQlwTTBxHAfvkgegdZVsuHqQepF5bdV0CtXUnCIdbk5CTLspLbnzwej/iXhScnJ5XP45Jfmnry5EmsAGzf+qc0gSAIDx8+dP7109LSYjQaP/vsM6fTOTU1RQtAnlB3OBwKJ61pYo1PYChPooFIjF1eXv7+/Xu6eNT3xdFvs3giuaO6LDAkv+5w6dKlQCCg3L7kOVrxaRqF9MqvJVRYMDe/yoKOpGLDJbcxbm9vV1ZWXr58WXL2k/z6pXjfp2JRkZWCAPbLCjip+0rjh6mpqzhyjkQiau1KEg6xtre3a2trz507R2//I+dum5ubyYhM3jooH6DFzdbR0SF/1FucQIPTsW4UJD/5JYk5NVj+eIqEoTweJXma6elpjuM6OjroKQNy9ivXXicYiUSSO6ojP8Wja8Pp6Wme558/fy7vHpI5Pp+Pj++Gq729vcePH7MsK3nxoCRD/CkWwMZINZLbGMkPkEiexXr37l1VVZXu9tqUQtcT2C9npPn0eJiaEahsXakqu5KEQ6xIJDI+Ps5xnNlsHvz4MZvN4hcGkmG9srLyrxeB/vvXw4cPBUEgt76UlZU5HA5Jmnv37infY5PBtowVYkX9LeYMlvMgq8ZQnpweeTkKy7I2m83n83V0dPA8b7VaxT95lFzOulsquaM6+lM8+jV0u91Go7GlpUUypkkuekcikVu3bplMpo2NDXnjTk1N1dfXf/fdd2NjY263u7a2lmGYWK8llC+OOVnQkVRsxKQ3RnLa1GAwNDU1DQwM2O32/Px8SdClYjmRlbIA9svKPqn4VqeHqamgyNk8VTmuSybEikQiL1++rK2tZVmW47impibx+yrIsM5E+5DfLCZ9N9r3TJyPgGekyWOFWFHf/5GREh58pRjKkzYMhUI//PBDcXExwzDFxcUPHz78448/ks5NvwsmfVRHDo71a0jeRM9E+4jvCVR+turNmzeffvopx3EMwxgMhtra2tHRUXppVL+9Is0lx8ZIwA+yMe7u7nZ3d5MBjezll5eX09yOWB0RwH45/T1Bp4ep6YfK7jUefFeiFGJltx1qBwEIQAACEIAABCAAAQhAQHUBhFiqkyJDCEAAAhCAAAQgAAEIQCB3BRBi5W7bo+YQgAAEIAABCEAAAhCAgOoCCLFUJ0WGEIAABCAAAQhAAAIQgEDuCiDEyt22R80hAAEIQAACEIAABCAAAdUFEGKpTooMIQABCEAAAhCAAAQgAIHcFUCIlbttj5pDAAIQgAAEIAABCEAAAqoLIMRSnRQZQgACEIAABCAAAQhAAAK5K4AQK3fbHjWHAAQgAAEIQAACEIAABFQXQIilOikyhAAEIAABCEAAAhCAAARyVwAhVu62PWoOAQhAAAIQgAAEIAABCKgu8D8CPhCAAAQgAAEIQAACEIAABCCghkAkEkGIpQYk8oAABCAAAQhAAAIQgAAEICAICLHQCyAAAQhAAAIQgAAEIAABCKgmgBBLNUpkBAEIQAACEIAABCAAAQhAACEW+gAEIAABCEAAAhCAAAQgAAHVBBBiqUaJjCAAAQhAAAIQgAAEIAABCCDEQh+AAAQgAAEIQAACEIAABCCgmgBCLNUokREEIAABCEAAAhCAAAQgAAGEWOgDEIAABCAAAQhAAAIQgAAEVBNAiKUaJTKCAAQgAAEIQAACEIAABCCAEAt9AAIQgAAEIAABCEAAAhCAgGoCCLFUo0RGEIAABCAAAQhAAAIQgAAEEGKhD0AAAhCAAAQgAAEIQAACEFBNACGWapTICAIQgAAEIAABCEAAAhCAwD4h1vLyssVicblccqn5+XmbzcZxHMuyNTU1v/zySyAQoMn8fr/X662pqTEYDAzDlJeX9/f37+zs0AS///670+ksLy9nP37MZvOPP/7o9/tpAo1MXLt2jfnrx2Qyra6u0uIFAoHh4eGqqiqWZTmO++abb5aXl+m3epnIjlpkVhuGxH9nZ6e7u9tisWxubsZqkX//+99nz54dHR2VJNC74fLyst1uLygoYBiG4zibzTY3Nyep475Dijj9+Pi40Wi8du2aeCam9xXQe0fat4JxJlDYGPfthzs7O/39/eXl5QzD8Dx/+/ZthS06zvIgWUIC6MYJcameOBAITE1NffHFFxzHMQxTVFTU2dmJrUB1Z11kqBANKZQ/Zoj17t27jo4OnucZhpGHWDMzM0VFRSaT6Z///OeTJ09MJhPHccPDw3RNT548OXTo0Pnz57///vvBwcG6ujqWZR0OBw2iXr9+bbFYHjx48OzZs++//76mpoZlWZfLJY7TaG6Zmtje3rZYLKWlpW1tbY4/P/fv319bWyNFCgQCLpfr0KFDDQ0Ng4ODTqeT5/nKysqlpaVMlTmJ9WZHLZKouIqLwFAQBHJixWQyMQxz8eLFqLuixcXFtrY2cuZFEmLp3XB1dbWysvLEiRNOp9Pr9d6+fTsvL6+oqGhmZob2tH2HFJpSEITNzc2LFy8yDIMQS8yy77TeO9K+FYwngfLGuG8/3NjYsFgsBoPh2rVrQ0NDDoeD53mLxbKxsRHP2pHm4ALoxgc3PGAO4+PjBoOhpqbG5XINDQ1ZrVaDwYCt4ICqultcORpSrk70EMvpdBoMBp7nGxoa5CHWzs7OpUuXxIHE0tJSZWXl2bNn6eWdoaEh8YGF3+9va2s7evTo9PR01AJtbGxcuHDh9OnTi4uLURNkZCY5xLHZbNvb21ELMDs7W1RUJA4dh4eHOY5rb2/XVKwYtfB0ZnbUglYnIxMwnJiY4HmeZdn6+vqCggJ5iLW9vd3U1MSy7IkTJz7//HOGYSQhlt4NV1dX+/r6xNfqp6enCwoKrly5Qk8t7TukiHvv0NCQ0WhkWRYhlphl32m9d6R9K7hvgn03xn37YXd3t+S06S+//HL06FH5+dZ9C4MEyQmgGyfnpuJSk5OTo6Oj9FguEAh89913LMt6vV4V14KstCygHA3tW/LoIdatW7fa29tXV1dHR0flIdb09PTRo0f7+/vFuff397MsKzlmEicYGxtjWXZgYEA8UzztcrkKCgpevHghnpnZ6c3NzfPnzysc33R3dxcVFc3OztJykvjTbDavrKzQmRqfyI5aZBYZhmNjYxcuXJienl5ZWTGZTPIQa3Nzs7m5uaenZ3Nz0+VyyUOs7DMk1wqqq6vfvXtH+ue+QwrtxisrK2fPnr1+/frp06cVhiCaHhNUIPs6Eq1anBPxbIwKu7a1tbW6ujrJJuz3+5ubmz///HNcyIqzFQ6YDN34gICpWPz169fHjx93Op2pyBx5alBAORrat8DRQyy6WNQQq6+vLy8vT3yRShCEmZmZvLy8R48e0WUlE1NTU0eOHOnr65PMp39qMMRaXV01mUyxjm/I8dP58+clN0Q9evRI7kOrqbWJ7KhFZlVhKPYnW43k+EycQBAEeYiVlYbkqNRsNtPL+8pDClXy+/23bt2qqal5/fq1whBE02OCCmRlR6K1S3Qi1sao3A9jfetyuUpLS+fn5xMtBtInKoBunKhYetIvLCycOnXqxo0b6Vkd1qIdgajR0L7FSybEunbtmuSVD4IgxBqUaQn6+/uNRuPExASdI57w+/0tLS1aO0NGKhXr1ohYVSYtoXBBT1zxjE9nRy0yywhDsT/RSDTEykrD1dXVs2fPiu80JtWMNaRQxuHh4YKCgtHR0VgsNCUmJAKxxPQ1LEsqlfSfREO+MSr3w3fv3lVXV8uX6urq0tqdJknLaHxBdGNtNhB5/5DC3VjaLDZKdXCBNIVY29vb/zliEJ+XJUUnI4L4YEJcJfKwVtQIKhAILC4uOhyOgoKC8fFx8VIZn56fny8tLSUvFCRPPT59+pQ+a0G+lZ/PIC2hl40wO2qR2a4CQ7F/rKM6cRr5VazsM6RPq4tv3CfVjDWkECIyWpInPGMdaYkxMS0WyL6OJK5dotOxNkblfhgIBNrb2yXPYr1+/bqsrAwhVqJNkFx6dOPk3FK6FHkHjNZeGZDSKiNzKpCmEIs8Jis/vxVrKBcE4f37942NjZI3awmCQEpMjjY+++yzN2/e0MpoZGJxcbGzs3Po4+fmzZtlZWUMw7S0tJA7A1+8eFFQUCA/IZ1cS2SqytlRi0zpkfXCUOyvMBTQZPIQK8sMA4GA1+vlOE78LhxBEJSHFPIWQYvFcvbsWfIwJ0Is2mfinMiyjhRnrWMli7Ux7tsPSZxvMBguXrzocDhaWlqOHTt2+fJlhFixqNWdj26srufBc9vZ2blx44bkvMPBs0UOehFI7sA+4RsFSYhVV1dHX1xOgMhQ3tzcTN+dReaTH8ApLS2Vv0twZWXl2cdPV1fXmTNnDAZDT0+PZHFN6ZNtjL5PhgyCXV1dkkKSlhgaGpLM1+af2VGLzNrCUOwf66hOnCZWiKX3rYnUkfwYkdFovHnzJr3oLa4+nZYMKeTCV0lJCX3SFSEWtYpzAhujGCqejVEQBEk/JDmQH3kjP9xSXl7u9Xp7e3sRYol5UzeNbpw62yRyJr+JxPP8Tz/9RF8wmEQ+WES/AmkKsQRBiPNZrEAg8PTpU57nv/rqq31fr0dvqtH4/XXkPark5sBYRz+kJfAsln63pURLnh09IdFax0ofz1GdPMTKGsOVlRWLxVJQUOD1euPZGYuHlOHh4SNHjojHwFgssfAxP5aYvoZltdoxno2RrEvcD2Ot3el0yh/DjpUY8w8igG58ED11l/3ll19KS0s//fRTvOhFXVh95Za+EKurq+v48eOvX78WA5E3CtIXBpKQ6ciRI0+ePInzwtTKyor2X08sHvjIm20tFovkV7MePXok9xFbaWo6O2qRWVIYiv3jOaqTh1jZYUhur6qrq4v/9/3okEJuECA3Tkf9N9arTcX4mM6OjqRWO8azMZJ10X4Ya9Wkf8Z63DrWUpifnAC6cXJuqi9FTnvduXNH+X4E1deLDLUmkL4Qa3R0lGVZyY1w/f394l8WHh0djf88LqHURYhFTvWRX0UIBAJtbW2nTp1aWFigvYH8LlbUF3vQNJqayI5aZJYUhmL/eI7q5CFWFhhubm5aLJbGxsb379+LQZSn6ZCyvb39+PFjx18/ra2tR48eNZvNDodjcHBQOSt8KwhCFnQkFdsxno2RrI72w1hrn5iYOHLkiPjdLbFSYv7BBdCND2548BxevnxZUlLy3XffxXmd4OBrRA6aFUhfiLW6ulpTU1NdXU1v/yPnbi9fvkwCffLWwUuXLsWK+zc3N3t7e8UHIvRGQS2P4Ds7O9evXxdHkhMTExzHOZ1OugXKb/XRbI+hBcuOWtDqZGQChpQ9nqM6eYglCILeDScmJnieT+i1qPIhhTKSiX2vLUjS488s6EgqNmI8GyN5Fkuya5OU4e3bt5WVlXV1dfRHtCUJ8KfqAnofD1UHSX+GTqfz7Nmz9FcN018ArFE7AukLsQRBGB4e5jjOZDI9+fgxmUziFwaSYZ2cef3rOVnH/fv319bWyC0HeXl5N2/e9Hq9Lpfr008/ZVlW8vatjOP29fU1Nja6XK5nz551dXWZTCaWZV0uF33Ewu/3OxwOlmUtFsvQ0JDT6eR53mKxbGxsZLzw8RcgO2oRf31TkRKGVDWeo7qoIZbeDV0ul9Fo/PrrryWD3n+GiLGxMeKz75BCGckEwcQtghIW5T/13pGUa5fQt7E2xn374evXry0Wi8vl8nq9DoeD53mTyfTq1auE1o7EBxFANz6I3sGXJYeppaWlbW1tkiHd6XTGfyv4wUuCHLQgkNYQSxCEX3/9taamhmVZjuNsNpv4QUAyrEd9nIA+LDs3N2ez2cjbijiO++KLL37++Wd6LUgLoIIg+Hw+8qpDhmFIIaempmh8RQrp9/t7e3uLiooYhikqKrp///7W1pZGyh9/MbKjFvHXNxUpYUhUYx3Vic2jhliCIOjakFQq6rhHf9ohniFFDIUQS6wR/7SuO1L81dw3ZayNcd9+uLi42NDQwHEc2a/97//+L65f7autegJ0Y9VJ489Q4eFYvFczfsasSZmSECtrdFARCEAAAhCAAAQgAAEIQAACaRDY53ex0lACrAICEIAABCAAAQhAAAIQgEDWCCDEypqmREUgAAEIQAACEIAABCAAgcwLIMTKfBugBBCAAAQgAAEIQAACEIBA1gggxMqapkRFIAABCEAAAhCAAAQgAIHMCyDEynwboAQQgAAEIAABCEAAAhCAQNYIIMTKmqZERSAAAQhAAAIQgAAEIACBzAsgxMp8G6AEEIAABCAAAQhAAAIQgEDWCCDEypqmREUgAAEIQAACEIAABCAAgcwLIMTKfBugBBCAAAQgAAEIQAACEIBA1gggxMqapkRFIAABCEAAAhCAAAQgAIHMC/w3xIrgAwEIQAACEIAABCAAAQhAAAIqCSDEUgkS2UAAAhCAAAQgAAEIQAACEMBVLPQBCEAAAhCAAAQgAAEIQAACKgrgKpaKmMgKAhCAAAQgAAEIQAACEMh1AYRYud4DUH8IQAACEIAABCAAAQhAQEUBhFgqYiIrCEAAAhCAAAQgAAHpWEpwAAAOIklEQVQIQCDXBRBi5XoPQP0hAAEIQAACEIAABCAAARUFEGKpiImsIAABCEAAAhCAAAQgAIFcF0CIles9APWHAAQgAAEIQAACEIAABFQUQIilIiayggAEIAABCEAAAhCAAARyXQAhVq73ANQfAhCAAAQgAAEIQAACEFBRACGWipjICgIQgAAEIAABCEAAAhDIdQGEWLneA1B/CEAAAhCAAAQgAAEIQEBFAYRYKmIiKwhAAAIQgAAEIAABCEAg1wWUQqz19XWr1ep2u+VIq6urTU1NHMexLFtbWzszMxMOh2myvb290dHR2tpag8HAMExFRYXH4wkGgzSBZOL58+dGo9Fut0vmZ/xPu93O/PVjNpu3traiFkyztYha2qgzFVo8anrMpALhcHh8fPyTTz5hWZbjuG+//XZ9fZ1+mzsTwWDQ5XJZrdbd3V1xreMZE7LGMBZCJBLZ3d3t7u4uLi5mGKa4uLi7u1sCFQwGPR5PRUUFwzA8z7e3t+dmRxJ3nkSns6YjJVpxSXqFfkhTLi4uVldXT05O0jmRSGRnZ6ejo6OiooL9+Dlz5szIyMje3p44DabTJoD9ctqoxSvCViDWyM3pg+9KoodYfr//wYMHPM8zDCMPsebn54uLi81mc19f3+DgoNls5jhufHyctsHg4ODhw4cbGho8Ho/X662vr2dZ1ul0hkIhmoZO7O7uNjY2MgyjtRArGAxardaysjKHw+H88/Pw4UNBEGjh6YRma0FLqDyh3OLKy+LbcDjsdrsPHz5ssVi8Xm9HRwfP81VVVTl1cBwKhUZGRsxmM8MwjY2Nkshh3zEhOwyVET58+GC1Wg0Gg91u9/l8drvdYDBYrdYPHz6QjSgUCjmdTpZlbTabz+fLzY50wPEkOzrSARGU+yHJfG1tzeFwkNOgkhBrYWHhyy+//O6778bGxjweT21tLcuybrdbfCL1gCXE4vEIYL8cj1KK0mArSBGsXrJVZVcSJcS6d++ewWDged5ischDrGAwePnyZfHh4/r6elVV1f9r79xe2njaOP6H7cV6EcjFIiFFtz8pgqShhdBAxZ5SLFoirULbSIyi9EJz0UhTTN8gtBgspqS2KRWsB7QHUzVgG0PM/gsvb4ffsJk9ZOPGvJvJd69mdmdmdz7zzDPz7JwCgUCxWCTsMpnM1tYW5VipVCYnJ7u7uzc3N+lN6shkMi6XSxRFp5lYxGoKh8Mm42/OzwX9QhOHeYmbRMQjQmBvb0+WZfVPhGw263a7Z2dnO6RTks/nJUkSRfHu3bter1drYtXVCRwwrAtheXlZFMXl5WUiNtVq9eXLl4IgZDIZciefz7tcrufPn1OxWV1ddblc8Xgcdc0iAQ4EyWJOjYLVlcNyufzo0SNRFHt7e+/cuSMIAmNiMSn/+fMnFAoNDAwUCgXmEbwXRwDt8sWxPUfKqAXngNbWUZrSlOiYWDMzM7Ozs8fHx7lcTmtibW5udnd3p9NpNbt0Oi2KoomaXl9fV/ctaNzDw8NAIBCJRAYGBhxoYoVCIStf5eRcUNQmDvMSN4mIR4TAixcvZFne29ujQMifiKtXrx4dHdGbHDvW19dDodDXr1+Pjo58Pp/WxNLmndEJHDCsCyEajXq93u3tbUpje3vb6/XSmQKpVIrp7x4fH/t8PitaiKbZ4Q4OBMlmCdaVw1KpND4+nkgkSqVSMplkRE737clkkhFd3WC42UQCaJebCLMpSaEWNAVjuyTSlKZEx8Si+dc1sVKplMfjUQ9SKYqytbXl8XgWFxdpXMaxsbEhSVIqlVLfr1QqMzMzwWBwd3fXgd0Ii50bh+dCDbyuW7fE68bq8ABkQmkoFGKmxi0uLmprCvesSK2xYmKpdQJnDI0gLC8vS5L0+fNnKgZkAScd1yKjWG/fvqUByI+0ubk5egcOEwKcCZJJTq08MpJDdVyYWGoaznSjXXZIucDEckhBtOAzmtWUNGxiRSIR7ZYPda2RdDrtcrny+bwaTTab9Xq9uVyubnR1rJa5yVfRH8xG73V4Low+W/c+VLkuFvObRtJLYJoM7Zon26ZPCQ0rJpZaJ3DG0AgCWYsVCAR2dnbOzs52dnb8fr92LVZfX9/Hjx/Pzs4KhUIoFFLPym5TqWjZZ3MmSDa5GcmhOlkrJlalUpmYmLh9+zZdNKhOAe6LJoB2+aIJW0kftcAKJW7CNKspaczEKpfL4XDY7/fTZVcEKPkao2VLZLEWo6DJTbJ8xSgz/9/S+vbt2z///CP8vbq6uoLB4MrKCrMuy/m5aIghVHlDuEhgIifRaJSJS2DSAQrmKa9eK706RVEYncAZQxMIxWJxcHBQ+PcaHBxkdOnp6en4+Pi/z/+3Hat6AiqvYtOsfHEmSDaxmMghTdncxKpWq4VCIRaLXbp06dOnTzQWHK0kgHa5lbS170It0DLh/k6zmpLGTCyyA4T2F7WJKj85ORkeHpZlWT23sFQqjYyMBAKBw8NDRVFIdKetNygUCvPz85m/1/T09JUrVwRBmJiYoPPB2iIXDdUEqPKGcJHAzHIamkJnwjRRBZSMVidwxtAIwvHxcSgU6u3tTSQSa2trZMPAhw8f0sGB09PTZ8+eSZI0Nze3traWSCR6e3uDwWBHbU1J5eQcDs4E6RwE1FGM5FAdxsjEIupL+HvdunXrx48f6lhwt5JAZzYlrSRs9C7UAiMy3N9vVlNyHhNraGiI2bicqPLx8XFmW3Zy5kZfX596L0GyE+Lly5ep0UWiO83EYmSoXC5Ho1FRFN+9e6coSpvmgskU44UqZ4BY8ZKqqN3zjcCkm8VZSYqDMHV7dbo6gTOGuhAqlUo0GmV+NpEDMGZmZojmTCaTzAEYZLhvZGSE/tnhQEguLgucCZJNULpyyKRpZGIdHR2t/b3i8fi1a9e6uroSiQTTvjNJwXtBBNAuXxDYusmiFtRFxGuAZjUljZlYiqJYXItVrVZXVlYkSRobG2PO6s1ms5IkqSdQtYWJpSgKWXpOpoS1by5MqgRUuQkco0dG0ktgYi0W5WaiEzhjqNu1PTg46O/vZzauqFars7Oz/f39BwcHv3//Hhoa0k63TqfTkiRtbGxQknAYEeBMkIyyafG+rhwycY1MLHUwej6MutVWB4D7QgmgXb5QvBYTRy2wCIqPYM1qSho2seLxeE9Pz+7urpoj2VGQbhhIZFGSpNevXzNHwtMjegWDy8ljWRR6W+dCXXCMG6qcAWLFS3rGDx48YNbpLS4uamuKlQTbOoxRr85EJyiKwhlDXQjkr5h2+xy6SxVVL4wAdKatzkCw6OVMkCzm2iiYrhwyga2YWIqiHB4eOvBgFSYvvHrRLjukZFELHFIQLfiMZjUlDZtYuVxOFEVm+lM6nVafLJzL5bxe7+rqKj1AkxIpl8uvXr2K1V5Pnz7t7u72+/2xWOzNmzc0sNMcdAPlts6FCVWochM4Ro+q1erk5CQZiKBhyLlYzBYv9CnHDqNenYlOINNueWKoC2F3d7enp4c5jZqMYhFTvFgs+v3+0dFRxlYnpw6ur69zLDbNyhoqo5qkrhyqAyiKAhOLAeJAL9plhxQKTCyHFEQLPqNZTUnDJlaxWAwGgzdu3KDT/8hqgbGxMdIzILsOajsKJlBIS+Dk8StFUcrlciQSUVuSTI7aIhfMNzNeqHIGiEVvPp93u91zc3N0zFY7j9RiUu0eTLdXZ0Un8MTQCMLo6CizFmtzc1OWZaItibnFrMX6+fPn9evXA4EAs/Fgu8vJxX0/T4Jkk5KuHDJpak2sUqm0tLR0cnJCQ9IpUmQdMr0PR2sIoF1uDWf1W1AL1DQ6092UpqRhE0tRlGw263a7fT7ff/5ePp9P3W8gap0MSdUOVsUWFhaYfTJIyZEoTjOxUqnU8PBwMplcW1uLx+M+n08UxWQyqR2ac3IuGqobUOUN4aKBK5VKLBYTRXFkZCSTyZCd4tTnHdGQ3Dt0e3VWdAJPDHUhkCPaZVmWJOnJkydLS0uPHz92u91q5Ul+V3V1dYXD4VQqFYlEPB4PY3RxL0I2M8iTINlEYSSH6mR1Taz79+97PJ7p6enV1dVkMnnz5k1RFMkJK+q4cLeGANrl1nBWv4UsBkEtUDPpNHdTmpLzmFiKonz58iUYDIqi6Ha7w+Hw9+/fKX2i1gW9S3tmMYlFojjNxHr//j3ZSUkQBLfbfe/evY2NDSP7yrFbz9NyseKAKrdCSTdMpVJZWlqSZVkQBFmWFxYWTk9PdUPyfVO3V2dRJ3DDUBcCKfdfv35NTU1JkiQIgiRJU1NTzIbspVJpfn6eCBLRrvv7+3zLTNNzx40g2SRjIoc0Za2JpSjK/v5+OBwmUkravg8fPtAhehoXjtYQQLvcGs7MW1ALGCAd6LXflJiZWB0IFFkGARAAARAAARAAARAAARAAATsEYGLZoYe4IAACIAACIAACIAACIAACIFBDACZWDQ54QAAEQAAEQAAEQAAEQAAEQMAOAZhYdughLgiAAAiAAAiAAAiAAAiAAAjUEICJVYMDHhAAARAAARAAARAAARAAARCwQwAmlh16iAsCIAACIAACIAACIAACIAACNQRgYtXggAcEQAAEQAAEQAAEQAAEQAAE7BCAiWWHHuKCAAiAAAiAAAiAAAiAAAiAQA0BmFg1OOABARAAARAAARAAARAAARAAATsEYGLZoYe4IAACIAACIAACIAACIAACIFBDACZWDQ54QAAEQAAEQAAEQAAEQAAEQMAOAZhYdughLgiAAAiAAAiAAAiAAAiAAAjUEICJVYMDHhAAARAAARAAARAAARAAARCwQwAmlh16iAsCIAACIAACIAACIAACIAACNQT+C/Acl6yTj4xHAAAAAElFTkSuQmCC;" parent="1" vertex="1">
                    <mxGeometry x="147.9953846153843" y="1192.4978861177885" width="1142" height="480" as="geometry"/>
                </mxCell>
                <mxCell id="4" value="" style="rounded=0;whiteSpace=wrap;html=1;hachureGap=4;fontFamily=Architects Daughter;fontSource=https%3A%2F%2Ffonts.googleapis.com%2Fcss%3Ffamily%3DArchitects%2BDaughter;fontSize=20;" parent="1" vertex="1">
                    <mxGeometry x="118" y="174" width="620" height="280" as="geometry"/>
                </mxCell>
                <mxCell id="3" value="" style="rounded=0;whiteSpace=wrap;html=1;hachureGap=4;fontFamily=Architects Daughter;fontSource=https%3A%2F%2Ffonts.googleapis.com%2Fcss%3Ffamily%3DArchitects%2BDaughter;fontSize=20;" parent="1" vertex="1">
                    <mxGeometry x="168" y="304" width="560" height="140" as="geometry"/>
                </mxCell>
                <mxCell id="5" value="&lt;b&gt;人工智能&amp;nbsp;&lt;/b&gt;&lt;span lang=&quot;en&quot;&gt;&lt;b&gt;artificial intelligence&lt;/b&gt;&lt;br&gt;&lt;div style=&quot;text-align: left;&quot;&gt;&lt;span style=&quot;font-size: 16px; background-color: initial;&quot;&gt;人工智能是一门让机器表现出类似人类智能行为的学科，旨在使机器能够执行诸如推理、学习、规划、决策和语言理解等任务。&lt;/span&gt;&lt;/div&gt;&lt;/span&gt;" style="text;html=1;strokeColor=none;fillColor=none;align=center;verticalAlign=middle;whiteSpace=wrap;rounded=0;hachureGap=4;fontFamily=Helvetica;fontSize=20;" parent="1" vertex="1">
                    <mxGeometry x="68" y="57" width="670" height="80" as="geometry"/>
                </mxCell>
                <mxCell id="6" value="&lt;b&gt;机器学习&amp;nbsp;&lt;/b&gt;&lt;span lang=&quot;en&quot;&gt;&lt;b&gt;machine learning&lt;/b&gt;&lt;br&gt;&lt;div style=&quot;text-align: left;&quot;&gt;&lt;span style=&quot;font-size: 16px; background-color: initial;&quot;&gt;机器学习是人工智能的一个子领域，强调通过数据训练模型，使其在没有明确编程规则的情况下，学会从数据中识别模式并做出预测或决策。&lt;/span&gt;&lt;/div&gt;&lt;/span&gt;" style="text;html=1;strokeColor=none;fillColor=none;align=center;verticalAlign=middle;whiteSpace=wrap;rounded=0;hachureGap=4;fontFamily=Helvetica;fontSize=20;" parent="1" vertex="1">
                    <mxGeometry x="128" y="174" width="600" height="80" as="geometry"/>
                </mxCell>
                <mxCell id="7" value="&lt;b&gt;深度学习&amp;nbsp;&lt;/b&gt;&lt;span style=&quot;&quot; lang=&quot;en&quot;&gt;&lt;span style=&quot;font-size: 19px;&quot;&gt;&lt;b&gt;deep learning&lt;/b&gt;&lt;/span&gt;&lt;br&gt;&lt;div style=&quot;text-align: left;&quot;&gt;&lt;font style=&quot;background-color: initial; font-size: 16px;&quot;&gt;深度学习是机器学习的一个子领域，主要关注使用多层神经网络（深度神经网络）来从大量数据中提取特征和进行复杂任务处理&lt;/font&gt;&lt;font style=&quot;background-color: initial; font-size: 16px;&quot;&gt;。&lt;/font&gt;&lt;/div&gt;&lt;/span&gt;" style="text;html=1;strokeColor=none;fillColor=none;align=center;verticalAlign=middle;whiteSpace=wrap;rounded=0;hachureGap=4;fontFamily=Helvetica;fontSize=20;" parent="1" vertex="1">
                    <mxGeometry x="173" y="304" width="550" height="80" as="geometry"/>
                </mxCell>
                <mxCell id="51" value="图像处理与计算机视觉" style="swimlane;fontStyle=0;childLayout=stackLayout;horizontal=1;startSize=30;horizontalStack=0;resizeParent=1;resizeParentMax=0;resizeLast=0;collapsible=1;marginBottom=0;whiteSpace=wrap;html=1;hachureGap=4;fontFamily=Helvetica;fontSize=20;" parent="1" vertex="1">
                    <mxGeometry x="122" y="548" width="344" height="180" as="geometry"/>
                </mxCell>
                <mxCell id="52" value="&lt;strong&gt;图像分类&lt;/strong&gt;：识别图像中的主要对象" style="text;strokeColor=none;fillColor=none;align=left;verticalAlign=middle;spacingLeft=4;spacingRight=4;overflow=hidden;points=[[0,0.5],[1,0.5]];portConstraint=eastwest;rotatable=0;whiteSpace=wrap;html=1;fontSize=16;hachureGap=4;fontFamily=Helvetica;" parent="51" vertex="1">
                    <mxGeometry y="30" width="344" height="30" as="geometry"/>
                </mxCell>
                <mxCell id="53" value="&lt;strong&gt;目标检测&lt;/strong&gt;：如自动驾驶中的行人和障碍物检测" style="text;strokeColor=none;fillColor=none;align=left;verticalAlign=middle;spacingLeft=4;spacingRight=4;overflow=hidden;points=[[0,0.5],[1,0.5]];portConstraint=eastwest;rotatable=0;whiteSpace=wrap;html=1;fontSize=16;hachureGap=4;fontFamily=Helvetica;" parent="51" vertex="1">
                    <mxGeometry y="60" width="344" height="30" as="geometry"/>
                </mxCell>
                <mxCell id="54" value="&lt;strong&gt;人脸识别&lt;/strong&gt;：用于安防、支付认证" style="text;strokeColor=none;fillColor=none;align=left;verticalAlign=middle;spacingLeft=4;spacingRight=4;overflow=hidden;points=[[0,0.5],[1,0.5]];portConstraint=eastwest;rotatable=0;whiteSpace=wrap;html=1;fontSize=16;hachureGap=4;fontFamily=Helvetica;" parent="51" vertex="1">
                    <mxGeometry y="90" width="344" height="30" as="geometry"/>
                </mxCell>
                <mxCell id="56" value="&lt;strong&gt;图像分割&lt;/strong&gt;：医疗影像分析中的病灶检测" style="text;strokeColor=none;fillColor=none;align=left;verticalAlign=middle;spacingLeft=4;spacingRight=4;overflow=hidden;points=[[0,0.5],[1,0.5]];portConstraint=eastwest;rotatable=0;whiteSpace=wrap;html=1;fontSize=16;hachureGap=4;fontFamily=Helvetica;" parent="51" vertex="1">
                    <mxGeometry y="120" width="344" height="30" as="geometry"/>
                </mxCell>
                <mxCell id="55" value="&lt;strong&gt;图像生成&lt;/strong&gt;：生成高质量图像或进行风格迁移" style="text;strokeColor=none;fillColor=none;align=left;verticalAlign=middle;spacingLeft=4;spacingRight=4;overflow=hidden;points=[[0,0.5],[1,0.5]];portConstraint=eastwest;rotatable=0;whiteSpace=wrap;html=1;fontSize=16;hachureGap=4;fontFamily=Helvetica;" parent="51" vertex="1">
                    <mxGeometry y="150" width="344" height="30" as="geometry"/>
                </mxCell>
                <mxCell id="57" value="自然语言处理" style="swimlane;fontStyle=0;childLayout=stackLayout;horizontal=1;startSize=30;horizontalStack=0;resizeParent=1;resizeParentMax=0;resizeLast=0;collapsible=1;marginBottom=0;whiteSpace=wrap;html=1;hachureGap=4;fontFamily=Helvetica;fontSize=20;" parent="1" vertex="1">
                    <mxGeometry x="481" y="548" width="363" height="180" as="geometry"/>
                </mxCell>
                <mxCell id="58" value="&lt;strong&gt;文本分类&lt;/strong&gt;：垃圾邮件检测、情感分析" style="text;strokeColor=none;fillColor=none;align=left;verticalAlign=middle;spacingLeft=4;spacingRight=4;overflow=hidden;points=[[0,0.5],[1,0.5]];portConstraint=eastwest;rotatable=0;whiteSpace=wrap;html=1;fontSize=16;hachureGap=4;fontFamily=Helvetica;" parent="57" vertex="1">
                    <mxGeometry y="30" width="363" height="30" as="geometry"/>
                </mxCell>
                <mxCell id="59" value="&lt;strong&gt;机器翻译&lt;/strong&gt;：如 Google 翻译、DeepL" style="text;strokeColor=none;fillColor=none;align=left;verticalAlign=middle;spacingLeft=4;spacingRight=4;overflow=hidden;points=[[0,0.5],[1,0.5]];portConstraint=eastwest;rotatable=0;whiteSpace=wrap;html=1;fontSize=16;hachureGap=4;fontFamily=Helvetica;" parent="57" vertex="1">
                    <mxGeometry y="60" width="363" height="30" as="geometry"/>
                </mxCell>
                <mxCell id="60" value="&lt;strong&gt;语音识别&lt;/strong&gt;：语音转文字，如智能助手中的语音输入" style="text;strokeColor=none;fillColor=none;align=left;verticalAlign=middle;spacingLeft=4;spacingRight=4;overflow=hidden;points=[[0,0.5],[1,0.5]];portConstraint=eastwest;rotatable=0;whiteSpace=wrap;html=1;fontSize=16;hachureGap=4;fontFamily=Helvetica;" parent="57" vertex="1">
                    <mxGeometry y="90" width="363" height="30" as="geometry"/>
                </mxCell>
                <mxCell id="61" value="&lt;strong&gt;聊天机器人&lt;/strong&gt;：用于客户服务、教育等领域" style="text;strokeColor=none;fillColor=none;align=left;verticalAlign=middle;spacingLeft=4;spacingRight=4;overflow=hidden;points=[[0,0.5],[1,0.5]];portConstraint=eastwest;rotatable=0;whiteSpace=wrap;html=1;fontSize=16;hachureGap=4;fontFamily=Helvetica;" parent="57" vertex="1">
                    <mxGeometry y="120" width="363" height="30" as="geometry"/>
                </mxCell>
                <mxCell id="62" value="&lt;strong&gt;文本生成&lt;/strong&gt;：创作新闻、摘要或代码生成" style="text;strokeColor=none;fillColor=none;align=left;verticalAlign=middle;spacingLeft=4;spacingRight=4;overflow=hidden;points=[[0,0.5],[1,0.5]];portConstraint=eastwest;rotatable=0;whiteSpace=wrap;html=1;fontSize=16;hachureGap=4;fontFamily=Helvetica;" parent="57" vertex="1">
                    <mxGeometry y="150" width="363" height="30" as="geometry"/>
                </mxCell>
                <mxCell id="63" value="推荐系统" style="swimlane;fontStyle=0;childLayout=stackLayout;horizontal=1;startSize=30;horizontalStack=0;resizeParent=1;resizeParentMax=0;resizeLast=0;collapsible=1;marginBottom=0;whiteSpace=wrap;html=1;hachureGap=4;fontFamily=Helvetica;fontSize=20;" parent="1" vertex="1">
                    <mxGeometry x="120" y="752" width="349" height="150" as="geometry"/>
                </mxCell>
                <mxCell id="64" value="&lt;strong&gt;电商平台&lt;/strong&gt;：商品推荐" style="text;strokeColor=none;fillColor=none;align=left;verticalAlign=middle;spacingLeft=4;spacingRight=4;overflow=hidden;points=[[0,0.5],[1,0.5]];portConstraint=eastwest;rotatable=0;whiteSpace=wrap;html=1;fontSize=16;hachureGap=4;fontFamily=Helvetica;" parent="63" vertex="1">
                    <mxGeometry y="30" width="349" height="30" as="geometry"/>
                </mxCell>
                <mxCell id="65" value="&lt;strong&gt;内容平台&lt;/strong&gt;：个性化视频推荐" style="text;strokeColor=none;fillColor=none;align=left;verticalAlign=middle;spacingLeft=4;spacingRight=4;overflow=hidden;points=[[0,0.5],[1,0.5]];portConstraint=eastwest;rotatable=0;whiteSpace=wrap;html=1;fontSize=16;hachureGap=4;fontFamily=Helvetica;" parent="63" vertex="1">
                    <mxGeometry y="60" width="349" height="30" as="geometry"/>
                </mxCell>
                <mxCell id="66" value="&lt;strong&gt;音乐流媒体&lt;/strong&gt;：歌单生成" style="text;strokeColor=none;fillColor=none;align=left;verticalAlign=middle;spacingLeft=4;spacingRight=4;overflow=hidden;points=[[0,0.5],[1,0.5]];portConstraint=eastwest;rotatable=0;whiteSpace=wrap;html=1;fontSize=16;hachureGap=4;fontFamily=Helvetica;" parent="63" vertex="1">
                    <mxGeometry y="90" width="349" height="30" as="geometry"/>
                </mxCell>
                <mxCell id="67" value="&lt;strong&gt;社交网络&lt;/strong&gt;：好友推荐" style="text;strokeColor=none;fillColor=none;align=left;verticalAlign=middle;spacingLeft=4;spacingRight=4;overflow=hidden;points=[[0,0.5],[1,0.5]];portConstraint=eastwest;rotatable=0;whiteSpace=wrap;html=1;fontSize=16;hachureGap=4;fontFamily=Helvetica;" parent="63" vertex="1">
                    <mxGeometry y="120" width="349" height="30" as="geometry"/>
                </mxCell>
                <mxCell id="69" value="金融科技" style="swimlane;fontStyle=0;childLayout=stackLayout;horizontal=1;startSize=30;horizontalStack=0;resizeParent=1;resizeParentMax=0;resizeLast=0;collapsible=1;marginBottom=0;whiteSpace=wrap;html=1;hachureGap=4;fontFamily=Helvetica;fontSize=20;" parent="1" vertex="1">
                    <mxGeometry x="118" y="922" width="352" height="150" as="geometry"/>
                </mxCell>
                <mxCell id="70" value="&lt;strong&gt;信用评分&lt;/strong&gt;：评估用户的信用风险" style="text;strokeColor=none;fillColor=none;align=left;verticalAlign=middle;spacingLeft=4;spacingRight=4;overflow=hidden;points=[[0,0.5],[1,0.5]];portConstraint=eastwest;rotatable=0;whiteSpace=wrap;html=1;fontSize=16;hachureGap=4;fontFamily=Helvetica;" parent="69" vertex="1">
                    <mxGeometry y="30" width="352" height="30" as="geometry"/>
                </mxCell>
                <mxCell id="71" value="&lt;strong&gt;欺诈检测&lt;/strong&gt;：实时监测异常交易行为" style="text;strokeColor=none;fillColor=none;align=left;verticalAlign=middle;spacingLeft=4;spacingRight=4;overflow=hidden;points=[[0,0.5],[1,0.5]];portConstraint=eastwest;rotatable=0;whiteSpace=wrap;html=1;fontSize=16;hachureGap=4;fontFamily=Helvetica;" parent="69" vertex="1">
                    <mxGeometry y="60" width="352" height="30" as="geometry"/>
                </mxCell>
                <mxCell id="72" value="&lt;strong&gt;量化交易&lt;/strong&gt;：基于算法预测市场趋势并执行交易" style="text;strokeColor=none;fillColor=none;align=left;verticalAlign=middle;spacingLeft=4;spacingRight=4;overflow=hidden;points=[[0,0.5],[1,0.5]];portConstraint=eastwest;rotatable=0;whiteSpace=wrap;html=1;fontSize=16;hachureGap=4;fontFamily=Helvetica;" parent="69" vertex="1">
                    <mxGeometry y="90" width="352" height="30" as="geometry"/>
                </mxCell>
                <mxCell id="73" value="&lt;strong&gt;风险管理&lt;/strong&gt;：预测金融市场风险，提高决策效率" style="text;strokeColor=none;fillColor=none;align=left;verticalAlign=middle;spacingLeft=4;spacingRight=4;overflow=hidden;points=[[0,0.5],[1,0.5]];portConstraint=eastwest;rotatable=0;whiteSpace=wrap;html=1;fontSize=16;hachureGap=4;fontFamily=Helvetica;" parent="69" vertex="1">
                    <mxGeometry y="120" width="352" height="30" as="geometry"/>
                </mxCell>
                <mxCell id="75" value="医疗与健康" style="swimlane;fontStyle=0;childLayout=stackLayout;horizontal=1;startSize=30;horizontalStack=0;resizeParent=1;resizeParentMax=0;resizeLast=0;collapsible=1;marginBottom=0;whiteSpace=wrap;html=1;hachureGap=4;fontFamily=Helvetica;fontSize=20;" parent="1" vertex="1">
                    <mxGeometry x="481" y="752" width="363" height="150" as="geometry"/>
                </mxCell>
                <mxCell id="76" value="&lt;strong&gt;疾病诊断&lt;/strong&gt;：分析医疗影像识别病变" style="text;strokeColor=none;fillColor=none;align=left;verticalAlign=middle;spacingLeft=4;spacingRight=4;overflow=hidden;points=[[0,0.5],[1,0.5]];portConstraint=eastwest;rotatable=0;whiteSpace=wrap;html=1;fontSize=16;hachureGap=4;fontFamily=Helvetica;" parent="75" vertex="1">
                    <mxGeometry y="30" width="363" height="30" as="geometry"/>
                </mxCell>
                <mxCell id="77" value="&lt;strong&gt;药物研发&lt;/strong&gt;：通过机器学习加速新药发现" style="text;strokeColor=none;fillColor=none;align=left;verticalAlign=middle;spacingLeft=4;spacingRight=4;overflow=hidden;points=[[0,0.5],[1,0.5]];portConstraint=eastwest;rotatable=0;whiteSpace=wrap;html=1;fontSize=16;hachureGap=4;fontFamily=Helvetica;" parent="75" vertex="1">
                    <mxGeometry y="60" width="363" height="30" as="geometry"/>
                </mxCell>
                <mxCell id="78" value="&lt;strong&gt;健康监测&lt;/strong&gt;：智能穿戴设备监测心率、睡眠等" style="text;strokeColor=none;fillColor=none;align=left;verticalAlign=middle;spacingLeft=4;spacingRight=4;overflow=hidden;points=[[0,0.5],[1,0.5]];portConstraint=eastwest;rotatable=0;whiteSpace=wrap;html=1;fontSize=16;hachureGap=4;fontFamily=Helvetica;" parent="75" vertex="1">
                    <mxGeometry y="90" width="363" height="30" as="geometry"/>
                </mxCell>
                <mxCell id="79" value="&lt;strong&gt;个性化医疗&lt;/strong&gt;：根据患者数据优化治疗方案" style="text;strokeColor=none;fillColor=none;align=left;verticalAlign=middle;spacingLeft=4;spacingRight=4;overflow=hidden;points=[[0,0.5],[1,0.5]];portConstraint=eastwest;rotatable=0;whiteSpace=wrap;html=1;fontSize=16;hachureGap=4;fontFamily=Helvetica;" parent="75" vertex="1">
                    <mxGeometry y="120" width="363" height="30" as="geometry"/>
                </mxCell>
                <mxCell id="80" value="自动驾驶与智能交通" style="swimlane;fontStyle=0;childLayout=stackLayout;horizontal=1;startSize=30;horizontalStack=0;resizeParent=1;resizeParentMax=0;resizeLast=0;collapsible=1;marginBottom=0;whiteSpace=wrap;html=1;hachureGap=4;fontFamily=Helvetica;fontSize=20;" parent="1" vertex="1">
                    <mxGeometry x="480" y="922" width="364" height="150" as="geometry"/>
                </mxCell>
                <mxCell id="81" value="&lt;strong&gt;自动驾驶&lt;/strong&gt;：自动驾驶汽车" style="text;strokeColor=none;fillColor=none;align=left;verticalAlign=middle;spacingLeft=4;spacingRight=4;overflow=hidden;points=[[0,0.5],[1,0.5]];portConstraint=eastwest;rotatable=0;whiteSpace=wrap;html=1;fontSize=16;hachureGap=4;fontFamily=Helvetica;" parent="80" vertex="1">
                    <mxGeometry y="30" width="364" height="30" as="geometry"/>
                </mxCell>
                <mxCell id="82" value="&lt;strong&gt;车道保持与避障&lt;/strong&gt;：使用机器学习处理传感器数据" style="text;strokeColor=none;fillColor=none;align=left;verticalAlign=middle;spacingLeft=4;spacingRight=4;overflow=hidden;points=[[0,0.5],[1,0.5]];portConstraint=eastwest;rotatable=0;whiteSpace=wrap;html=1;fontSize=16;hachureGap=4;fontFamily=Helvetica;" parent="80" vertex="1">
                    <mxGeometry y="60" width="364" height="30" as="geometry"/>
                </mxCell>
                <mxCell id="83" value="&lt;strong&gt;智能交通系统&lt;/strong&gt;：优化红绿灯调度，减少拥堵" style="text;strokeColor=none;fillColor=none;align=left;verticalAlign=middle;spacingLeft=4;spacingRight=4;overflow=hidden;points=[[0,0.5],[1,0.5]];portConstraint=eastwest;rotatable=0;whiteSpace=wrap;html=1;fontSize=16;hachureGap=4;fontFamily=Helvetica;" parent="80" vertex="1">
                    <mxGeometry y="90" width="364" height="30" as="geometry"/>
                </mxCell>
                <mxCell id="84" value="&lt;strong&gt;交通流预测&lt;/strong&gt;：预测交通状况，为导航提供实时优化" style="text;strokeColor=none;fillColor=none;align=left;verticalAlign=middle;spacingLeft=4;spacingRight=4;overflow=hidden;points=[[0,0.5],[1,0.5]];portConstraint=eastwest;rotatable=0;whiteSpace=wrap;html=1;fontSize=16;hachureGap=4;fontFamily=Helvetica;" parent="80" vertex="1">
                    <mxGeometry y="120" width="364" height="30" as="geometry"/>
                </mxCell>
                <mxCell id="105" value="" style="rounded=1;whiteSpace=wrap;html=1;hachureGap=4;fontFamily=Helvetica;fontSize=20;fillColor=none;strokeColor=#FF0000;strokeWidth=3;" parent="1" vertex="1">
                    <mxGeometry x="148" y="1316" width="1138" height="32" as="geometry"/>
                </mxCell>
                <mxCell id="106" value="" style="rounded=1;whiteSpace=wrap;html=1;hachureGap=4;fontFamily=Helvetica;fontSize=20;fillColor=none;strokeColor=#FF0000;strokeWidth=3;arcSize=0;" parent="1" vertex="1">
                    <mxGeometry x="751" y="1195" width="118" height="475" as="geometry"/>
                </mxCell>
                <mxCell id="107" value="" style="rounded=1;whiteSpace=wrap;html=1;hachureGap=4;fontFamily=Helvetica;fontSize=20;fillColor=none;strokeColor=#FF0000;strokeWidth=3;arcSize=0;" parent="1" vertex="1">
                    <mxGeometry x="1126" y="1192.5" width="161" height="477.5" as="geometry"/>
                </mxCell>
                <mxCell id="108" value="&lt;font style=&quot;font-size: 25px;&quot;&gt;样本&lt;/font&gt;" style="text;html=1;align=center;verticalAlign=middle;resizable=0;points=[];autosize=1;strokeColor=none;fillColor=none;fontSize=25;fontColor=#CC0000;" parent="1" vertex="1">
                    <mxGeometry x="80" y="1311" width="68" height="42" as="geometry"/>
                </mxCell>
                <mxCell id="109" value="&lt;font style=&quot;font-size: 25px;&quot;&gt;特征&lt;/font&gt;" style="text;html=1;align=center;verticalAlign=middle;resizable=0;points=[];autosize=1;strokeColor=none;fillColor=none;fontSize=20;fontColor=#CC0000;" parent="1" vertex="1">
                    <mxGeometry x="776" y="1153" width="68" height="42" as="geometry"/>
                </mxCell>
                <mxCell id="110" value="&lt;font style=&quot;font-size: 25px;&quot;&gt;标签&lt;/font&gt;" style="text;html=1;align=center;verticalAlign=middle;resizable=0;points=[];autosize=1;strokeColor=none;fillColor=none;fontSize=25;fontColor=#CC0000;" parent="1" vertex="1">
                    <mxGeometry x="1172.5" y="1150.5" width="68" height="42" as="geometry"/>
                </mxCell>
                <mxCell id="114" value="&lt;b&gt;有监督学习&lt;br&gt;&lt;/b&gt;&lt;font style=&quot;font-size: 10px;&quot;&gt;算法通过带标签的训练数据学习，从而能够预测未知数据的标签。每个训练样本都包含输入特征和对应的目标标签。&lt;/font&gt;" style="rounded=1;whiteSpace=wrap;html=1;" parent="1" vertex="1">
                    <mxGeometry x="280" y="1740" width="190" height="63" as="geometry"/>
                </mxCell>
                <mxCell id="115" value="&lt;b&gt;无监督学习&lt;br&gt;&lt;/b&gt;&lt;font style=&quot;font-size: 10px;&quot;&gt;算法通过输入数据中的内在结构或模式进行学习，通常用于数据探索和模式发现。&lt;/font&gt;" style="rounded=1;whiteSpace=wrap;html=1;" parent="1" vertex="1">
                    <mxGeometry x="280" y="1810" width="190" height="60" as="geometry"/>
                </mxCell>
                <mxCell id="116" value="&lt;b&gt;半监督学习&lt;br&gt;&lt;/b&gt;&lt;font style=&quot;font-size: 10px;&quot;&gt;结合了少量标签数据和大量无标签数据，通常用于标签数据稀缺但无标签数据丰富的场景。&lt;/font&gt;" style="rounded=1;whiteSpace=wrap;html=1;" parent="1" vertex="1">
                    <mxGeometry x="280" y="1880" width="190" height="60" as="geometry"/>
                </mxCell>
                <mxCell id="117" value="&lt;b&gt;强化学习&lt;br&gt;&lt;/b&gt;&lt;font style=&quot;font-size: 10px;&quot;&gt;&lt;font style=&quot;font-size: 10px;&quot;&gt;一&lt;/font&gt;&lt;font style=&quot;font-size: 10px;&quot;&gt;种基于奖励机制的学习方式，算法通过与环境交互获得反馈（奖励或惩罚），以最大化累积的奖励。&lt;/font&gt;&lt;/font&gt;" style="rounded=1;whiteSpace=wrap;html=1;" parent="1" vertex="1">
                    <mxGeometry x="280" y="1950" width="190" height="60" as="geometry"/>
                </mxCell>
                <mxCell id="121" value="按学习方式分类" style="rounded=1;whiteSpace=wrap;html=1;" parent="1" vertex="1">
                    <mxGeometry x="153" y="1856" width="103" height="37" as="geometry"/>
                </mxCell>
                <mxCell id="122" value="&lt;font style=&quot;font-size: 10px;&quot;&gt;&lt;strong&gt;分类 (Classification)&lt;/strong&gt;：预测一个样本所属的类别。&lt;/font&gt;" style="rounded=1;whiteSpace=wrap;html=1;" parent="1" vertex="1">
                    <mxGeometry x="470" y="1741" width="230" height="20" as="geometry"/>
                </mxCell>
                <mxCell id="123" value="&lt;font style=&quot;font-size: 10px;&quot;&gt;&lt;strong&gt;回归 (Regression)&lt;/strong&gt;：预测一个连续值。&lt;/font&gt;" style="rounded=1;whiteSpace=wrap;html=1;" parent="1" vertex="1">
                    <mxGeometry x="470" y="1761.5" width="230" height="20" as="geometry"/>
                </mxCell>
                <mxCell id="124" value="&lt;font style=&quot;font-size: 10px;&quot;&gt;&lt;strong&gt;聚类 (Clustering)&lt;/strong&gt;：将相似的样本归为一类。&lt;/font&gt;" style="rounded=1;whiteSpace=wrap;html=1;" parent="1" vertex="1">
                    <mxGeometry x="470" y="1810" width="230" height="20" as="geometry"/>
                </mxCell>
                <mxCell id="125" value="&lt;font style=&quot;font-size: 10px;&quot;&gt;&lt;strong&gt;降维 (Dimensionality Reduction)&lt;/strong&gt;：将高维数据映射到低维空间以进行可视化或分析。&lt;/font&gt;" style="rounded=1;whiteSpace=wrap;html=1;" parent="1" vertex="1">
                    <mxGeometry x="470" y="1830" width="230" height="30" as="geometry"/>
                </mxCell>
                <mxCell id="134" value="" style="shape=curlyBracket;whiteSpace=wrap;html=1;rounded=1;labelPosition=left;verticalLabelPosition=middle;align=right;verticalAlign=middle;fontSize=10;size=0.5;" parent="1" vertex="1">
                    <mxGeometry x="256" y="1741" width="21" height="269" as="geometry"/>
                </mxCell>
                <mxCell id="137" value="&lt;b&gt;线性模型&lt;br&gt;&lt;/b&gt;&lt;font style=&quot;font-size: 10px;&quot;&gt;假设特征和目标之间存在线性关系&lt;/font&gt;" style="rounded=1;whiteSpace=wrap;html=1;" parent="1" vertex="1">
                    <mxGeometry x="277" y="2109" width="190" height="63" as="geometry"/>
                </mxCell>
                <mxCell id="138" value="&lt;b&gt;非线性模型&lt;br&gt;&lt;/b&gt;&lt;font style=&quot;font-size: 10px;&quot;&gt;模型不假设数据之间的线性关系，能够学习复杂的、非线性的数据分布。&lt;/font&gt;" style="rounded=1;whiteSpace=wrap;html=1;" parent="1" vertex="1">
                    <mxGeometry x="277" y="2209" width="190" height="60" as="geometry"/>
                </mxCell>
                <mxCell id="141" value="按模型复杂度分类" style="rounded=1;whiteSpace=wrap;html=1;" parent="1" vertex="1">
                    <mxGeometry x="153" y="2172" width="103" height="37" as="geometry"/>
                </mxCell>
                <mxCell id="142" value="线性回归 (Linear Regression)" style="rounded=1;whiteSpace=wrap;html=1;" parent="1" vertex="1">
                    <mxGeometry x="467" y="2112" width="173" height="20" as="geometry"/>
                </mxCell>
                <mxCell id="143" value="逻辑回归 (Logistic Regression)" style="rounded=1;whiteSpace=wrap;html=1;" parent="1" vertex="1">
                    <mxGeometry x="467" y="2132" width="173" height="20" as="geometry"/>
                </mxCell>
                <mxCell id="144" value="支持向量机（线性SVM）" style="rounded=1;whiteSpace=wrap;html=1;" parent="1" vertex="1">
                    <mxGeometry x="467" y="2152" width="173" height="20" as="geometry"/>
                </mxCell>
                <mxCell id="146" value="" style="shape=curlyBracket;whiteSpace=wrap;html=1;rounded=1;labelPosition=left;verticalLabelPosition=middle;align=right;verticalAlign=middle;fontSize=10;size=0.5;" parent="1" vertex="1">
                    <mxGeometry x="256" y="2140" width="21" height="102" as="geometry"/>
                </mxCell>
                <mxCell id="149" value="K近邻 (K-Nearest Neighbors)" style="rounded=1;whiteSpace=wrap;html=1;" parent="1" vertex="1">
                    <mxGeometry x="467" y="2209" width="173" height="20" as="geometry"/>
                </mxCell>
                <mxCell id="150" value="决策树 (Decision Trees)" style="rounded=1;whiteSpace=wrap;html=1;" parent="1" vertex="1">
                    <mxGeometry x="467" y="2229" width="173" height="20" as="geometry"/>
                </mxCell>
                <mxCell id="151" value="随机森林 (Random Forests)" style="rounded=1;whiteSpace=wrap;html=1;" parent="1" vertex="1">
                    <mxGeometry x="467" y="2249" width="173" height="20" as="geometry"/>
                </mxCell>
                <mxCell id="152" value="神经网络 (Neural Networks)" style="rounded=1;whiteSpace=wrap;html=1;" parent="1" vertex="1">
                    <mxGeometry x="467" y="2269" width="173" height="20" as="geometry"/>
                </mxCell>
                <mxCell id="153" value="&lt;font style=&quot;font-size: 20px;&quot;&gt;收集数据&lt;/font&gt;" style="rounded=1;whiteSpace=wrap;html=1;fontSize=10;align=left;fontStyle=1;" parent="1" vertex="1">
                    <mxGeometry x="200" y="2440" width="340" height="70" as="geometry"/>
                </mxCell>
                <mxCell id="154" value="&lt;font style=&quot;font-size: 20px;&quot;&gt;数据清洗&lt;/font&gt;" style="rounded=1;whiteSpace=wrap;html=1;fontSize=10;align=left;fontStyle=1;" parent="1" vertex="1">
                    <mxGeometry x="614" y="2440" width="340" height="70" as="geometry"/>
                </mxCell>
                <mxCell id="178" style="edgeStyle=none;html=1;entryX=1;entryY=0.5;entryDx=0;entryDy=0;fontSize=16;strokeWidth=2;shape=flexArrow;exitX=0;exitY=0.5;exitDx=0;exitDy=0;" parent="1" source="155" target="164" edge="1">
                    <mxGeometry relative="1" as="geometry"/>
                </mxCell>
                <mxCell id="155" value="&lt;span style=&quot;font-size: 20px;&quot;&gt;特征工程&lt;/span&gt;" style="rounded=1;whiteSpace=wrap;html=1;fontSize=10;fontStyle=1;align=left;" parent="1" vertex="1">
                    <mxGeometry x="614" y="2560" width="340" height="70" as="geometry"/>
                </mxCell>
                <mxCell id="156" value="&lt;span style=&quot;font-size: 20px;&quot;&gt;模型训练&lt;/span&gt;" style="rounded=1;whiteSpace=wrap;html=1;fontSize=10;fontStyle=1;align=left;" parent="1" vertex="1">
                    <mxGeometry x="200" y="2680" width="340" height="70" as="geometry"/>
                </mxCell>
                <mxCell id="157" value="&lt;span style=&quot;font-size: 20px;&quot;&gt;模型评估&lt;/span&gt;" style="rounded=1;whiteSpace=wrap;html=1;fontSize=10;fontStyle=1;align=left;" parent="1" vertex="1">
                    <mxGeometry x="614" y="2680" width="340" height="70" as="geometry"/>
                </mxCell>
                <mxCell id="185" style="edgeStyle=none;html=1;entryX=1;entryY=0.5;entryDx=0;entryDy=0;fontSize=16;strokeWidth=2;shape=flexArrow;" parent="1" source="158" target="159" edge="1">
                    <mxGeometry relative="1" as="geometry"/>
                </mxCell>
                <mxCell id="158" value="&lt;span style=&quot;font-size: 20px;&quot;&gt;模型优化&lt;/span&gt;" style="rounded=1;whiteSpace=wrap;html=1;fontSize=10;fontStyle=1;align=left;" parent="1" vertex="1">
                    <mxGeometry x="614" y="2800" width="340" height="70" as="geometry"/>
                </mxCell>
                <mxCell id="159" value="&lt;span style=&quot;font-size: 20px;&quot;&gt;模型部署&lt;/span&gt;" style="rounded=1;whiteSpace=wrap;html=1;fontSize=10;fontStyle=1;align=left;" parent="1" vertex="1">
                    <mxGeometry x="200" y="2800" width="340" height="70" as="geometry"/>
                </mxCell>
                <mxCell id="164" value="&lt;span style=&quot;font-size: 20px;&quot;&gt;&lt;b&gt;选择算法&lt;/b&gt;&lt;/span&gt;" style="rounded=1;whiteSpace=wrap;html=1;fontSize=10;align=left;" parent="1" vertex="1">
                    <mxGeometry x="200" y="2560" width="340" height="70" as="geometry"/>
                </mxCell>
                <mxCell id="175" style="edgeStyle=orthogonalEdgeStyle;curved=1;html=1;entryX=0;entryY=0.5;entryDx=0;entryDy=0;fontSize=16;strokeWidth=2;shape=flexArrow;exitX=1;exitY=0.5;exitDx=0;exitDy=0;" parent="1" source="153" target="154" edge="1">
                    <mxGeometry relative="1" as="geometry"/>
                </mxCell>
                <mxCell id="166" value="&lt;span style=&quot;color: rgb(0, 0, 0); font-family: Helvetica; font-size: 16px; font-style: normal; font-variant-ligatures: normal; font-variant-caps: normal; font-weight: 400; letter-spacing: normal; orphans: 2; text-align: center; text-indent: 0px; text-transform: none; widows: 2; word-spacing: 0px; -webkit-text-stroke-width: 0px; background-color: rgb(251, 251, 251); text-decoration-thickness: initial; text-decoration-style: initial; text-decoration-color: initial; float: none; display: inline !important;&quot;&gt;收集用于训练和测试的数据集，确保数据代表了实际问题的不同方面。&lt;/span&gt;" style="text;whiteSpace=wrap;html=1;fontSize=16;" parent="1" vertex="1">
                    <mxGeometry x="290" y="2440" width="250" height="50" as="geometry"/>
                </mxCell>
                <mxCell id="187" style="edgeStyle=orthogonalEdgeStyle;html=1;entryX=1;entryY=0.5;entryDx=0;entryDy=0;strokeWidth=2;fontSize=16;exitX=1;exitY=0.5;exitDx=0;exitDy=0;curved=1;shape=flexArrow;" parent="1" source="167" target="174" edge="1">
                    <mxGeometry relative="1" as="geometry">
                        <Array as="points">
                            <mxPoint x="994" y="2475"/>
                            <mxPoint x="994" y="2595"/>
                        </Array>
                    </mxGeometry>
                </mxCell>
                <mxCell id="167" value="对数据进行清洗，去除掉一些脏数据和不可用的数据。" style="text;whiteSpace=wrap;html=1;fontSize=16;" parent="1" vertex="1">
                    <mxGeometry x="702" y="2450" width="252" height="50" as="geometry"/>
                </mxCell>
                <mxCell id="168" value="处理缺失值" style="rounded=1;whiteSpace=wrap;html=1;fontSize=16;fillColor=#f5f5f5;fontColor=#333333;strokeColor=#666666;" parent="1" vertex="1">
                    <mxGeometry x="614" y="2510" width="110" height="30" as="geometry"/>
                </mxCell>
                <mxCell id="169" value="处理异常值" style="rounded=1;whiteSpace=wrap;html=1;fontSize=16;fillColor=#f5f5f5;fontColor=#333333;strokeColor=#666666;" parent="1" vertex="1">
                    <mxGeometry x="724" y="2510" width="110" height="30" as="geometry"/>
                </mxCell>
                <mxCell id="170" value="处理重复值" style="rounded=1;whiteSpace=wrap;html=1;fontSize=16;fillColor=#f5f5f5;fontColor=#333333;strokeColor=#666666;" parent="1" vertex="1">
                    <mxGeometry x="834" y="2510" width="110" height="30" as="geometry"/>
                </mxCell>
                <mxCell id="171" value="特征选择" style="rounded=1;whiteSpace=wrap;html=1;fontSize=16;fillColor=#f5f5f5;fontColor=#333333;strokeColor=#666666;" parent="1" vertex="1">
                    <mxGeometry x="614" y="2630" width="110" height="30" as="geometry"/>
                </mxCell>
                <mxCell id="172" value="特征转换" style="rounded=1;whiteSpace=wrap;html=1;fontSize=16;fillColor=#f5f5f5;fontColor=#333333;strokeColor=#666666;" parent="1" vertex="1">
                    <mxGeometry x="724" y="2630" width="110" height="30" as="geometry"/>
                </mxCell>
                <mxCell id="173" value="特征构造" style="rounded=1;whiteSpace=wrap;html=1;fontSize=16;fillColor=#f5f5f5;fontColor=#333333;strokeColor=#666666;" parent="1" vertex="1">
                    <mxGeometry x="834" y="2630" width="110" height="30" as="geometry"/>
                </mxCell>
                <mxCell id="174" value="对数据进行转换和格式化，以确保它适合用于机器学习模型训练。" style="text;whiteSpace=wrap;html=1;fontSize=16;" parent="1" vertex="1">
                    <mxGeometry x="702" y="2570" width="252" height="50" as="geometry"/>
                </mxCell>
                <mxCell id="177" value="选择适合任务类型（分类、回归、聚类等）和数据特征的机器学习算法。" style="text;whiteSpace=wrap;html=1;fontSize=16;" parent="1" vertex="1">
                    <mxGeometry x="290" y="2560" width="250" height="70" as="geometry"/>
                </mxCell>
                <mxCell id="182" style="edgeStyle=none;html=1;entryX=0;entryY=0.5;entryDx=0;entryDy=0;fontSize=16;strokeWidth=2;shape=flexArrow;" parent="1" source="181" target="157" edge="1">
                    <mxGeometry relative="1" as="geometry"/>
                </mxCell>
                <mxCell id="181" value="使用训练数据集来训练模型，让模型从数据中学习规律或模式。" style="text;whiteSpace=wrap;html=1;fontSize=16;" parent="1" vertex="1">
                    <mxGeometry x="290" y="2690" width="250" height="50" as="geometry"/>
                </mxCell>
                <mxCell id="186" style="edgeStyle=orthogonalEdgeStyle;html=1;fontSize=16;exitX=0;exitY=0.5;exitDx=0;exitDy=0;entryX=0;entryY=0.5;entryDx=0;entryDy=0;strokeWidth=2;curved=1;shape=flexArrow;" parent="1" source="164" target="156" edge="1">
                    <mxGeometry relative="1" as="geometry">
                        <mxPoint x="240" y="2600" as="sourcePoint"/>
                        <mxPoint x="240.44000000000005" y="2678.76" as="targetPoint"/>
                        <Array as="points">
                            <mxPoint x="160" y="2595"/>
                            <mxPoint x="160" y="2715"/>
                        </Array>
                    </mxGeometry>
                </mxCell>
                <mxCell id="188" style="edgeStyle=orthogonalEdgeStyle;html=1;entryX=1;entryY=0.5;entryDx=0;entryDy=0;strokeWidth=2;fontSize=16;exitX=1;exitY=0.5;exitDx=0;exitDy=0;curved=1;shape=flexArrow;" parent="1" source="189" target="190" edge="1">
                    <mxGeometry relative="1" as="geometry">
                        <mxPoint x="1134" y="2700" as="sourcePoint"/>
                        <mxPoint x="1134" y="2820" as="targetPoint"/>
                        <Array as="points">
                            <mxPoint x="994" y="2715"/>
                            <mxPoint x="994" y="2835"/>
                        </Array>
                    </mxGeometry>
                </mxCell>
                <mxCell id="189" value="使用测试数据集评估模型的性能，确定其是否达到了预期的目标。" style="text;whiteSpace=wrap;html=1;fontSize=16;" parent="1" vertex="1">
                    <mxGeometry x="702" y="2692.5" width="252" height="45" as="geometry"/>
                </mxCell>
                <mxCell id="190" value="在确保模型具有较好性能的基础上，进一步提高模型的效果。" style="text;whiteSpace=wrap;html=1;fontSize=16;" parent="1" vertex="1">
                    <mxGeometry x="702" y="2810" width="252" height="50" as="geometry"/>
                </mxCell>
                <mxCell id="191" value="将训练好的模型部署到生产环境中，并实时监控其表现。" style="text;whiteSpace=wrap;html=1;fontSize=16;" parent="1" vertex="1">
                    <mxGeometry x="290" y="2810" width="250" height="50" as="geometry"/>
                </mxCell>
                <mxCell id="192" value="分类" style="rounded=1;whiteSpace=wrap;html=1;fontSize=16;fillColor=#f5f5f5;fontColor=#333333;strokeColor=#666666;" parent="1" vertex="1">
                    <mxGeometry x="200" y="2630" width="60" height="30" as="geometry"/>
                </mxCell>
                <mxCell id="193" value="回归" style="rounded=1;whiteSpace=wrap;html=1;fontSize=16;fillColor=#f5f5f5;fontColor=#333333;strokeColor=#666666;" parent="1" vertex="1">
                    <mxGeometry x="260" y="2630" width="60" height="30" as="geometry"/>
                </mxCell>
                <mxCell id="194" value="聚类" style="rounded=1;whiteSpace=wrap;html=1;fontSize=16;fillColor=#f5f5f5;fontColor=#333333;strokeColor=#666666;" parent="1" vertex="1">
                    <mxGeometry x="320" y="2630" width="60" height="30" as="geometry"/>
                </mxCell>
                <mxCell id="195" value="降维" style="rounded=1;whiteSpace=wrap;html=1;fontSize=16;fillColor=#f5f5f5;fontColor=#333333;strokeColor=#666666;" parent="1" vertex="1">
                    <mxGeometry x="380" y="2630" width="60" height="30" as="geometry"/>
                </mxCell>
                <mxCell id="196" value="分类任务评估" style="rounded=1;whiteSpace=wrap;html=1;fontSize=16;fillColor=#f5f5f5;fontColor=#333333;strokeColor=#666666;" parent="1" vertex="1">
                    <mxGeometry x="614" y="2750" width="110" height="30" as="geometry"/>
                </mxCell>
                <mxCell id="197" value="回归任务评估" style="rounded=1;whiteSpace=wrap;html=1;fontSize=16;fillColor=#f5f5f5;fontColor=#333333;strokeColor=#666666;" parent="1" vertex="1">
                    <mxGeometry x="724" y="2750" width="110" height="30" as="geometry"/>
                </mxCell>
                <mxCell id="198" value="聚类任务评估" style="rounded=1;whiteSpace=wrap;html=1;fontSize=16;fillColor=#f5f5f5;fontColor=#333333;strokeColor=#666666;" parent="1" vertex="1">
                    <mxGeometry x="834" y="2750" width="110" height="30" as="geometry"/>
                </mxCell>
                <mxCell id="199" value="超参数调优" style="rounded=1;whiteSpace=wrap;html=1;fontSize=16;fillColor=#f5f5f5;fontColor=#333333;strokeColor=#666666;" parent="1" vertex="1">
                    <mxGeometry x="614" y="2870" width="110" height="30" as="geometry"/>
                </mxCell>
                <mxCell id="200" value="模型集成" style="rounded=1;whiteSpace=wrap;html=1;fontSize=16;fillColor=#f5f5f5;fontColor=#333333;strokeColor=#666666;" parent="1" vertex="1">
                    <mxGeometry x="724" y="2870" width="110" height="30" as="geometry"/>
                </mxCell>
                <mxCell id="202" value="" style="endArrow=classic;html=1;" parent="1" edge="1">
                    <mxGeometry width="50" height="50" relative="1" as="geometry">
                        <mxPoint x="1290" y="453.05" as="sourcePoint"/>
                        <mxPoint x="1570" y="453.05" as="targetPoint"/>
                    </mxGeometry>
                </mxCell>
                <mxCell id="203" value="" style="endArrow=classic;html=1;" parent="1" edge="1">
                    <mxGeometry width="50" height="50" relative="1" as="geometry">
                        <mxPoint x="1290" y="453.05" as="sourcePoint"/>
                        <mxPoint x="1290" y="312" as="targetPoint"/>
                    </mxGeometry>
                </mxCell>
                <mxCell id="205" value="" style="shape=waypoint;fillStyle=solid;size=6;pointerEvents=1;points=[];fillColor=#fff2cc;resizable=0;rotatable=0;perimeter=centerPerimeter;snapToPoint=1;strokeColor=#d6b656;" parent="1" vertex="1">
                    <mxGeometry x="1320" y="354" width="20" height="20" as="geometry"/>
                </mxCell>
                <mxCell id="216" value="" style="shape=waypoint;fillStyle=solid;size=6;pointerEvents=1;points=[];fillColor=#fff2cc;resizable=0;rotatable=0;perimeter=centerPerimeter;snapToPoint=1;strokeColor=#d6b656;" parent="1" vertex="1">
                    <mxGeometry x="1340" y="374" width="20" height="20" as="geometry"/>
                </mxCell>
                <mxCell id="217" value="" style="shape=waypoint;fillStyle=solid;size=6;pointerEvents=1;points=[];fillColor=#fff2cc;resizable=0;rotatable=0;perimeter=centerPerimeter;snapToPoint=1;strokeColor=#d6b656;" parent="1" vertex="1">
                    <mxGeometry x="1320" y="374" width="20" height="20" as="geometry"/>
                </mxCell>
                <mxCell id="218" value="" style="shape=waypoint;fillStyle=solid;size=6;pointerEvents=1;points=[];fillColor=#fff2cc;resizable=0;rotatable=0;perimeter=centerPerimeter;snapToPoint=1;strokeColor=#d6b656;" parent="1" vertex="1">
                    <mxGeometry x="1430" y="384" width="20" height="20" as="geometry"/>
                </mxCell>
                <mxCell id="219" value="" style="shape=waypoint;fillStyle=solid;size=6;pointerEvents=1;points=[];fillColor=#fff2cc;resizable=0;rotatable=0;perimeter=centerPerimeter;snapToPoint=1;strokeColor=#d6b656;" parent="1" vertex="1">
                    <mxGeometry x="1420" y="374" width="20" height="20" as="geometry"/>
                </mxCell>
                <mxCell id="220" value="" style="shape=waypoint;fillStyle=solid;size=6;pointerEvents=1;points=[];fillColor=#fff2cc;resizable=0;rotatable=0;perimeter=centerPerimeter;snapToPoint=1;strokeColor=#d6b656;" parent="1" vertex="1">
                    <mxGeometry x="1370" y="394" width="20" height="20" as="geometry"/>
                </mxCell>
                <mxCell id="221" value="" style="shape=waypoint;fillStyle=solid;size=6;pointerEvents=1;points=[];fillColor=#fff2cc;resizable=0;rotatable=0;perimeter=centerPerimeter;snapToPoint=1;strokeColor=#d6b656;" parent="1" vertex="1">
                    <mxGeometry x="1340" y="354" width="20" height="20" as="geometry"/>
                </mxCell>
                <mxCell id="222" value="" style="shape=waypoint;fillStyle=solid;size=6;pointerEvents=1;points=[];fillColor=#fff2cc;resizable=0;rotatable=0;perimeter=centerPerimeter;snapToPoint=1;strokeColor=#d6b656;" parent="1" vertex="1">
                    <mxGeometry x="1370" y="364" width="20" height="20" as="geometry"/>
                </mxCell>
                <mxCell id="223" value="" style="shape=waypoint;fillStyle=solid;size=6;pointerEvents=1;points=[];fillColor=#fff2cc;resizable=0;rotatable=0;perimeter=centerPerimeter;snapToPoint=1;strokeColor=#d6b656;" parent="1" vertex="1">
                    <mxGeometry x="1350" y="384" width="20" height="20" as="geometry"/>
                </mxCell>
                <mxCell id="224" value="" style="shape=waypoint;fillStyle=solid;size=6;pointerEvents=1;points=[];fillColor=#fff2cc;resizable=0;rotatable=0;perimeter=centerPerimeter;snapToPoint=1;strokeColor=#d6b656;" parent="1" vertex="1">
                    <mxGeometry x="1400" y="404" width="20" height="20" as="geometry"/>
                </mxCell>
                <mxCell id="225" value="" style="shape=waypoint;fillStyle=solid;size=6;pointerEvents=1;points=[];fillColor=#fff2cc;resizable=0;rotatable=0;perimeter=centerPerimeter;snapToPoint=1;strokeColor=#d6b656;" parent="1" vertex="1">
                    <mxGeometry x="1390" y="384" width="20" height="20" as="geometry"/>
                </mxCell>
                <mxCell id="226" value="" style="shape=waypoint;fillStyle=solid;size=6;pointerEvents=1;points=[];fillColor=#fff2cc;resizable=0;rotatable=0;perimeter=centerPerimeter;snapToPoint=1;strokeColor=#d6b656;" parent="1" vertex="1">
                    <mxGeometry x="1430" y="364" width="20" height="20" as="geometry"/>
                </mxCell>
                <mxCell id="227" value="" style="shape=waypoint;fillStyle=solid;size=6;pointerEvents=1;points=[];fillColor=#fff2cc;resizable=0;rotatable=0;perimeter=centerPerimeter;snapToPoint=1;strokeColor=#d6b656;" parent="1" vertex="1">
                    <mxGeometry x="1450" y="354" width="20" height="20" as="geometry"/>
                </mxCell>
                <mxCell id="228" value="" style="shape=waypoint;fillStyle=solid;size=6;pointerEvents=1;points=[];fillColor=#fff2cc;resizable=0;rotatable=0;perimeter=centerPerimeter;snapToPoint=1;strokeColor=#d6b656;" parent="1" vertex="1">
                    <mxGeometry x="1460" y="364" width="20" height="20" as="geometry"/>
                </mxCell>
                <mxCell id="229" value="" style="shape=waypoint;fillStyle=solid;size=6;pointerEvents=1;points=[];fillColor=#fff2cc;resizable=0;rotatable=0;perimeter=centerPerimeter;snapToPoint=1;strokeColor=#d6b656;" parent="1" vertex="1">
                    <mxGeometry x="1480" y="354" width="20" height="20" as="geometry"/>
                </mxCell>
                <mxCell id="230" value="" style="shape=waypoint;fillStyle=solid;size=6;pointerEvents=1;points=[];fillColor=#fff2cc;resizable=0;rotatable=0;perimeter=centerPerimeter;snapToPoint=1;strokeColor=#d6b656;" parent="1" vertex="1">
                    <mxGeometry x="1480" y="334" width="20" height="20" as="geometry"/>
                </mxCell>
                <mxCell id="231" value="" style="shape=waypoint;fillStyle=solid;size=6;pointerEvents=1;points=[];fillColor=#fff2cc;resizable=0;rotatable=0;perimeter=centerPerimeter;snapToPoint=1;strokeColor=#d6b656;" parent="1" vertex="1">
                    <mxGeometry x="1470" y="354" width="20" height="20" as="geometry"/>
                </mxCell>
                <mxCell id="232" value="" style="shape=waypoint;fillStyle=solid;size=6;pointerEvents=1;points=[];fillColor=#fff2cc;resizable=0;rotatable=0;perimeter=centerPerimeter;snapToPoint=1;strokeColor=#d6b656;" parent="1" vertex="1">
                    <mxGeometry x="1450" y="374" width="20" height="20" as="geometry"/>
                </mxCell>
                <mxCell id="233" value="" style="shape=waypoint;fillStyle=solid;size=6;pointerEvents=1;points=[];fillColor=#fff2cc;resizable=0;rotatable=0;perimeter=centerPerimeter;snapToPoint=1;strokeColor=#d6b656;" parent="1" vertex="1">
                    <mxGeometry x="1500" y="334" width="20" height="20" as="geometry"/>
                </mxCell>
                <mxCell id="234" value="" style="shape=waypoint;fillStyle=solid;size=6;pointerEvents=1;points=[];fillColor=#fff2cc;resizable=0;rotatable=0;perimeter=centerPerimeter;snapToPoint=1;strokeColor=#d6b656;" parent="1" vertex="1">
                    <mxGeometry x="1470" y="334" width="20" height="20" as="geometry"/>
                </mxCell>
                <mxCell id="235" value="" style="shape=waypoint;fillStyle=solid;size=6;pointerEvents=1;points=[];fillColor=#fff2cc;resizable=0;rotatable=0;perimeter=centerPerimeter;snapToPoint=1;strokeColor=#d6b656;" parent="1" vertex="1">
                    <mxGeometry x="1420" y="394" width="20" height="20" as="geometry"/>
                </mxCell>
                <mxCell id="236" value="" style="shape=waypoint;fillStyle=solid;size=6;pointerEvents=1;points=[];fillColor=#fff2cc;resizable=0;rotatable=0;perimeter=centerPerimeter;snapToPoint=1;strokeColor=#d6b656;" parent="1" vertex="1">
                    <mxGeometry x="1400" y="384" width="20" height="20" as="geometry"/>
                </mxCell>
                <mxCell id="261" value="" style="endArrow=classic;html=1;" parent="1" edge="1">
                    <mxGeometry width="50" height="50" relative="1" as="geometry">
                        <mxPoint x="1290" y="679.9999999999998" as="sourcePoint"/>
                        <mxPoint x="1570" y="679.9999999999998" as="targetPoint"/>
                    </mxGeometry>
                </mxCell>
                <mxCell id="262" value="" style="endArrow=classic;html=1;" parent="1" edge="1">
                    <mxGeometry width="50" height="50" relative="1" as="geometry">
                        <mxPoint x="1290" y="679.9999999999998" as="sourcePoint"/>
                        <mxPoint x="1290" y="539" as="targetPoint"/>
                    </mxGeometry>
                </mxCell>
                <mxCell id="263" value="" style="shape=waypoint;fillStyle=solid;size=6;pointerEvents=1;points=[];fillColor=#fff2cc;resizable=0;rotatable=0;perimeter=centerPerimeter;snapToPoint=1;strokeColor=#d6b656;" parent="1" vertex="1">
                    <mxGeometry x="1320" y="580.95" width="20" height="20" as="geometry"/>
                </mxCell>
                <mxCell id="264" value="" style="shape=waypoint;fillStyle=solid;size=6;pointerEvents=1;points=[];fillColor=#fff2cc;resizable=0;rotatable=0;perimeter=centerPerimeter;snapToPoint=1;strokeColor=#d6b656;" parent="1" vertex="1">
                    <mxGeometry x="1340" y="600.95" width="20" height="20" as="geometry"/>
                </mxCell>
                <mxCell id="265" value="" style="shape=waypoint;fillStyle=solid;size=6;pointerEvents=1;points=[];fillColor=#fff2cc;resizable=0;rotatable=0;perimeter=centerPerimeter;snapToPoint=1;strokeColor=#d6b656;" parent="1" vertex="1">
                    <mxGeometry x="1320" y="600.95" width="20" height="20" as="geometry"/>
                </mxCell>
                <mxCell id="266" value="" style="shape=waypoint;fillStyle=solid;size=6;pointerEvents=1;points=[];fillColor=#fff2cc;resizable=0;rotatable=0;perimeter=centerPerimeter;snapToPoint=1;strokeColor=#d6b656;" parent="1" vertex="1">
                    <mxGeometry x="1430" y="610.95" width="20" height="20" as="geometry"/>
                </mxCell>
                <mxCell id="267" value="" style="shape=waypoint;fillStyle=solid;size=6;pointerEvents=1;points=[];fillColor=#fff2cc;resizable=0;rotatable=0;perimeter=centerPerimeter;snapToPoint=1;strokeColor=#d6b656;" parent="1" vertex="1">
                    <mxGeometry x="1420" y="600.95" width="20" height="20" as="geometry"/>
                </mxCell>
                <mxCell id="268" value="" style="shape=waypoint;fillStyle=solid;size=6;pointerEvents=1;points=[];fillColor=#fff2cc;resizable=0;rotatable=0;perimeter=centerPerimeter;snapToPoint=1;strokeColor=#d6b656;" parent="1" vertex="1">
                    <mxGeometry x="1370" y="620.95" width="20" height="20" as="geometry"/>
                </mxCell>
                <mxCell id="269" value="" style="shape=waypoint;fillStyle=solid;size=6;pointerEvents=1;points=[];fillColor=#fff2cc;resizable=0;rotatable=0;perimeter=centerPerimeter;snapToPoint=1;strokeColor=#d6b656;" parent="1" vertex="1">
                    <mxGeometry x="1340" y="580.95" width="20" height="20" as="geometry"/>
                </mxCell>
                <mxCell id="270" value="" style="shape=waypoint;fillStyle=solid;size=6;pointerEvents=1;points=[];fillColor=#fff2cc;resizable=0;rotatable=0;perimeter=centerPerimeter;snapToPoint=1;strokeColor=#d6b656;" parent="1" vertex="1">
                    <mxGeometry x="1370" y="590.95" width="20" height="20" as="geometry"/>
                </mxCell>
                <mxCell id="271" value="" style="shape=waypoint;fillStyle=solid;size=6;pointerEvents=1;points=[];fillColor=#fff2cc;resizable=0;rotatable=0;perimeter=centerPerimeter;snapToPoint=1;strokeColor=#d6b656;" parent="1" vertex="1">
                    <mxGeometry x="1350" y="610.95" width="20" height="20" as="geometry"/>
                </mxCell>
                <mxCell id="272" value="" style="shape=waypoint;fillStyle=solid;size=6;pointerEvents=1;points=[];fillColor=#fff2cc;resizable=0;rotatable=0;perimeter=centerPerimeter;snapToPoint=1;strokeColor=#d6b656;" parent="1" vertex="1">
                    <mxGeometry x="1400" y="630.95" width="20" height="20" as="geometry"/>
                </mxCell>
                <mxCell id="273" value="" style="shape=waypoint;fillStyle=solid;size=6;pointerEvents=1;points=[];fillColor=#fff2cc;resizable=0;rotatable=0;perimeter=centerPerimeter;snapToPoint=1;strokeColor=#d6b656;" parent="1" vertex="1">
                    <mxGeometry x="1390" y="610.95" width="20" height="20" as="geometry"/>
                </mxCell>
                <mxCell id="274" value="" style="shape=waypoint;fillStyle=solid;size=6;pointerEvents=1;points=[];fillColor=#fff2cc;resizable=0;rotatable=0;perimeter=centerPerimeter;snapToPoint=1;strokeColor=#d6b656;" parent="1" vertex="1">
                    <mxGeometry x="1430" y="590.95" width="20" height="20" as="geometry"/>
                </mxCell>
                <mxCell id="275" value="" style="shape=waypoint;fillStyle=solid;size=6;pointerEvents=1;points=[];fillColor=#fff2cc;resizable=0;rotatable=0;perimeter=centerPerimeter;snapToPoint=1;strokeColor=#d6b656;" parent="1" vertex="1">
                    <mxGeometry x="1450" y="580.95" width="20" height="20" as="geometry"/>
                </mxCell>
                <mxCell id="276" value="" style="shape=waypoint;fillStyle=solid;size=6;pointerEvents=1;points=[];fillColor=#fff2cc;resizable=0;rotatable=0;perimeter=centerPerimeter;snapToPoint=1;strokeColor=#d6b656;" parent="1" vertex="1">
                    <mxGeometry x="1460" y="590.95" width="20" height="20" as="geometry"/>
                </mxCell>
                <mxCell id="277" value="" style="shape=waypoint;fillStyle=solid;size=6;pointerEvents=1;points=[];fillColor=#fff2cc;resizable=0;rotatable=0;perimeter=centerPerimeter;snapToPoint=1;strokeColor=#d6b656;" parent="1" vertex="1">
                    <mxGeometry x="1480" y="580.95" width="20" height="20" as="geometry"/>
                </mxCell>
                <mxCell id="278" value="" style="shape=waypoint;fillStyle=solid;size=6;pointerEvents=1;points=[];fillColor=#fff2cc;resizable=0;rotatable=0;perimeter=centerPerimeter;snapToPoint=1;strokeColor=#d6b656;" parent="1" vertex="1">
                    <mxGeometry x="1480" y="560.95" width="20" height="20" as="geometry"/>
                </mxCell>
                <mxCell id="279" value="" style="shape=waypoint;fillStyle=solid;size=6;pointerEvents=1;points=[];fillColor=#fff2cc;resizable=0;rotatable=0;perimeter=centerPerimeter;snapToPoint=1;strokeColor=#d6b656;" parent="1" vertex="1">
                    <mxGeometry x="1470" y="580.95" width="20" height="20" as="geometry"/>
                </mxCell>
                <mxCell id="280" value="" style="shape=waypoint;fillStyle=solid;size=6;pointerEvents=1;points=[];fillColor=#fff2cc;resizable=0;rotatable=0;perimeter=centerPerimeter;snapToPoint=1;strokeColor=#d6b656;" parent="1" vertex="1">
                    <mxGeometry x="1450" y="600.95" width="20" height="20" as="geometry"/>
                </mxCell>
                <mxCell id="281" value="" style="shape=waypoint;fillStyle=solid;size=6;pointerEvents=1;points=[];fillColor=#fff2cc;resizable=0;rotatable=0;perimeter=centerPerimeter;snapToPoint=1;strokeColor=#d6b656;" parent="1" vertex="1">
                    <mxGeometry x="1500" y="560.95" width="20" height="20" as="geometry"/>
                </mxCell>
                <mxCell id="282" value="" style="shape=waypoint;fillStyle=solid;size=6;pointerEvents=1;points=[];fillColor=#fff2cc;resizable=0;rotatable=0;perimeter=centerPerimeter;snapToPoint=1;strokeColor=#d6b656;" parent="1" vertex="1">
                    <mxGeometry x="1470" y="560.95" width="20" height="20" as="geometry"/>
                </mxCell>
                <mxCell id="283" value="" style="shape=waypoint;fillStyle=solid;size=6;pointerEvents=1;points=[];fillColor=#fff2cc;resizable=0;rotatable=0;perimeter=centerPerimeter;snapToPoint=1;strokeColor=#d6b656;" parent="1" vertex="1">
                    <mxGeometry x="1420" y="620.95" width="20" height="20" as="geometry"/>
                </mxCell>
                <mxCell id="284" value="" style="shape=waypoint;fillStyle=solid;size=6;pointerEvents=1;points=[];fillColor=#fff2cc;resizable=0;rotatable=0;perimeter=centerPerimeter;snapToPoint=1;strokeColor=#d6b656;" parent="1" vertex="1">
                    <mxGeometry x="1400" y="610.95" width="20" height="20" as="geometry"/>
                </mxCell>
                <mxCell id="285" value="" style="endArrow=none;html=1;fillColor=#f8cecc;strokeColor=#b85450;" parent="1" edge="1">
                    <mxGeometry width="50" height="50" relative="1" as="geometry">
                        <mxPoint x="1329" y="393" as="sourcePoint"/>
                        <mxPoint x="1513" y="370" as="targetPoint"/>
                    </mxGeometry>
                </mxCell>
                <mxCell id="288" value="" style="endArrow=classic;html=1;" parent="1" edge="1">
                    <mxGeometry width="50" height="50" relative="1" as="geometry">
                        <mxPoint x="1290" y="939.9999999999998" as="sourcePoint"/>
                        <mxPoint x="1570" y="939.9999999999998" as="targetPoint"/>
                    </mxGeometry>
                </mxCell>
                <mxCell id="289" value="" style="endArrow=classic;html=1;" parent="1" edge="1">
                    <mxGeometry width="50" height="50" relative="1" as="geometry">
                        <mxPoint x="1290" y="939.9999999999998" as="sourcePoint"/>
                        <mxPoint x="1290" y="800" as="targetPoint"/>
                    </mxGeometry>
                </mxCell>
                <mxCell id="290" value="" style="shape=waypoint;fillStyle=solid;size=6;pointerEvents=1;points=[];fillColor=#fff2cc;resizable=0;rotatable=0;perimeter=centerPerimeter;snapToPoint=1;strokeColor=#d6b656;" parent="1" vertex="1">
                    <mxGeometry x="1320" y="840.95" width="20" height="20" as="geometry"/>
                </mxCell>
                <mxCell id="291" value="" style="shape=waypoint;fillStyle=solid;size=6;pointerEvents=1;points=[];fillColor=#fff2cc;resizable=0;rotatable=0;perimeter=centerPerimeter;snapToPoint=1;strokeColor=#d6b656;" parent="1" vertex="1">
                    <mxGeometry x="1340" y="860.95" width="20" height="20" as="geometry"/>
                </mxCell>
                <mxCell id="292" value="" style="shape=waypoint;fillStyle=solid;size=6;pointerEvents=1;points=[];fillColor=#fff2cc;resizable=0;rotatable=0;perimeter=centerPerimeter;snapToPoint=1;strokeColor=#d6b656;" parent="1" vertex="1">
                    <mxGeometry x="1320" y="860.95" width="20" height="20" as="geometry"/>
                </mxCell>
                <mxCell id="293" value="" style="shape=waypoint;fillStyle=solid;size=6;pointerEvents=1;points=[];fillColor=#fff2cc;resizable=0;rotatable=0;perimeter=centerPerimeter;snapToPoint=1;strokeColor=#d6b656;" parent="1" vertex="1">
                    <mxGeometry x="1430" y="870.95" width="20" height="20" as="geometry"/>
                </mxCell>
                <mxCell id="294" value="" style="shape=waypoint;fillStyle=solid;size=6;pointerEvents=1;points=[];fillColor=#fff2cc;resizable=0;rotatable=0;perimeter=centerPerimeter;snapToPoint=1;strokeColor=#d6b656;" parent="1" vertex="1">
                    <mxGeometry x="1420" y="860.95" width="20" height="20" as="geometry"/>
                </mxCell>
                <mxCell id="295" value="" style="shape=waypoint;fillStyle=solid;size=6;pointerEvents=1;points=[];fillColor=#fff2cc;resizable=0;rotatable=0;perimeter=centerPerimeter;snapToPoint=1;strokeColor=#d6b656;" parent="1" vertex="1">
                    <mxGeometry x="1370" y="880.95" width="20" height="20" as="geometry"/>
                </mxCell>
                <mxCell id="296" value="" style="shape=waypoint;fillStyle=solid;size=6;pointerEvents=1;points=[];fillColor=#fff2cc;resizable=0;rotatable=0;perimeter=centerPerimeter;snapToPoint=1;strokeColor=#d6b656;" parent="1" vertex="1">
                    <mxGeometry x="1340" y="840.95" width="20" height="20" as="geometry"/>
                </mxCell>
                <mxCell id="297" value="" style="shape=waypoint;fillStyle=solid;size=6;pointerEvents=1;points=[];fillColor=#fff2cc;resizable=0;rotatable=0;perimeter=centerPerimeter;snapToPoint=1;strokeColor=#d6b656;" parent="1" vertex="1">
                    <mxGeometry x="1370" y="850.95" width="20" height="20" as="geometry"/>
                </mxCell>
                <mxCell id="298" value="" style="shape=waypoint;fillStyle=solid;size=6;pointerEvents=1;points=[];fillColor=#fff2cc;resizable=0;rotatable=0;perimeter=centerPerimeter;snapToPoint=1;strokeColor=#d6b656;" parent="1" vertex="1">
                    <mxGeometry x="1350" y="870.95" width="20" height="20" as="geometry"/>
                </mxCell>
                <mxCell id="299" value="" style="shape=waypoint;fillStyle=solid;size=6;pointerEvents=1;points=[];fillColor=#fff2cc;resizable=0;rotatable=0;perimeter=centerPerimeter;snapToPoint=1;strokeColor=#d6b656;" parent="1" vertex="1">
                    <mxGeometry x="1400" y="890.95" width="20" height="20" as="geometry"/>
                </mxCell>
                <mxCell id="300" value="" style="shape=waypoint;fillStyle=solid;size=6;pointerEvents=1;points=[];fillColor=#fff2cc;resizable=0;rotatable=0;perimeter=centerPerimeter;snapToPoint=1;strokeColor=#d6b656;" parent="1" vertex="1">
                    <mxGeometry x="1390" y="870.95" width="20" height="20" as="geometry"/>
                </mxCell>
                <mxCell id="301" value="" style="shape=waypoint;fillStyle=solid;size=6;pointerEvents=1;points=[];fillColor=#fff2cc;resizable=0;rotatable=0;perimeter=centerPerimeter;snapToPoint=1;strokeColor=#d6b656;" parent="1" vertex="1">
                    <mxGeometry x="1430" y="850.95" width="20" height="20" as="geometry"/>
                </mxCell>
                <mxCell id="302" value="" style="shape=waypoint;fillStyle=solid;size=6;pointerEvents=1;points=[];fillColor=#fff2cc;resizable=0;rotatable=0;perimeter=centerPerimeter;snapToPoint=1;strokeColor=#d6b656;" parent="1" vertex="1">
                    <mxGeometry x="1450" y="840.95" width="20" height="20" as="geometry"/>
                </mxCell>
                <mxCell id="303" value="" style="shape=waypoint;fillStyle=solid;size=6;pointerEvents=1;points=[];fillColor=#fff2cc;resizable=0;rotatable=0;perimeter=centerPerimeter;snapToPoint=1;strokeColor=#d6b656;" parent="1" vertex="1">
                    <mxGeometry x="1460" y="850.95" width="20" height="20" as="geometry"/>
                </mxCell>
                <mxCell id="304" value="" style="shape=waypoint;fillStyle=solid;size=6;pointerEvents=1;points=[];fillColor=#fff2cc;resizable=0;rotatable=0;perimeter=centerPerimeter;snapToPoint=1;strokeColor=#d6b656;" parent="1" vertex="1">
                    <mxGeometry x="1480" y="840.95" width="20" height="20" as="geometry"/>
                </mxCell>
                <mxCell id="305" value="" style="shape=waypoint;fillStyle=solid;size=6;pointerEvents=1;points=[];fillColor=#fff2cc;resizable=0;rotatable=0;perimeter=centerPerimeter;snapToPoint=1;strokeColor=#d6b656;" parent="1" vertex="1">
                    <mxGeometry x="1480" y="820.95" width="20" height="20" as="geometry"/>
                </mxCell>
                <mxCell id="306" value="" style="shape=waypoint;fillStyle=solid;size=6;pointerEvents=1;points=[];fillColor=#fff2cc;resizable=0;rotatable=0;perimeter=centerPerimeter;snapToPoint=1;strokeColor=#d6b656;" parent="1" vertex="1">
                    <mxGeometry x="1470" y="840.95" width="20" height="20" as="geometry"/>
                </mxCell>
                <mxCell id="307" value="" style="shape=waypoint;fillStyle=solid;size=6;pointerEvents=1;points=[];fillColor=#fff2cc;resizable=0;rotatable=0;perimeter=centerPerimeter;snapToPoint=1;strokeColor=#d6b656;" parent="1" vertex="1">
                    <mxGeometry x="1450" y="860.95" width="20" height="20" as="geometry"/>
                </mxCell>
                <mxCell id="308" value="" style="shape=waypoint;fillStyle=solid;size=6;pointerEvents=1;points=[];fillColor=#fff2cc;resizable=0;rotatable=0;perimeter=centerPerimeter;snapToPoint=1;strokeColor=#d6b656;" parent="1" vertex="1">
                    <mxGeometry x="1500" y="820.95" width="20" height="20" as="geometry"/>
                </mxCell>
                <mxCell id="309" value="" style="shape=waypoint;fillStyle=solid;size=6;pointerEvents=1;points=[];fillColor=#fff2cc;resizable=0;rotatable=0;perimeter=centerPerimeter;snapToPoint=1;strokeColor=#d6b656;" parent="1" vertex="1">
                    <mxGeometry x="1470" y="820.95" width="20" height="20" as="geometry"/>
                </mxCell>
                <mxCell id="310" value="" style="shape=waypoint;fillStyle=solid;size=6;pointerEvents=1;points=[];fillColor=#fff2cc;resizable=0;rotatable=0;perimeter=centerPerimeter;snapToPoint=1;strokeColor=#d6b656;" parent="1" vertex="1">
                    <mxGeometry x="1420" y="880.95" width="20" height="20" as="geometry"/>
                </mxCell>
                <mxCell id="311" value="" style="shape=waypoint;fillStyle=solid;size=6;pointerEvents=1;points=[];fillColor=#fff2cc;resizable=0;rotatable=0;perimeter=centerPerimeter;snapToPoint=1;strokeColor=#d6b656;" parent="1" vertex="1">
                    <mxGeometry x="1400" y="870.95" width="20" height="20" as="geometry"/>
                </mxCell>
                <mxCell id="312" value="" style="endArrow=none;html=1;fillColor=#f8cecc;strokeColor=#b85450;" parent="1" target="308" edge="1">
                    <mxGeometry width="50" height="50" relative="1" as="geometry">
                        <mxPoint x="1324" y="860" as="sourcePoint"/>
                        <mxPoint x="1503" y="824" as="targetPoint"/>
                        <Array as="points">
                            <mxPoint x="1349" y="849"/>
                            <mxPoint x="1350" y="870"/>
                            <mxPoint x="1356" y="876"/>
                            <mxPoint x="1363" y="880"/>
                            <mxPoint x="1381" y="861"/>
                            <mxPoint x="1382" y="892"/>
                            <mxPoint x="1400" y="880"/>
                            <mxPoint x="1410" y="900"/>
                            <mxPoint x="1413" y="879"/>
                            <mxPoint x="1432" y="894"/>
                            <mxPoint x="1433" y="869"/>
                            <mxPoint x="1440" y="860"/>
                            <mxPoint x="1460" y="870"/>
                            <mxPoint x="1461" y="851"/>
                            <mxPoint x="1469" y="857"/>
                            <mxPoint x="1480" y="850"/>
                            <mxPoint x="1482" y="829"/>
                            <mxPoint x="1490" y="850"/>
                            <mxPoint x="1495" y="834"/>
                        </Array>
                    </mxGeometry>
                </mxCell>
                <mxCell id="313" value="" style="curved=1;endArrow=none;html=1;fillColor=#f8cecc;strokeColor=#b85450;endFill=0;" parent="1" edge="1">
                    <mxGeometry width="50" height="50" relative="1" as="geometry">
                        <mxPoint x="1327" y="598" as="sourcePoint"/>
                        <mxPoint x="1521" y="571" as="targetPoint"/>
                        <Array as="points">
                            <mxPoint x="1360" y="617"/>
                            <mxPoint x="1419" y="643"/>
                            <mxPoint x="1458" y="590"/>
                        </Array>
                    </mxGeometry>
                </mxCell>
            </root>
        </mxGraphModel>
    </diagram>
</mxfile>